solid OpenSCAD_Model
  facet normal -0 0 1
    outer loop
      vertex 0 56 32
      vertex 100 0 32
      vertex 100 56 32
    endloop
  endfacet
  facet normal 0 0 1
    outer loop
      vertex 100 0 32
      vertex 0 56 32
      vertex 0 0 32
    endloop
  endfacet
  facet normal 0 0 -1
    outer loop
      vertex 0 0 0
      vertex 100 56 0
      vertex 100 0 0
    endloop
  endfacet
  facet normal -0 0 -1
    outer loop
      vertex 100 56 0
      vertex 0 0 0
      vertex 0 56 0
    endloop
  endfacet
  facet normal 0 -1 0
    outer loop
      vertex 0 0 0
      vertex 100 0 32
      vertex 0 0 32
    endloop
  endfacet
  facet normal 0 -1 -0
    outer loop
      vertex 100 0 32
      vertex 0 0 0
      vertex 100 0 0
    endloop
  endfacet
  facet normal 1 -0 0
    outer loop
      vertex 100 0 32
      vertex 100 56 0
      vertex 100 56 32
    endloop
  endfacet
  facet normal 1 0 0
    outer loop
      vertex 100 56 0
      vertex 100 0 32
      vertex 100 0 0
    endloop
  endfacet
  facet normal 0 1 -0
    outer loop
      vertex 100 56 0
      vertex 0 56 32
      vertex 100 56 32
    endloop
  endfacet
  facet normal 0 1 0
    outer loop
      vertex 0 56 32
      vertex 100 56 0
      vertex 0 56 0
    endloop
  endfacet
  facet normal -1 0 0
    outer loop
      vertex 0 0 0
      vertex 0 56 32
      vertex 0 56 0
    endloop
  endfacet
  facet normal -1 -0 0
    outer loop
      vertex 0 56 32
      vertex 0 0 0
      vertex 0 0 32
    endloop
  endfacet
endsolid OpenSCAD_Model
