0
SECTION
2
HEADER
9
$INSUNITS
70
1
0
ENDSEC
0
SECTION
2
TABLES
0
TABLE
2
LAYER
0
ENDTAB
0
ENDSEC
0
SECTION
2
ENTITIES
0
LINE
8
front_outsideCutPath
10
0
20
43
11
0
21
29.3375
0
LINE
8
front_outsideCutPath
10
0
20
29.3375
11
4
21
29.3375
0
LINE
8
front_outsideCutPath
10
4
20
29.3375
11
4
21
16.6625
0
LINE
8
front_outsideCutPath
10
4
20
16.6625
11
0
21
16.6625
0
LINE
8
front_outsideCutPath
10
0
20
16.6625
11
0
21
3.9875
0
LINE
8
front_outsideCutPath
10
0
20
3.9875
11
0
21
3
0
LINE
8
front_outsideCutPath
10
0
20
3
11
9.6375
21
3
0
LINE
8
front_outsideCutPath
10
9.6375
20
3
11
9.6375
21
7
0
LINE
8
front_outsideCutPath
10
9.6375
20
7
11
22.3125
21
7
0
LINE
8
front_outsideCutPath
10
22.3125
20
7
11
22.3125
21
3
0
LINE
8
front_outsideCutPath
10
22.3125
20
3
11
34.9875
21
3
0
LINE
8
front_outsideCutPath
10
34.9875
20
3
11
34.9875
21
7
0
LINE
8
front_outsideCutPath
10
34.9875
20
7
11
47.6625
21
7
0
LINE
8
front_outsideCutPath
10
47.6625
20
7
11
47.6625
21
3
0
LINE
8
front_outsideCutPath
10
47.6625
20
3
11
60.3375
21
3
0
LINE
8
front_outsideCutPath
10
60.3375
20
3
11
60.3375
21
7
0
LINE
8
front_outsideCutPath
10
60.3375
20
7
11
73.0125
21
7
0
LINE
8
front_outsideCutPath
10
73.0125
20
7
11
73.0125
21
3
0
LINE
8
front_outsideCutPath
10
73.0125
20
3
11
85.6875
21
3
0
LINE
8
front_outsideCutPath
10
85.6875
20
3
11
85.6875
21
7
0
LINE
8
front_outsideCutPath
10
85.6875
20
7
11
98.3625
21
7
0
LINE
8
front_outsideCutPath
10
98.3625
20
7
11
98.3625
21
3
0
LINE
8
front_outsideCutPath
10
98.3625
20
3
11
108
21
3
0
LINE
8
front_outsideCutPath
10
108
20
3
11
108
21
16.6625
0
LINE
8
front_outsideCutPath
10
108
20
16.6625
11
104
21
16.6625
0
LINE
8
front_outsideCutPath
10
104
20
16.6625
11
104
21
29.3375
0
LINE
8
front_outsideCutPath
10
104
20
29.3375
11
108
21
29.3375
0
LINE
8
front_outsideCutPath
10
108
20
29.3375
11
108
21
42.0125
0
LINE
8
front_outsideCutPath
10
108
20
42.0125
11
108
21
43
0
LINE
8
front_outsideCutPath
10
108
20
43
11
98.3625
21
43
0
LINE
8
front_outsideCutPath
10
98.3625
20
43
11
98.3625
21
39
0
LINE
8
front_outsideCutPath
10
98.3625
20
39
11
85.6875
21
39
0
LINE
8
front_outsideCutPath
10
85.6875
20
39
11
85.6875
21
43
0
LINE
8
front_outsideCutPath
10
85.6875
20
43
11
73.0125
21
43
0
LINE
8
front_outsideCutPath
10
73.0125
20
43
11
73.0125
21
39
0
LINE
8
front_outsideCutPath
10
73.0125
20
39
11
60.3375
21
39
0
LINE
8
front_outsideCutPath
10
60.3375
20
39
11
60.3375
21
43
0
LINE
8
front_outsideCutPath
10
60.3375
20
43
11
47.6625
21
43
0
LINE
8
front_outsideCutPath
10
47.6625
20
43
11
47.6625
21
39
0
LINE
8
front_outsideCutPath
10
47.6625
20
39
11
34.9875
21
39
0
LINE
8
front_outsideCutPath
10
34.9875
20
39
11
34.9875
21
43
0
LINE
8
front_outsideCutPath
10
34.9875
20
43
11
22.3125
21
43
0
LINE
8
front_outsideCutPath
10
22.3125
20
43
11
22.3125
21
39
0
LINE
8
front_outsideCutPath
10
22.3125
20
39
11
9.6375
21
39
0
LINE
8
front_outsideCutPath
10
9.6375
20
39
11
9.6375
21
43
0
LINE
8
front_outsideCutPath
10
9.6375
20
43
11
0
21
43
0
LINE
8
left_outsideCutPath
10
115
20
43
11
115
21
29.3375
0
LINE
8
left_outsideCutPath
10
115
20
29.3375
11
111
21
29.3375
0
LINE
8
left_outsideCutPath
10
111
20
29.3375
11
111
21
16.6625
0
LINE
8
left_outsideCutPath
10
111
20
16.6625
11
115
21
16.6625
0
LINE
8
left_outsideCutPath
10
115
20
16.6625
11
115
21
3.9875
0
LINE
8
left_outsideCutPath
10
115
20
3.9875
11
115
21
3
0
LINE
8
left_outsideCutPath
10
115
20
3
11
123.9875
21
3
0
LINE
8
left_outsideCutPath
10
123.9875
20
3
11
123.9875
21
7
0
LINE
8
left_outsideCutPath
10
123.9875
20
7
11
136.6625
21
7
0
LINE
8
left_outsideCutPath
10
136.6625
20
7
11
136.6625
21
3
0
LINE
8
left_outsideCutPath
10
136.6625
20
3
11
149.3375
21
3
0
LINE
8
left_outsideCutPath
10
149.3375
20
3
11
149.3375
21
7
0
LINE
8
left_outsideCutPath
10
149.3375
20
7
11
162.0125
21
7
0
LINE
8
left_outsideCutPath
10
162.0125
20
7
11
162.0125
21
3
0
LINE
8
left_outsideCutPath
10
162.0125
20
3
11
171
21
3
0
LINE
8
left_outsideCutPath
10
171
20
3
11
171
21
16.6625
0
LINE
8
left_outsideCutPath
10
171
20
16.6625
11
175
21
16.6625
0
LINE
8
left_outsideCutPath
10
175
20
16.6625
11
175
21
29.3375
0
LINE
8
left_outsideCutPath
10
175
20
29.3375
11
171
21
29.3375
0
LINE
8
left_outsideCutPath
10
171
20
29.3375
11
171
21
42.0125
0
LINE
8
left_outsideCutPath
10
171
20
42.0125
11
171
21
43
0
LINE
8
left_outsideCutPath
10
171
20
43
11
162.0125
21
43
0
LINE
8
left_outsideCutPath
10
162.0125
20
43
11
162.0125
21
39
0
LINE
8
left_outsideCutPath
10
162.0125
20
39
11
149.3375
21
39
0
LINE
8
left_outsideCutPath
10
149.3375
20
39
11
149.3375
21
43
0
LINE
8
left_outsideCutPath
10
149.3375
20
43
11
136.6625
21
43
0
LINE
8
left_outsideCutPath
10
136.6625
20
43
11
136.6625
21
39
0
LINE
8
left_outsideCutPath
10
136.6625
20
39
11
123.9875
21
39
0
LINE
8
left_outsideCutPath
10
123.9875
20
39
11
123.9875
21
43
0
LINE
8
left_outsideCutPath
10
123.9875
20
43
11
115
21
43
0
LINE
8
top_outsideCutPath
10
182
20
63
11
182
21
54.0125
0
LINE
8
top_outsideCutPath
10
182
20
54.0125
11
178
21
54.0125
0
LINE
8
top_outsideCutPath
10
178
20
54.0125
11
178
21
41.3375
0
LINE
8
top_outsideCutPath
10
178
20
41.3375
11
182
21
41.3375
0
LINE
8
top_outsideCutPath
10
182
20
41.3375
11
182
21
28.6625
0
LINE
8
top_outsideCutPath
10
182
20
28.6625
11
178
21
28.6625
0
LINE
8
top_outsideCutPath
10
178
20
28.6625
11
178
21
15.9875
0
LINE
8
top_outsideCutPath
10
178
20
15.9875
11
182
21
15.9875
0
LINE
8
top_outsideCutPath
10
182
20
15.9875
11
182
21
7
0
LINE
8
top_outsideCutPath
10
182
20
7
11
187.6375
21
7
0
LINE
8
top_outsideCutPath
10
187.6375
20
7
11
187.6375
21
3
0
LINE
8
top_outsideCutPath
10
187.6375
20
3
11
200.3125
21
3
0
LINE
8
top_outsideCutPath
10
200.3125
20
3
11
200.3125
21
7
0
LINE
8
top_outsideCutPath
10
200.3125
20
7
11
212.9875
21
7
0
LINE
8
top_outsideCutPath
10
212.9875
20
7
11
212.9875
21
3
0
LINE
8
top_outsideCutPath
10
212.9875
20
3
11
225.6625
21
3
0
LINE
8
top_outsideCutPath
10
225.6625
20
3
11
225.6625
21
7
0
LINE
8
top_outsideCutPath
10
225.6625
20
7
11
238.3375
21
7
0
LINE
8
top_outsideCutPath
10
238.3375
20
7
11
238.3375
21
3
0
LINE
8
top_outsideCutPath
10
238.3375
20
3
11
251.0125
21
3
0
LINE
8
top_outsideCutPath
10
251.0125
20
3
11
251.0125
21
7
0
LINE
8
top_outsideCutPath
10
251.0125
20
7
11
263.6875
21
7
0
LINE
8
top_outsideCutPath
10
263.6875
20
7
11
263.6875
21
3
0
LINE
8
top_outsideCutPath
10
263.6875
20
3
11
276.3625
21
3
0
LINE
8
top_outsideCutPath
10
276.3625
20
3
11
276.3625
21
7
0
LINE
8
top_outsideCutPath
10
276.3625
20
7
11
282
21
7
0
LINE
8
top_outsideCutPath
10
282
20
7
11
282
21
15.9875
0
LINE
8
top_outsideCutPath
10
282
20
15.9875
11
286
21
15.9875
0
LINE
8
top_outsideCutPath
10
286
20
15.9875
11
286
21
28.6625
0
LINE
8
top_outsideCutPath
10
286
20
28.6625
11
282
21
28.6625
0
LINE
8
top_outsideCutPath
10
282
20
28.6625
11
282
21
41.3375
0
LINE
8
top_outsideCutPath
10
282
20
41.3375
11
286
21
41.3375
0
LINE
8
top_outsideCutPath
10
286
20
41.3375
11
286
21
54.0125
0
LINE
8
top_outsideCutPath
10
286
20
54.0125
11
282
21
54.0125
0
LINE
8
top_outsideCutPath
10
282
20
54.0125
11
282
21
63
0
LINE
8
top_outsideCutPath
10
282
20
63
11
276.3625
21
63
0
LINE
8
top_outsideCutPath
10
276.3625
20
63
11
276.3625
21
67
0
LINE
8
top_outsideCutPath
10
276.3625
20
67
11
263.6875
21
67
0
LINE
8
top_outsideCutPath
10
263.6875
20
67
11
263.6875
21
63
0
LINE
8
top_outsideCutPath
10
263.6875
20
63
11
251.0125
21
63
0
LINE
8
top_outsideCutPath
10
251.0125
20
63
11
251.0125
21
67
0
LINE
8
top_outsideCutPath
10
251.0125
20
67
11
238.3375
21
67
0
LINE
8
top_outsideCutPath
10
238.3375
20
67
11
238.3375
21
63
0
LINE
8
top_outsideCutPath
10
238.3375
20
63
11
225.6625
21
63
0
LINE
8
top_outsideCutPath
10
225.6625
20
63
11
225.6625
21
67
0
LINE
8
top_outsideCutPath
10
225.6625
20
67
11
212.9875
21
67
0
LINE
8
top_outsideCutPath
10
212.9875
20
67
11
212.9875
21
63
0
LINE
8
top_outsideCutPath
10
212.9875
20
63
11
200.3125
21
63
0
LINE
8
top_outsideCutPath
10
200.3125
20
63
11
200.3125
21
67
0
LINE
8
top_outsideCutPath
10
200.3125
20
67
11
187.6375
21
67
0
LINE
8
top_outsideCutPath
10
187.6375
20
67
11
187.6375
21
63
0
LINE
8
top_outsideCutPath
10
187.6375
20
63
11
182
21
63
0
LINE
8
back_outsideCutPath
10
0
20
86
11
0
21
72.3375
0
LINE
8
back_outsideCutPath
10
0
20
72.3375
11
4
21
72.3375
0
LINE
8
back_outsideCutPath
10
4
20
72.3375
11
4
21
59.6625
0
LINE
8
back_outsideCutPath
10
4
20
59.6625
11
0
21
59.6625
0
LINE
8
back_outsideCutPath
10
0
20
59.6625
11
0
21
46.9875
0
LINE
8
back_outsideCutPath
10
0
20
46.9875
11
0
21
46
0
LINE
8
back_outsideCutPath
10
0
20
46
11
9.6375
21
46
0
LINE
8
back_outsideCutPath
10
9.6375
20
46
11
9.6375
21
50
0
LINE
8
back_outsideCutPath
10
9.6375
20
50
11
22.3125
21
50
0
LINE
8
back_outsideCutPath
10
22.3125
20
50
11
22.3125
21
46
0
LINE
8
back_outsideCutPath
10
22.3125
20
46
11
34.9875
21
46
0
LINE
8
back_outsideCutPath
10
34.9875
20
46
11
34.9875
21
50
0
LINE
8
back_outsideCutPath
10
34.9875
20
50
11
47.6625
21
50
0
LINE
8
back_outsideCutPath
10
47.6625
20
50
11
47.6625
21
46
0
LINE
8
back_outsideCutPath
10
47.6625
20
46
11
60.3375
21
46
0
LINE
8
back_outsideCutPath
10
60.3375
20
46
11
60.3375
21
50
0
LINE
8
back_outsideCutPath
10
60.3375
20
50
11
73.0125
21
50
0
LINE
8
back_outsideCutPath
10
73.0125
20
50
11
73.0125
21
46
0
LINE
8
back_outsideCutPath
10
73.0125
20
46
11
85.6875
21
46
0
LINE
8
back_outsideCutPath
10
85.6875
20
46
11
85.6875
21
50
0
LINE
8
back_outsideCutPath
10
85.6875
20
50
11
98.3625
21
50
0
LINE
8
back_outsideCutPath
10
98.3625
20
50
11
98.3625
21
46
0
LINE
8
back_outsideCutPath
10
98.3625
20
46
11
108
21
46
0
LINE
8
back_outsideCutPath
10
108
20
46
11
108
21
59.6625
0
LINE
8
back_outsideCutPath
10
108
20
59.6625
11
104
21
59.6625
0
LINE
8
back_outsideCutPath
10
104
20
59.6625
11
104
21
72.3375
0
LINE
8
back_outsideCutPath
10
104
20
72.3375
11
108
21
72.3375
0
LINE
8
back_outsideCutPath
10
108
20
72.3375
11
108
21
85.0125
0
LINE
8
back_outsideCutPath
10
108
20
85.0125
11
108
21
86
0
LINE
8
back_outsideCutPath
10
108
20
86
11
98.3625
21
86
0
LINE
8
back_outsideCutPath
10
98.3625
20
86
11
98.3625
21
82
0
LINE
8
back_outsideCutPath
10
98.3625
20
82
11
85.6875
21
82
0
LINE
8
back_outsideCutPath
10
85.6875
20
82
11
85.6875
21
86
0
LINE
8
back_outsideCutPath
10
85.6875
20
86
11
73.0125
21
86
0
LINE
8
back_outsideCutPath
10
73.0125
20
86
11
73.0125
21
82
0
LINE
8
back_outsideCutPath
10
73.0125
20
82
11
60.3375
21
82
0
LINE
8
back_outsideCutPath
10
60.3375
20
82
11
60.3375
21
86
0
LINE
8
back_outsideCutPath
10
60.3375
20
86
11
47.6625
21
86
0
LINE
8
back_outsideCutPath
10
47.6625
20
86
11
47.6625
21
82
0
LINE
8
back_outsideCutPath
10
47.6625
20
82
11
34.9875
21
82
0
LINE
8
back_outsideCutPath
10
34.9875
20
82
11
34.9875
21
86
0
LINE
8
back_outsideCutPath
10
34.9875
20
86
11
22.3125
21
86
0
LINE
8
back_outsideCutPath
10
22.3125
20
86
11
22.3125
21
82
0
LINE
8
back_outsideCutPath
10
22.3125
20
82
11
9.6375
21
82
0
LINE
8
back_outsideCutPath
10
9.6375
20
82
11
9.6375
21
86
0
LINE
8
back_outsideCutPath
10
9.6375
20
86
11
0
21
86
0
LINE
8
right_outsideCutPath
10
115
20
86
11
115
21
72.3375
0
LINE
8
right_outsideCutPath
10
115
20
72.3375
11
111
21
72.3375
0
LINE
8
right_outsideCutPath
10
111
20
72.3375
11
111
21
59.6625
0
LINE
8
right_outsideCutPath
10
111
20
59.6625
11
115
21
59.6625
0
LINE
8
right_outsideCutPath
10
115
20
59.6625
11
115
21
46.9875
0
LINE
8
right_outsideCutPath
10
115
20
46.9875
11
115
21
46
0
LINE
8
right_outsideCutPath
10
115
20
46
11
123.9875
21
46
0
LINE
8
right_outsideCutPath
10
123.9875
20
46
11
123.9875
21
50
0
LINE
8
right_outsideCutPath
10
123.9875
20
50
11
136.6625
21
50
0
LINE
8
right_outsideCutPath
10
136.6625
20
50
11
136.6625
21
46
0
LINE
8
right_outsideCutPath
10
136.6625
20
46
11
149.3375
21
46
0
LINE
8
right_outsideCutPath
10
149.3375
20
46
11
149.3375
21
50
0
LINE
8
right_outsideCutPath
10
149.3375
20
50
11
162.0125
21
50
0
LINE
8
right_outsideCutPath
10
162.0125
20
50
11
162.0125
21
46
0
LINE
8
right_outsideCutPath
10
162.0125
20
46
11
171
21
46
0
LINE
8
right_outsideCutPath
10
171
20
46
11
171
21
59.6625
0
LINE
8
right_outsideCutPath
10
171
20
59.6625
11
175
21
59.6625
0
LINE
8
right_outsideCutPath
10
175
20
59.6625
11
175
21
72.3375
0
LINE
8
right_outsideCutPath
10
175
20
72.3375
11
171
21
72.3375
0
LINE
8
right_outsideCutPath
10
171
20
72.3375
11
171
21
85.0125
0
LINE
8
right_outsideCutPath
10
171
20
85.0125
11
171
21
86
0
LINE
8
right_outsideCutPath
10
171
20
86
11
162.0125
21
86
0
LINE
8
right_outsideCutPath
10
162.0125
20
86
11
162.0125
21
82
0
LINE
8
right_outsideCutPath
10
162.0125
20
82
11
149.3375
21
82
0
LINE
8
right_outsideCutPath
10
149.3375
20
82
11
149.3375
21
86
0
LINE
8
right_outsideCutPath
10
149.3375
20
86
11
136.6625
21
86
0
LINE
8
right_outsideCutPath
10
136.6625
20
86
11
136.6625
21
82
0
LINE
8
right_outsideCutPath
10
136.6625
20
82
11
123.9875
21
82
0
LINE
8
right_outsideCutPath
10
123.9875
20
82
11
123.9875
21
86
0
LINE
8
right_outsideCutPath
10
123.9875
20
86
11
115
21
86
0
LINE
8
bottom_outsideCutPath
10
182
20
130
11
182
21
121.0125
0
LINE
8
bottom_outsideCutPath
10
182
20
121.0125
11
178
21
121.0125
0
LINE
8
bottom_outsideCutPath
10
178
20
121.0125
11
178
21
108.3375
0
LINE
8
bottom_outsideCutPath
10
178
20
108.3375
11
182
21
108.3375
0
LINE
8
bottom_outsideCutPath
10
182
20
108.3375
11
182
21
95.6625
0
LINE
8
bottom_outsideCutPath
10
182
20
95.6625
11
178
21
95.6625
0
LINE
8
bottom_outsideCutPath
10
178
20
95.6625
11
178
21
82.9875
0
LINE
8
bottom_outsideCutPath
10
178
20
82.9875
11
182
21
82.9875
0
LINE
8
bottom_outsideCutPath
10
182
20
82.9875
11
182
21
74
0
LINE
8
bottom_outsideCutPath
10
182
20
74
11
187.6375
21
74
0
LINE
8
bottom_outsideCutPath
10
187.6375
20
74
11
187.6375
21
70
0
LINE
8
bottom_outsideCutPath
10
187.6375
20
70
11
200.3125
21
70
0
LINE
8
bottom_outsideCutPath
10
200.3125
20
70
11
200.3125
21
74
0
LINE
8
bottom_outsideCutPath
10
200.3125
20
74
11
212.9875
21
74
0
LINE
8
bottom_outsideCutPath
10
212.9875
20
74
11
212.9875
21
70
0
LINE
8
bottom_outsideCutPath
10
212.9875
20
70
11
225.6625
21
70
0
LINE
8
bottom_outsideCutPath
10
225.6625
20
70
11
225.6625
21
74
0
LINE
8
bottom_outsideCutPath
10
225.6625
20
74
11
238.3375
21
74
0
LINE
8
bottom_outsideCutPath
10
238.3375
20
74
11
238.3375
21
70
0
LINE
8
bottom_outsideCutPath
10
238.3375
20
70
11
251.0125
21
70
0
LINE
8
bottom_outsideCutPath
10
251.0125
20
70
11
251.0125
21
74
0
LINE
8
bottom_outsideCutPath
10
251.0125
20
74
11
263.6875
21
74
0
LINE
8
bottom_outsideCutPath
10
263.6875
20
74
11
263.6875
21
70
0
LINE
8
bottom_outsideCutPath
10
263.6875
20
70
11
276.3625
21
70
0
LINE
8
bottom_outsideCutPath
10
276.3625
20
70
11
276.3625
21
74
0
LINE
8
bottom_outsideCutPath
10
276.3625
20
74
11
282
21
74
0
LINE
8
bottom_outsideCutPath
10
282
20
74
11
282
21
82.9875
0
LINE
8
bottom_outsideCutPath
10
282
20
82.9875
11
286
21
82.9875
0
LINE
8
bottom_outsideCutPath
10
286
20
82.9875
11
286
21
95.6625
0
LINE
8
bottom_outsideCutPath
10
286
20
95.6625
11
282
21
95.6625
0
LINE
8
bottom_outsideCutPath
10
282
20
95.6625
11
282
21
108.3375
0
LINE
8
bottom_outsideCutPath
10
282
20
108.3375
11
286
21
108.3375
0
LINE
8
bottom_outsideCutPath
10
286
20
108.3375
11
286
21
121.0125
0
LINE
8
bottom_outsideCutPath
10
286
20
121.0125
11
282
21
121.0125
0
LINE
8
bottom_outsideCutPath
10
282
20
121.0125
11
282
21
130
0
LINE
8
bottom_outsideCutPath
10
282
20
130
11
276.3625
21
130
0
LINE
8
bottom_outsideCutPath
10
276.3625
20
130
11
276.3625
21
134
0
LINE
8
bottom_outsideCutPath
10
276.3625
20
134
11
263.6875
21
134
0
LINE
8
bottom_outsideCutPath
10
263.6875
20
134
11
263.6875
21
130
0
LINE
8
bottom_outsideCutPath
10
263.6875
20
130
11
251.0125
21
130
0
LINE
8
bottom_outsideCutPath
10
251.0125
20
130
11
251.0125
21
134
0
LINE
8
bottom_outsideCutPath
10
251.0125
20
134
11
238.3375
21
134
0
LINE
8
bottom_outsideCutPath
10
238.3375
20
134
11
238.3375
21
130
0
LINE
8
bottom_outsideCutPath
10
238.3375
20
130
11
225.6625
21
130
0
LINE
8
bottom_outsideCutPath
10
225.6625
20
130
11
225.6625
21
134
0
LINE
8
bottom_outsideCutPath
10
225.6625
20
134
11
212.9875
21
134
0
LINE
8
bottom_outsideCutPath
10
212.9875
20
134
11
212.9875
21
130
0
LINE
8
bottom_outsideCutPath
10
212.9875
20
130
11
200.3125
21
130
0
LINE
8
bottom_outsideCutPath
10
200.3125
20
130
11
200.3125
21
134
0
LINE
8
bottom_outsideCutPath
10
200.3125
20
134
11
187.6375
21
134
0
LINE
8
bottom_outsideCutPath
10
187.6375
20
134
11
187.6375
21
130
0
LINE
8
bottom_outsideCutPath
10
187.6375
20
130
11
182
21
130
0
ENDSEC
0
EOF