0
SECTION
2
HEADER
9
$INSUNITS
70
1
0
ENDSEC
0
SECTION
2
TABLES
0
TABLE
2
LAYER
0
ENDTAB
0
ENDSEC
0
SECTION
2
ENTITIES
0
LINE
8
front_outsideCutPath
10
0
20
46
11
0
21
31.75
0
LINE
8
front_outsideCutPath
10
0
20
31.75
11
4
21
31.75
0
LINE
8
front_outsideCutPath
10
4
20
31.75
11
4
21
17.25
0
LINE
8
front_outsideCutPath
10
4
20
17.25
11
0
21
17.25
0
LINE
8
front_outsideCutPath
10
0
20
17.25
11
0
21
3
0
LINE
8
front_outsideCutPath
10
0
20
3
11
10.25
21
3
0
LINE
8
front_outsideCutPath
10
10.25
20
3
11
10.25
21
7
0
LINE
8
front_outsideCutPath
10
10.25
20
7
11
24.75
21
7
0
LINE
8
front_outsideCutPath
10
24.75
20
7
11
24.75
21
3
0
LINE
8
front_outsideCutPath
10
24.75
20
3
11
39.25
21
3
0
LINE
8
front_outsideCutPath
10
39.25
20
3
11
39.25
21
7
0
LINE
8
front_outsideCutPath
10
39.25
20
7
11
53.75
21
7
0
LINE
8
front_outsideCutPath
10
53.75
20
7
11
53.75
21
3
0
LINE
8
front_outsideCutPath
10
53.75
20
3
11
68.25
21
3
0
LINE
8
front_outsideCutPath
10
68.25
20
3
11
68.25
21
7
0
LINE
8
front_outsideCutPath
10
68.25
20
7
11
82.75
21
7
0
LINE
8
front_outsideCutPath
10
82.75
20
7
11
82.75
21
3
0
LINE
8
front_outsideCutPath
10
82.75
20
3
11
93
21
3
0
LINE
8
front_outsideCutPath
10
93
20
3
11
93
21
17.25
0
LINE
8
front_outsideCutPath
10
93
20
17.25
11
89
21
17.25
0
LINE
8
front_outsideCutPath
10
89
20
17.25
11
89
21
31.75
0
LINE
8
front_outsideCutPath
10
89
20
31.75
11
93
21
31.75
0
LINE
8
front_outsideCutPath
10
93
20
31.75
11
93
21
46
0
LINE
8
front_outsideCutPath
10
93
20
46
11
82.75
21
46
0
LINE
8
front_outsideCutPath
10
82.75
20
46
11
82.75
21
42
0
LINE
8
front_outsideCutPath
10
82.75
20
42
11
68.25
21
42
0
LINE
8
front_outsideCutPath
10
68.25
20
42
11
68.25
21
46
0
LINE
8
front_outsideCutPath
10
68.25
20
46
11
53.75
21
46
0
LINE
8
front_outsideCutPath
10
53.75
20
46
11
53.75
21
42
0
LINE
8
front_outsideCutPath
10
53.75
20
42
11
39.25
21
42
0
LINE
8
front_outsideCutPath
10
39.25
20
42
11
39.25
21
46
0
LINE
8
front_outsideCutPath
10
39.25
20
46
11
24.75
21
46
0
LINE
8
front_outsideCutPath
10
24.75
20
46
11
24.75
21
42
0
LINE
8
front_outsideCutPath
10
24.75
20
42
11
10.25
21
42
0
LINE
8
front_outsideCutPath
10
10.25
20
42
11
10.25
21
46
0
LINE
8
front_outsideCutPath
10
10.25
20
46
11
0
21
46
0
LINE
8
left_outsideCutPath
10
100
20
46
11
100
21
31.75
0
LINE
8
left_outsideCutPath
10
100
20
31.75
11
96
21
31.75
0
LINE
8
left_outsideCutPath
10
96
20
31.75
11
96
21
17.25
0
LINE
8
left_outsideCutPath
10
96
20
17.25
11
100
21
17.25
0
LINE
8
left_outsideCutPath
10
100
20
17.25
11
100
21
3
0
LINE
8
left_outsideCutPath
10
100
20
3
11
112.75
21
3
0
LINE
8
left_outsideCutPath
10
112.75
20
3
11
112.75
21
7
0
LINE
8
left_outsideCutPath
10
112.75
20
7
11
127.25
21
7
0
LINE
8
left_outsideCutPath
10
127.25
20
7
11
127.25
21
3
0
LINE
8
left_outsideCutPath
10
127.25
20
3
11
140
21
3
0
LINE
8
left_outsideCutPath
10
140
20
3
11
140
21
17.25
0
LINE
8
left_outsideCutPath
10
140
20
17.25
11
144
21
17.25
0
LINE
8
left_outsideCutPath
10
144
20
17.25
11
144
21
31.75
0
LINE
8
left_outsideCutPath
10
144
20
31.75
11
140
21
31.75
0
LINE
8
left_outsideCutPath
10
140
20
31.75
11
140
21
46
0
LINE
8
left_outsideCutPath
10
140
20
46
11
127.25
21
46
0
LINE
8
left_outsideCutPath
10
127.25
20
46
11
127.25
21
42
0
LINE
8
left_outsideCutPath
10
127.25
20
42
11
112.75
21
42
0
LINE
8
left_outsideCutPath
10
112.75
20
42
11
112.75
21
46
0
LINE
8
left_outsideCutPath
10
112.75
20
46
11
100
21
46
0
LINE
8
top_outsideCutPath
10
151
20
47
11
151
21
34.25
0
LINE
8
top_outsideCutPath
10
151
20
34.25
11
147
21
34.25
0
LINE
8
top_outsideCutPath
10
147
20
34.25
11
147
21
19.75
0
LINE
8
top_outsideCutPath
10
147
20
19.75
11
151
21
19.75
0
LINE
8
top_outsideCutPath
10
151
20
19.75
11
151
21
7
0
LINE
8
top_outsideCutPath
10
151
20
7
11
157.25
21
7
0
LINE
8
top_outsideCutPath
10
157.25
20
7
11
157.25
21
3
0
LINE
8
top_outsideCutPath
10
157.25
20
3
11
171.75
21
3
0
LINE
8
top_outsideCutPath
10
171.75
20
3
11
171.75
21
7
0
LINE
8
top_outsideCutPath
10
171.75
20
7
11
186.25
21
7
0
LINE
8
top_outsideCutPath
10
186.25
20
7
11
186.25
21
3
0
LINE
8
top_outsideCutPath
10
186.25
20
3
11
200.75
21
3
0
LINE
8
top_outsideCutPath
10
200.75
20
3
11
200.75
21
7
0
LINE
8
top_outsideCutPath
10
200.75
20
7
11
215.25
21
7
0
LINE
8
top_outsideCutPath
10
215.25
20
7
11
215.25
21
3
0
LINE
8
top_outsideCutPath
10
215.25
20
3
11
229.75
21
3
0
LINE
8
top_outsideCutPath
10
229.75
20
3
11
229.75
21
7
0
LINE
8
top_outsideCutPath
10
229.75
20
7
11
236
21
7
0
LINE
8
top_outsideCutPath
10
236
20
7
11
236
21
19.75
0
LINE
8
top_outsideCutPath
10
236
20
19.75
11
240
21
19.75
0
LINE
8
top_outsideCutPath
10
240
20
19.75
11
240
21
34.25
0
LINE
8
top_outsideCutPath
10
240
20
34.25
11
236
21
34.25
0
LINE
8
top_outsideCutPath
10
236
20
34.25
11
236
21
47
0
LINE
8
top_outsideCutPath
10
236
20
47
11
229.75
21
47
0
LINE
8
top_outsideCutPath
10
229.75
20
47
11
229.75
21
51
0
LINE
8
top_outsideCutPath
10
229.75
20
51
11
215.25
21
51
0
LINE
8
top_outsideCutPath
10
215.25
20
51
11
215.25
21
47
0
LINE
8
top_outsideCutPath
10
215.25
20
47
11
200.75
21
47
0
LINE
8
top_outsideCutPath
10
200.75
20
47
11
200.75
21
51
0
LINE
8
top_outsideCutPath
10
200.75
20
51
11
186.25
21
51
0
LINE
8
top_outsideCutPath
10
186.25
20
51
11
186.25
21
47
0
LINE
8
top_outsideCutPath
10
186.25
20
47
11
171.75
21
47
0
LINE
8
top_outsideCutPath
10
171.75
20
47
11
171.75
21
51
0
LINE
8
top_outsideCutPath
10
171.75
20
51
11
157.25
21
51
0
LINE
8
top_outsideCutPath
10
157.25
20
51
11
157.25
21
47
0
LINE
8
top_outsideCutPath
10
157.25
20
47
11
151
21
47
0
LINE
8
back_outsideCutPath
10
0
20
92
11
0
21
77.75
0
LINE
8
back_outsideCutPath
10
0
20
77.75
11
4
21
77.75
0
LINE
8
back_outsideCutPath
10
4
20
77.75
11
4
21
63.25
0
LINE
8
back_outsideCutPath
10
4
20
63.25
11
0
21
63.25
0
LINE
8
back_outsideCutPath
10
0
20
63.25
11
0
21
49
0
LINE
8
back_outsideCutPath
10
0
20
49
11
10.25
21
49
0
LINE
8
back_outsideCutPath
10
10.25
20
49
11
10.25
21
53
0
LINE
8
back_outsideCutPath
10
10.25
20
53
11
24.75
21
53
0
LINE
8
back_outsideCutPath
10
24.75
20
53
11
24.75
21
49
0
LINE
8
back_outsideCutPath
10
24.75
20
49
11
39.25
21
49
0
LINE
8
back_outsideCutPath
10
39.25
20
49
11
39.25
21
53
0
LINE
8
back_outsideCutPath
10
39.25
20
53
11
53.75
21
53
0
LINE
8
back_outsideCutPath
10
53.75
20
53
11
53.75
21
49
0
LINE
8
back_outsideCutPath
10
53.75
20
49
11
68.25
21
49
0
LINE
8
back_outsideCutPath
10
68.25
20
49
11
68.25
21
53
0
LINE
8
back_outsideCutPath
10
68.25
20
53
11
82.75
21
53
0
LINE
8
back_outsideCutPath
10
82.75
20
53
11
82.75
21
49
0
LINE
8
back_outsideCutPath
10
82.75
20
49
11
93
21
49
0
LINE
8
back_outsideCutPath
10
93
20
49
11
93
21
63.25
0
LINE
8
back_outsideCutPath
10
93
20
63.25
11
89
21
63.25
0
LINE
8
back_outsideCutPath
10
89
20
63.25
11
89
21
77.75
0
LINE
8
back_outsideCutPath
10
89
20
77.75
11
93
21
77.75
0
LINE
8
back_outsideCutPath
10
93
20
77.75
11
93
21
92
0
LINE
8
back_outsideCutPath
10
93
20
92
11
82.75
21
92
0
LINE
8
back_outsideCutPath
10
82.75
20
92
11
82.75
21
88
0
LINE
8
back_outsideCutPath
10
82.75
20
88
11
68.25
21
88
0
LINE
8
back_outsideCutPath
10
68.25
20
88
11
68.25
21
92
0
LINE
8
back_outsideCutPath
10
68.25
20
92
11
53.75
21
92
0
LINE
8
back_outsideCutPath
10
53.75
20
92
11
53.75
21
88
0
LINE
8
back_outsideCutPath
10
53.75
20
88
11
39.25
21
88
0
LINE
8
back_outsideCutPath
10
39.25
20
88
11
39.25
21
92
0
LINE
8
back_outsideCutPath
10
39.25
20
92
11
24.75
21
92
0
LINE
8
back_outsideCutPath
10
24.75
20
92
11
24.75
21
88
0
LINE
8
back_outsideCutPath
10
24.75
20
88
11
10.25
21
88
0
LINE
8
back_outsideCutPath
10
10.25
20
88
11
10.25
21
92
0
LINE
8
back_outsideCutPath
10
10.25
20
92
11
0
21
92
0
LINE
8
right_outsideCutPath
10
100
20
92
11
100
21
77.75
0
LINE
8
right_outsideCutPath
10
100
20
77.75
11
96
21
77.75
0
LINE
8
right_outsideCutPath
10
96
20
77.75
11
96
21
63.25
0
LINE
8
right_outsideCutPath
10
96
20
63.25
11
100
21
63.25
0
LINE
8
right_outsideCutPath
10
100
20
63.25
11
100
21
49
0
LINE
8
right_outsideCutPath
10
100
20
49
11
112.75
21
49
0
LINE
8
right_outsideCutPath
10
112.75
20
49
11
112.75
21
53
0
LINE
8
right_outsideCutPath
10
112.75
20
53
11
127.25
21
53
0
LINE
8
right_outsideCutPath
10
127.25
20
53
11
127.25
21
49
0
LINE
8
right_outsideCutPath
10
127.25
20
49
11
140
21
49
0
LINE
8
right_outsideCutPath
10
140
20
49
11
140
21
63.25
0
LINE
8
right_outsideCutPath
10
140
20
63.25
11
144
21
63.25
0
LINE
8
right_outsideCutPath
10
144
20
63.25
11
144
21
77.75
0
LINE
8
right_outsideCutPath
10
144
20
77.75
11
140
21
77.75
0
LINE
8
right_outsideCutPath
10
140
20
77.75
11
140
21
92
0
LINE
8
right_outsideCutPath
10
140
20
92
11
127.25
21
92
0
LINE
8
right_outsideCutPath
10
127.25
20
92
11
127.25
21
88
0
LINE
8
right_outsideCutPath
10
127.25
20
88
11
112.75
21
88
0
LINE
8
right_outsideCutPath
10
112.75
20
88
11
112.75
21
92
0
LINE
8
right_outsideCutPath
10
112.75
20
92
11
100
21
92
0
LINE
8
bottom_outsideCutPath
10
151
20
98
11
151
21
85.25
0
LINE
8
bottom_outsideCutPath
10
151
20
85.25
11
147
21
85.25
0
LINE
8
bottom_outsideCutPath
10
147
20
85.25
11
147
21
70.75
0
LINE
8
bottom_outsideCutPath
10
147
20
70.75
11
151
21
70.75
0
LINE
8
bottom_outsideCutPath
10
151
20
70.75
11
151
21
58
0
LINE
8
bottom_outsideCutPath
10
151
20
58
11
157.25
21
58
0
LINE
8
bottom_outsideCutPath
10
157.25
20
58
11
157.25
21
54
0
LINE
8
bottom_outsideCutPath
10
157.25
20
54
11
171.75
21
54
0
LINE
8
bottom_outsideCutPath
10
171.75
20
54
11
171.75
21
58
0
LINE
8
bottom_outsideCutPath
10
171.75
20
58
11
186.25
21
58
0
LINE
8
bottom_outsideCutPath
10
186.25
20
58
11
186.25
21
54
0
LINE
8
bottom_outsideCutPath
10
186.25
20
54
11
200.75
21
54
0
LINE
8
bottom_outsideCutPath
10
200.75
20
54
11
200.75
21
58
0
LINE
8
bottom_outsideCutPath
10
200.75
20
58
11
215.25
21
58
0
LINE
8
bottom_outsideCutPath
10
215.25
20
58
11
215.25
21
54
0
LINE
8
bottom_outsideCutPath
10
215.25
20
54
11
229.75
21
54
0
LINE
8
bottom_outsideCutPath
10
229.75
20
54
11
229.75
21
58
0
LINE
8
bottom_outsideCutPath
10
229.75
20
58
11
236
21
58
0
LINE
8
bottom_outsideCutPath
10
236
20
58
11
236
21
70.75
0
LINE
8
bottom_outsideCutPath
10
236
20
70.75
11
240
21
70.75
0
LINE
8
bottom_outsideCutPath
10
240
20
70.75
11
240
21
85.25
0
LINE
8
bottom_outsideCutPath
10
240
20
85.25
11
236
21
85.25
0
LINE
8
bottom_outsideCutPath
10
236
20
85.25
11
236
21
98
0
LINE
8
bottom_outsideCutPath
10
236
20
98
11
229.75
21
98
0
LINE
8
bottom_outsideCutPath
10
229.75
20
98
11
229.75
21
102
0
LINE
8
bottom_outsideCutPath
10
229.75
20
102
11
215.25
21
102
0
LINE
8
bottom_outsideCutPath
10
215.25
20
102
11
215.25
21
98
0
LINE
8
bottom_outsideCutPath
10
215.25
20
98
11
200.75
21
98
0
LINE
8
bottom_outsideCutPath
10
200.75
20
98
11
200.75
21
102
0
LINE
8
bottom_outsideCutPath
10
200.75
20
102
11
186.25
21
102
0
LINE
8
bottom_outsideCutPath
10
186.25
20
102
11
186.25
21
98
0
LINE
8
bottom_outsideCutPath
10
186.25
20
98
11
171.75
21
98
0
LINE
8
bottom_outsideCutPath
10
171.75
20
98
11
171.75
21
102
0
LINE
8
bottom_outsideCutPath
10
171.75
20
102
11
157.25
21
102
0
LINE
8
bottom_outsideCutPath
10
157.25
20
102
11
157.25
21
98
0
LINE
8
bottom_outsideCutPath
10
157.25
20
98
11
151
21
98
0
ENDSEC
0
EOF