  0
SECTION
  2
HEADER
  9
$ACADVER
  1
AC1009
  0
ENDSEC
  0
SECTION
  2
ENTITIES
  0
POLYLINE
  5
90
  8
Layer_0
  62
0
  70
1
  66
1
  10
0
  20
0
  30
0
  0
VERTEX
  5
90
  8
Layer_0
  10
297.62088
  20
97.966187
  0
VERTEX
  5
91
  8
Layer_0
  10
297.64282
  20
98.400726
  0
VERTEX
  5
92
  8
Layer_0
  10
297.70724
  20
98.822708
  0
VERTEX
  5
93
  8
Layer_0
  10
297.81195
  20
99.230003
  0
VERTEX
  5
94
  8
Layer_0
  10
297.95486
  20
99.620476
  0
VERTEX
  5
95
  8
Layer_0
  10
298.13382
  20
99.991989
  0
VERTEX
  5
96
  8
Layer_0
  10
298.34668
  20
100.3424
  0
VERTEX
  5
97
  8
Layer_0
  10
298.59137
  20
100.66957
  0
VERTEX
  5
98
  8
Layer_0
  10
298.86566
  20
100.97139
  0
VERTEX
  5
99
  8
Layer_0
  10
299.16745
  20
101.2457
  0
VERTEX
  5
9a
  8
Layer_0
  10
299.49466
  20
101.49036
  0
VERTEX
  5
9b
  8
Layer_0
  10
299.84509
  20
101.70324
  0
VERTEX
  5
9c
  8
Layer_0
  10
300.21658
  20
101.8822
  0
VERTEX
  5
9d
  8
Layer_0
  10
300.60706
  20
102.02512
  0
VERTEX
  5
9e
  8
Layer_0
  10
301.01434
  20
102.12984
  0
VERTEX
  5
9f
  8
Layer_0
  10
301.43634
  20
102.19424
  0
VERTEX
  5
a0
  8
Layer_0
  10
301.87088
  20
102.21619
  0
VERTEX
  5
a1
  8
Layer_0
  10
302.30542
  20
102.19424
  0
VERTEX
  5
a2
  8
Layer_0
  10
302.72742
  20
102.12984
  0
VERTEX
  5
a3
  8
Layer_0
  10
303.1347
  20
102.02512
  0
VERTEX
  5
a4
  8
Layer_0
  10
303.52518
  20
101.8822
  0
VERTEX
  5
a5
  8
Layer_0
  10
303.89667
  20
101.70324
  0
VERTEX
  5
a6
  8
Layer_0
  10
304.2471
  20
101.49036
  0
VERTEX
  5
a7
  8
Layer_0
  10
304.57431
  20
101.2457
  0
VERTEX
  5
a8
  8
Layer_0
  10
304.8761
  20
100.97139
  0
VERTEX
  5
a9
  8
Layer_0
  10
305.15039
  20
100.66957
  0
VERTEX
  5
aa
  8
Layer_0
  10
305.39508
  20
100.3424
  0
VERTEX
  5
ab
  8
Layer_0
  10
305.60794
  20
99.991989
  0
VERTEX
  5
ac
  8
Layer_0
  10
305.7869
  20
99.620476
  0
VERTEX
  5
ad
  8
Layer_0
  10
305.92981
  20
99.230003
  0
VERTEX
  5
ae
  8
Layer_0
  10
306.03452
  20
98.822708
  0
VERTEX
  5
af
  8
Layer_0
  10
306.09894
  20
98.400726
  0
VERTEX
  5
b0
  8
Layer_0
  10
306.12088
  20
97.966187
  0
VERTEX
  5
b1
  8
Layer_0
  10
306.09894
  20
97.531647
  0
VERTEX
  5
b2
  8
Layer_0
  10
306.03452
  20
97.109665
  0
VERTEX
  5
b3
  8
Layer_0
  10
305.92981
  20
96.70237
  0
VERTEX
  5
b4
  8
Layer_0
  10
305.7869
  20
96.311897
  0
VERTEX
  5
b5
  8
Layer_0
  10
305.60794
  20
95.940384
  0
VERTEX
  5
b6
  8
Layer_0
  10
305.39508
  20
95.589973
  0
VERTEX
  5
b7
  8
Layer_0
  10
305.15039
  20
95.262802
  0
VERTEX
  5
b8
  8
Layer_0
  10
304.8761
  20
94.960983
  0
VERTEX
  5
b9
  8
Layer_0
  10
304.57431
  20
94.686676
  0
VERTEX
  5
ba
  8
Layer_0
  10
304.2471
  20
94.442017
  0
VERTEX
  5
bb
  8
Layer_0
  10
303.89667
  20
94.229134
  0
VERTEX
  5
bc
  8
Layer_0
  10
303.52518
  20
94.050171
  0
VERTEX
  5
bd
  8
Layer_0
  10
303.1347
  20
93.907257
  0
VERTEX
  5
be
  8
Layer_0
  10
302.72742
  20
93.802536
  0
VERTEX
  5
bf
  8
Layer_0
  10
302.30542
  20
93.738129
  0
VERTEX
  5
c0
  8
Layer_0
  10
301.87088
  20
93.716187
  0
VERTEX
  5
c1
  8
Layer_0
  10
301.43634
  20
93.738129
  0
VERTEX
  5
c2
  8
Layer_0
  10
301.01434
  20
93.802536
  0
VERTEX
  5
c3
  8
Layer_0
  10
300.60706
  20
93.907257
  0
VERTEX
  5
c4
  8
Layer_0
  10
300.21658
  20
94.050171
  0
VERTEX
  5
c5
  8
Layer_0
  10
299.84509
  20
94.229134
  0
VERTEX
  5
c6
  8
Layer_0
  10
299.49466
  20
94.442017
  0
VERTEX
  5
c7
  8
Layer_0
  10
299.16745
  20
94.686676
  0
VERTEX
  5
c8
  8
Layer_0
  10
298.86566
  20
94.960983
  0
VERTEX
  5
c9
  8
Layer_0
  10
298.59137
  20
95.262802
  0
VERTEX
  5
ca
  8
Layer_0
  10
298.34668
  20
95.589973
  0
VERTEX
  5
cb
  8
Layer_0
  10
298.13382
  20
95.940384
  0
VERTEX
  5
cc
  8
Layer_0
  10
297.95486
  20
96.311897
  0
VERTEX
  5
cd
  8
Layer_0
  10
297.81195
  20
96.70237
  0
VERTEX
  5
ce
  8
Layer_0
  10
297.70724
  20
97.109665
  0
VERTEX
  5
cf
  8
Layer_0
  10
297.64282
  20
97.531647
  0
VERTEX
  5
d0
  8
Layer_0
  10
297.62088
  20
97.966187
  0
SEQEND
  0
POLYLINE
  5
d2
  8
Layer_0
  62
0
  70
1
  66
1
  10
0
  20
0
  30
0
  0
VERTEX
  5
d2
  8
Layer_0
  10
281.12088
  20
97.966187
  0
VERTEX
  5
d3
  8
Layer_0
  10
281.14282
  20
98.400726
  0
VERTEX
  5
d4
  8
Layer_0
  10
281.20724
  20
98.822708
  0
VERTEX
  5
d5
  8
Layer_0
  10
281.31195
  20
99.230003
  0
VERTEX
  5
d6
  8
Layer_0
  10
281.45486
  20
99.620476
  0
VERTEX
  5
d7
  8
Layer_0
  10
281.63382
  20
99.991989
  0
VERTEX
  5
d8
  8
Layer_0
  10
281.84668
  20
100.3424
  0
VERTEX
  5
d9
  8
Layer_0
  10
282.09137
  20
100.66957
  0
VERTEX
  5
da
  8
Layer_0
  10
282.36566
  20
100.97139
  0
VERTEX
  5
db
  8
Layer_0
  10
282.66745
  20
101.2457
  0
VERTEX
  5
dc
  8
Layer_0
  10
282.99466
  20
101.49036
  0
VERTEX
  5
dd
  8
Layer_0
  10
283.34509
  20
101.70324
  0
VERTEX
  5
de
  8
Layer_0
  10
283.71658
  20
101.8822
  0
VERTEX
  5
df
  8
Layer_0
  10
284.10706
  20
102.02512
  0
VERTEX
  5
e0
  8
Layer_0
  10
284.51434
  20
102.12984
  0
VERTEX
  5
e1
  8
Layer_0
  10
284.93634
  20
102.19424
  0
VERTEX
  5
e2
  8
Layer_0
  10
285.37088
  20
102.21619
  0
VERTEX
  5
e3
  8
Layer_0
  10
285.80542
  20
102.19424
  0
VERTEX
  5
e4
  8
Layer_0
  10
286.22742
  20
102.12984
  0
VERTEX
  5
e5
  8
Layer_0
  10
286.6347
  20
102.02512
  0
VERTEX
  5
e6
  8
Layer_0
  10
287.02518
  20
101.8822
  0
VERTEX
  5
e7
  8
Layer_0
  10
287.39667
  20
101.70324
  0
VERTEX
  5
e8
  8
Layer_0
  10
287.7471
  20
101.49036
  0
VERTEX
  5
e9
  8
Layer_0
  10
288.07431
  20
101.2457
  0
VERTEX
  5
ea
  8
Layer_0
  10
288.3761
  20
100.97139
  0
VERTEX
  5
eb
  8
Layer_0
  10
288.65039
  20
100.66957
  0
VERTEX
  5
ec
  8
Layer_0
  10
288.89508
  20
100.3424
  0
VERTEX
  5
ed
  8
Layer_0
  10
289.10794
  20
99.991989
  0
VERTEX
  5
ee
  8
Layer_0
  10
289.2869
  20
99.620476
  0
VERTEX
  5
ef
  8
Layer_0
  10
289.42981
  20
99.230003
  0
VERTEX
  5
f0
  8
Layer_0
  10
289.53452
  20
98.822708
  0
VERTEX
  5
f1
  8
Layer_0
  10
289.59894
  20
98.400726
  0
VERTEX
  5
f2
  8
Layer_0
  10
289.62088
  20
97.966187
  0
VERTEX
  5
f3
  8
Layer_0
  10
289.59894
  20
97.531647
  0
VERTEX
  5
f4
  8
Layer_0
  10
289.53452
  20
97.109665
  0
VERTEX
  5
f5
  8
Layer_0
  10
289.42981
  20
96.70237
  0
VERTEX
  5
f6
  8
Layer_0
  10
289.2869
  20
96.311897
  0
VERTEX
  5
f7
  8
Layer_0
  10
289.10794
  20
95.940384
  0
VERTEX
  5
f8
  8
Layer_0
  10
288.89508
  20
95.589973
  0
VERTEX
  5
f9
  8
Layer_0
  10
288.65039
  20
95.262802
  0
VERTEX
  5
fa
  8
Layer_0
  10
288.3761
  20
94.960983
  0
VERTEX
  5
fb
  8
Layer_0
  10
288.07431
  20
94.686676
  0
VERTEX
  5
fc
  8
Layer_0
  10
287.7471
  20
94.442017
  0
VERTEX
  5
fd
  8
Layer_0
  10
287.39667
  20
94.229134
  0
VERTEX
  5
fe
  8
Layer_0
  10
287.02518
  20
94.050171
  0
VERTEX
  5
ff
  8
Layer_0
  10
286.6347
  20
93.907257
  0
VERTEX
  5
100
  8
Layer_0
  10
286.22742
  20
93.802536
  0
VERTEX
  5
101
  8
Layer_0
  10
285.80542
  20
93.738129
  0
VERTEX
  5
102
  8
Layer_0
  10
285.37088
  20
93.716187
  0
VERTEX
  5
103
  8
Layer_0
  10
284.93634
  20
93.738129
  0
VERTEX
  5
104
  8
Layer_0
  10
284.51434
  20
93.802536
  0
VERTEX
  5
105
  8
Layer_0
  10
284.10706
  20
93.907257
  0
VERTEX
  5
106
  8
Layer_0
  10
283.71658
  20
94.050171
  0
VERTEX
  5
107
  8
Layer_0
  10
283.34509
  20
94.229134
  0
VERTEX
  5
108
  8
Layer_0
  10
282.99466
  20
94.442017
  0
VERTEX
  5
109
  8
Layer_0
  10
282.66745
  20
94.686676
  0
VERTEX
  5
10a
  8
Layer_0
  10
282.36566
  20
94.960983
  0
VERTEX
  5
10b
  8
Layer_0
  10
282.09137
  20
95.262802
  0
VERTEX
  5
10c
  8
Layer_0
  10
281.84668
  20
95.589973
  0
VERTEX
  5
10d
  8
Layer_0
  10
281.63382
  20
95.940384
  0
VERTEX
  5
10e
  8
Layer_0
  10
281.45486
  20
96.311897
  0
VERTEX
  5
10f
  8
Layer_0
  10
281.31195
  20
96.70237
  0
VERTEX
  5
110
  8
Layer_0
  10
281.20724
  20
97.109665
  0
VERTEX
  5
111
  8
Layer_0
  10
281.14282
  20
97.531647
  0
VERTEX
  5
112
  8
Layer_0
  10
281.12088
  20
97.966187
  0
SEQEND
  0
POLYLINE
  5
114
  8
Layer_0
  62
0
  70
1
  66
1
  10
0
  20
0
  30
0
  0
VERTEX
  5
114
  8
Layer_0
  10
351.11987
  20
129.46619
  0
VERTEX
  5
115
  8
Layer_0
  10
361.36987
  20
129.46619
  0
VERTEX
  5
116
  8
Layer_0
  10
361.36987
  20
115.21619
  0
VERTEX
  5
117
  8
Layer_0
  10
357.36987
  20
115.21619
  0
VERTEX
  5
118
  8
Layer_0
  10
357.36987
  20
100.71619
  0
VERTEX
  5
119
  8
Layer_0
  10
361.36987
  20
100.71619
  0
VERTEX
  5
11a
  8
Layer_0
  10
361.36987
  20
86.466187
  0
VERTEX
  5
11b
  8
Layer_0
  10
351.11987
  20
86.466187
  0
VERTEX
  5
11c
  8
Layer_0
  10
351.11987
  20
90.466187
  0
VERTEX
  5
11d
  8
Layer_0
  10
336.61987
  20
90.466187
  0
VERTEX
  5
11e
  8
Layer_0
  10
336.61987
  20
86.466187
  0
VERTEX
  5
11f
  8
Layer_0
  10
322.11987
  20
86.466187
  0
VERTEX
  5
120
  8
Layer_0
  10
322.11987
  20
90.466187
  0
VERTEX
  5
121
  8
Layer_0
  10
307.61987
  20
90.466187
  0
VERTEX
  5
122
  8
Layer_0
  10
307.61987
  20
86.466187
  0
VERTEX
  5
123
  8
Layer_0
  10
293.11987
  20
86.466187
  0
VERTEX
  5
124
  8
Layer_0
  10
293.11987
  20
90.466187
  0
VERTEX
  5
125
  8
Layer_0
  10
278.61987
  20
90.466187
  0
VERTEX
  5
126
  8
Layer_0
  10
278.61987
  20
86.466187
  0
VERTEX
  5
127
  8
Layer_0
  10
268.36987
  20
86.466187
  0
VERTEX
  5
128
  8
Layer_0
  10
268.36987
  20
100.71619
  0
VERTEX
  5
129
  8
Layer_0
  10
272.36987
  20
100.71619
  0
VERTEX
  5
12a
  8
Layer_0
  10
272.36987
  20
115.21619
  0
VERTEX
  5
12b
  8
Layer_0
  10
268.36987
  20
115.21619
  0
VERTEX
  5
12c
  8
Layer_0
  10
268.36987
  20
129.46619
  0
VERTEX
  5
12d
  8
Layer_0
  10
278.61987
  20
129.46619
  0
VERTEX
  5
12e
  8
Layer_0
  10
278.61987
  20
125.46619
  0
VERTEX
  5
12f
  8
Layer_0
  10
293.11987
  20
125.46619
  0
VERTEX
  5
130
  8
Layer_0
  10
293.11987
  20
129.46619
  0
VERTEX
  5
131
  8
Layer_0
  10
307.61987
  20
129.46619
  0
VERTEX
  5
132
  8
Layer_0
  10
307.61987
  20
125.46619
  0
VERTEX
  5
133
  8
Layer_0
  10
322.11987
  20
125.46619
  0
VERTEX
  5
134
  8
Layer_0
  10
322.11987
  20
129.46619
  0
VERTEX
  5
135
  8
Layer_0
  10
336.61987
  20
129.46619
  0
VERTEX
  5
136
  8
Layer_0
  10
336.61987
  20
125.46619
  0
VERTEX
  5
137
  8
Layer_0
  10
351.11987
  20
125.46619
  0
VERTEX
  5
138
  8
Layer_0
  10
351.11987
  20
129.46619
  0
SEQEND
  0
POLYLINE
  5
13a
  8
Layer_0
  62
0
  70
1
  66
1
  10
0
  20
0
  30
0
  0
VERTEX
  5
13a
  8
Layer_0
  10
287.86987
  20
113.71619
  0
VERTEX
  5
13b
  8
Layer_0
  10
278.86987
  20
113.71619
  0
VERTEX
  5
13c
  8
Layer_0
  10
278.66837
  20
113.7365
  0
VERTEX
  5
13d
  8
Layer_0
  10
278.48065
  20
113.79477
  0
VERTEX
  5
13e
  8
Layer_0
  10
278.31079
  20
113.88697
  0
VERTEX
  5
13f
  8
Layer_0
  10
278.16278
  20
114.00908
  0
VERTEX
  5
140
  8
Layer_0
  10
278.04071
  20
114.15708
  0
VERTEX
  5
141
  8
Layer_0
  10
277.94849
  20
114.32694
  0
VERTEX
  5
142
  8
Layer_0
  10
277.8902
  20
114.51465
  0
VERTEX
  5
143
  8
Layer_0
  10
277.86987
  20
114.71619
  0
VERTEX
  5
144
  8
Layer_0
  10
277.86987
  20
118.71619
  0
VERTEX
  5
145
  8
Layer_0
  10
277.8902
  20
118.91772
  0
VERTEX
  5
146
  8
Layer_0
  10
277.94849
  20
119.10543
  0
VERTEX
  5
147
  8
Layer_0
  10
278.04071
  20
119.27529
  0
VERTEX
  5
148
  8
Layer_0
  10
278.16278
  20
119.42329
  0
VERTEX
  5
149
  8
Layer_0
  10
278.31079
  20
119.5454
  0
VERTEX
  5
14a
  8
Layer_0
  10
278.48065
  20
119.6376
  0
VERTEX
  5
14b
  8
Layer_0
  10
278.66837
  20
119.69587
  0
VERTEX
  5
14c
  8
Layer_0
  10
278.86987
  20
119.71619
  0
VERTEX
  5
14d
  8
Layer_0
  10
287.86987
  20
119.71619
  0
VERTEX
  5
14e
  8
Layer_0
  10
288.07138
  20
119.69587
  0
VERTEX
  5
14f
  8
Layer_0
  10
288.25909
  20
119.6376
  0
VERTEX
  5
150
  8
Layer_0
  10
288.42896
  20
119.5454
  0
VERTEX
  5
151
  8
Layer_0
  10
288.57697
  20
119.42329
  0
VERTEX
  5
152
  8
Layer_0
  10
288.69904
  20
119.27529
  0
VERTEX
  5
153
  8
Layer_0
  10
288.79126
  20
119.10543
  0
VERTEX
  5
154
  8
Layer_0
  10
288.84955
  20
118.91772
  0
VERTEX
  5
155
  8
Layer_0
  10
288.86987
  20
118.71619
  0
VERTEX
  5
156
  8
Layer_0
  10
288.86987
  20
114.71619
  0
VERTEX
  5
157
  8
Layer_0
  10
288.84955
  20
114.51465
  0
VERTEX
  5
158
  8
Layer_0
  10
288.79126
  20
114.32694
  0
VERTEX
  5
159
  8
Layer_0
  10
288.69904
  20
114.15708
  0
VERTEX
  5
15a
  8
Layer_0
  10
288.57697
  20
114.00908
  0
VERTEX
  5
15b
  8
Layer_0
  10
288.42896
  20
113.88697
  0
VERTEX
  5
15c
  8
Layer_0
  10
288.25909
  20
113.79477
  0
VERTEX
  5
15d
  8
Layer_0
  10
288.07138
  20
113.7365
  0
VERTEX
  5
15e
  8
Layer_0
  10
287.86987
  20
113.71619
  0
SEQEND
  0
POLYLINE
  5
160
  8
Layer_0
  62
0
  70
1
  66
1
  10
0
  20
0
  30
0
  0
VERTEX
  5
160
  8
Layer_0
  10
300.86987
  20
113.71619
  0
VERTEX
  5
161
  8
Layer_0
  10
291.86987
  20
113.71619
  0
VERTEX
  5
162
  8
Layer_0
  10
291.66837
  20
113.7365
  0
VERTEX
  5
163
  8
Layer_0
  10
291.48065
  20
113.79477
  0
VERTEX
  5
164
  8
Layer_0
  10
291.31079
  20
113.88697
  0
VERTEX
  5
165
  8
Layer_0
  10
291.16278
  20
114.00908
  0
VERTEX
  5
166
  8
Layer_0
  10
291.04071
  20
114.15708
  0
VERTEX
  5
167
  8
Layer_0
  10
290.94849
  20
114.32694
  0
VERTEX
  5
168
  8
Layer_0
  10
290.8902
  20
114.51465
  0
VERTEX
  5
169
  8
Layer_0
  10
290.86987
  20
114.71619
  0
VERTEX
  5
16a
  8
Layer_0
  10
290.86987
  20
118.71619
  0
VERTEX
  5
16b
  8
Layer_0
  10
290.8902
  20
118.91772
  0
VERTEX
  5
16c
  8
Layer_0
  10
290.94849
  20
119.10543
  0
VERTEX
  5
16d
  8
Layer_0
  10
291.04071
  20
119.27529
  0
VERTEX
  5
16e
  8
Layer_0
  10
291.16278
  20
119.42329
  0
VERTEX
  5
16f
  8
Layer_0
  10
291.31079
  20
119.5454
  0
VERTEX
  5
170
  8
Layer_0
  10
291.48065
  20
119.6376
  0
VERTEX
  5
171
  8
Layer_0
  10
291.66837
  20
119.69587
  0
VERTEX
  5
172
  8
Layer_0
  10
291.86987
  20
119.71619
  0
VERTEX
  5
173
  8
Layer_0
  10
300.86987
  20
119.71619
  0
VERTEX
  5
174
  8
Layer_0
  10
301.07138
  20
119.69587
  0
VERTEX
  5
175
  8
Layer_0
  10
301.25909
  20
119.6376
  0
VERTEX
  5
176
  8
Layer_0
  10
301.42896
  20
119.5454
  0
VERTEX
  5
177
  8
Layer_0
  10
301.57697
  20
119.42329
  0
VERTEX
  5
178
  8
Layer_0
  10
301.69904
  20
119.27529
  0
VERTEX
  5
179
  8
Layer_0
  10
301.79126
  20
119.10543
  0
VERTEX
  5
17a
  8
Layer_0
  10
301.84955
  20
118.91772
  0
VERTEX
  5
17b
  8
Layer_0
  10
301.86987
  20
118.71619
  0
VERTEX
  5
17c
  8
Layer_0
  10
301.86987
  20
114.71619
  0
VERTEX
  5
17d
  8
Layer_0
  10
301.84955
  20
114.51465
  0
VERTEX
  5
17e
  8
Layer_0
  10
301.79126
  20
114.32694
  0
VERTEX
  5
17f
  8
Layer_0
  10
301.69904
  20
114.15708
  0
VERTEX
  5
180
  8
Layer_0
  10
301.57697
  20
114.00908
  0
VERTEX
  5
181
  8
Layer_0
  10
301.42896
  20
113.88697
  0
VERTEX
  5
182
  8
Layer_0
  10
301.25909
  20
113.79477
  0
VERTEX
  5
183
  8
Layer_0
  10
301.07138
  20
113.7365
  0
VERTEX
  5
184
  8
Layer_0
  10
300.86987
  20
113.71619
  0
SEQEND
  0
POLYLINE
  5
186
  8
Layer_0
  62
0
  70
1
  66
1
  10
0
  20
0
  30
0
  0
VERTEX
  5
186
  8
Layer_0
  10
332.46988
  20
112.46619
  0
VERTEX
  5
187
  8
Layer_0
  10
317.46988
  20
112.46619
  0
VERTEX
  5
188
  8
Layer_0
  10
317.26834
  20
112.4865
  0
VERTEX
  5
189
  8
Layer_0
  10
317.08063
  20
112.54477
  0
VERTEX
  5
18a
  8
Layer_0
  10
316.91077
  20
112.63697
  0
VERTEX
  5
18b
  8
Layer_0
  10
316.76276
  20
112.75908
  0
VERTEX
  5
18c
  8
Layer_0
  10
316.64069
  20
112.90708
  0
VERTEX
  5
18d
  8
Layer_0
  10
316.54846
  20
113.07694
  0
VERTEX
  5
18e
  8
Layer_0
  10
316.4902
  20
113.26465
  0
VERTEX
  5
18f
  8
Layer_0
  10
316.46988
  20
113.46619
  0
VERTEX
  5
190
  8
Layer_0
  10
316.46988
  20
119.46619
  0
VERTEX
  5
191
  8
Layer_0
  10
316.4902
  20
119.66772
  0
VERTEX
  5
192
  8
Layer_0
  10
316.54846
  20
119.85543
  0
VERTEX
  5
193
  8
Layer_0
  10
316.64069
  20
120.02529
  0
VERTEX
  5
194
  8
Layer_0
  10
316.76276
  20
120.17329
  0
VERTEX
  5
195
  8
Layer_0
  10
316.91077
  20
120.2954
  0
VERTEX
  5
196
  8
Layer_0
  10
317.08063
  20
120.3876
  0
VERTEX
  5
197
  8
Layer_0
  10
317.26834
  20
120.44587
  0
VERTEX
  5
198
  8
Layer_0
  10
317.46988
  20
120.46619
  0
VERTEX
  5
199
  8
Layer_0
  10
332.46988
  20
120.46619
  0
VERTEX
  5
19a
  8
Layer_0
  10
332.67142
  20
120.44587
  0
VERTEX
  5
19b
  8
Layer_0
  10
332.85913
  20
120.3876
  0
VERTEX
  5
19c
  8
Layer_0
  10
333.02899
  20
120.2954
  0
VERTEX
  5
19d
  8
Layer_0
  10
333.177
  20
120.17329
  0
VERTEX
  5
19e
  8
Layer_0
  10
333.29907
  20
120.02529
  0
VERTEX
  5
19f
  8
Layer_0
  10
333.3913
  20
119.85543
  0
VERTEX
  5
1a0
  8
Layer_0
  10
333.44955
  20
119.66772
  0
VERTEX
  5
1a1
  8
Layer_0
  10
333.46988
  20
119.46619
  0
VERTEX
  5
1a2
  8
Layer_0
  10
333.46988
  20
113.46619
  0
VERTEX
  5
1a3
  8
Layer_0
  10
333.44955
  20
113.26465
  0
VERTEX
  5
1a4
  8
Layer_0
  10
333.3913
  20
113.07694
  0
VERTEX
  5
1a5
  8
Layer_0
  10
333.29907
  20
112.90708
  0
VERTEX
  5
1a6
  8
Layer_0
  10
333.177
  20
112.75908
  0
VERTEX
  5
1a7
  8
Layer_0
  10
333.02899
  20
112.63697
  0
VERTEX
  5
1a8
  8
Layer_0
  10
332.85913
  20
112.54477
  0
VERTEX
  5
1a9
  8
Layer_0
  10
332.67142
  20
112.4865
  0
VERTEX
  5
1aa
  8
Layer_0
  10
332.46988
  20
112.46619
  0
SEQEND
  0
POLYLINE
  5
1ac
  8
Layer_0
  62
0
  70
1
  66
1
  10
0
  20
0
  30
0
  0
VERTEX
  5
1ac
  8
Layer_0
  10
341.89697
  20
117.17407
  0
VERTEX
  5
1ad
  8
Layer_0
  10
341.93271
  20
117.21429
  0
VERTEX
  5
1ae
  8
Layer_0
  10
341.96423
  20
117.25334
  0
VERTEX
  5
1af
  8
Layer_0
  10
341.99426
  20
117.29387
  0
VERTEX
  5
1b0
  8
Layer_0
  10
342.01807
  20
117.32973
  0
VERTEX
  5
1b1
  8
Layer_0
  10
342.03772
  20
117.3644
  0
VERTEX
  5
1b2
  8
Layer_0
  10
342.05386
  20
117.39706
  0
VERTEX
  5
1b3
  8
Layer_0
  10
342.06384
  20
117.42508
  0
VERTEX
  5
1b4
  8
Layer_0
  10
342.06689
  20
117.44916
  0
VERTEX
  5
1b5
  8
Layer_0
  10
342.06525
  20
117.46706
  0
VERTEX
  5
1b6
  8
Layer_0
  10
342.05597
  20
117.4818
  0
VERTEX
  5
1b7
  8
Layer_0
  10
341.30469
  20
118.23308
  0
VERTEX
  5
1b8
  8
Layer_0
  10
341.29144
  20
118.24088
  0
VERTEX
  5
1b9
  8
Layer_0
  10
341.2728
  20
118.24326
  0
VERTEX
  5
1ba
  8
Layer_0
  10
341.24945
  20
118.23946
  0
VERTEX
  5
1bb
  8
Layer_0
  10
341.2207
  20
118.23024
  0
VERTEX
  5
1bc
  8
Layer_0
  10
341.19073
  20
118.21678
  0
VERTEX
  5
1bd
  8
Layer_0
  10
341.15607
  20
118.19716
  0
VERTEX
  5
1be
  8
Layer_0
  10
341.11945
  20
118.17409
  0
VERTEX
  5
1bf
  8
Layer_0
  10
341.08167
  20
118.14677
  0
VERTEX
  5
1c0
  8
Layer_0
  10
341.03992
  20
118.11253
  0
VERTEX
  5
1c1
  8
Layer_0
  10
341.00238
  20
118.07951
  0
VERTEX
  5
1c2
  8
Layer_0
  10
340.95819
  20
118.03685
  0
VERTEX
  5
1c3
  8
Layer_0
  10
317.55423
  20
94.632874
  0
VERTEX
  5
1c4
  8
Layer_0
  10
317.517
  20
94.594147
  0
VERTEX
  5
1c5
  8
Layer_0
  10
317.48126
  20
94.553894
  0
VERTEX
  5
1c6
  8
Layer_0
  10
317.44974
  20
94.514862
  0
VERTEX
  5
1c7
  8
Layer_0
  10
317.41971
  20
94.474319
  0
VERTEX
  5
1c8
  8
Layer_0
  10
317.39587
  20
94.438477
  0
VERTEX
  5
1c9
  8
Layer_0
  10
317.37628
  20
94.403824
  0
VERTEX
  5
1ca
  8
Layer_0
  10
317.36011
  20
94.37114
  0
VERTEX
  5
1cb
  8
Layer_0
  10
317.35013
  20
94.34314
  0
VERTEX
  5
1cc
  8
Layer_0
  10
317.34708
  20
94.319046
  0
VERTEX
  5
1cd
  8
Layer_0
  10
317.34869
  20
94.301132
  0
VERTEX
  5
1ce
  8
Layer_0
  10
317.358
  20
94.286407
  0
VERTEX
  5
1cf
  8
Layer_0
  10
318.10928
  20
93.535126
  0
VERTEX
  5
1d0
  8
Layer_0
  10
318.1225
  20
93.527328
  0
VERTEX
  5
1d1
  8
Layer_0
  10
318.14117
  20
93.524933
  0
VERTEX
  5
1d2
  8
Layer_0
  10
318.16452
  20
93.528748
  0
VERTEX
  5
1d3
  8
Layer_0
  10
318.19327
  20
93.537964
  0
VERTEX
  5
1d4
  8
Layer_0
  10
318.22324
  20
93.551422
  0
VERTEX
  5
1d5
  8
Layer_0
  10
318.25787
  20
93.57103
  0
VERTEX
  5
1d6
  8
Layer_0
  10
318.29449
  20
93.594131
  0
VERTEX
  5
1d7
  8
Layer_0
  10
318.33234
  20
93.621445
  0
VERTEX
  5
1d8
  8
Layer_0
  10
318.37405
  20
93.655655
  0
VERTEX
  5
1d9
  8
Layer_0
  10
318.41159
  20
93.68869
  0
VERTEX
  5
1da
  8
Layer_0
  10
318.45575
  20
93.731339
  0
VERTEX
  5
1db
  8
Layer_0
  10
341.85974
  20
117.13533
  0
VERTEX
  5
1dc
  8
Layer_0
  10
341.89697
  20
117.17407
  0
SEQEND
  0
POLYLINE
  5
1de
  8
Layer_0
  62
0
  70
1
  66
1
  10
0
  20
0
  30
0
  0
VERTEX
  5
1de
  8
Layer_0
  10
346.17697
  20
117.17407
  0
VERTEX
  5
1df
  8
Layer_0
  10
346.21271
  20
117.21429
  0
VERTEX
  5
1e0
  8
Layer_0
  10
346.2442
  20
117.25334
  0
VERTEX
  5
1e1
  8
Layer_0
  10
346.27423
  20
117.29387
  0
VERTEX
  5
1e2
  8
Layer_0
  10
346.2981
  20
117.32973
  0
VERTEX
  5
1e3
  8
Layer_0
  10
346.31769
  20
117.3644
  0
VERTEX
  5
1e4
  8
Layer_0
  10
346.33386
  20
117.39706
  0
VERTEX
  5
1e5
  8
Layer_0
  10
346.34384
  20
117.42508
  0
VERTEX
  5
1e6
  8
Layer_0
  10
346.34689
  20
117.44916
  0
VERTEX
  5
1e7
  8
Layer_0
  10
346.34528
  20
117.46706
  0
VERTEX
  5
1e8
  8
Layer_0
  10
346.33594
  20
117.4818
  0
VERTEX
  5
1e9
  8
Layer_0
  10
345.58466
  20
118.23308
  0
VERTEX
  5
1ea
  8
Layer_0
  10
345.57144
  20
118.24088
  0
VERTEX
  5
1eb
  8
Layer_0
  10
345.5528
  20
118.24326
  0
VERTEX
  5
1ec
  8
Layer_0
  10
345.52948
  20
118.23946
  0
VERTEX
  5
1ed
  8
Layer_0
  10
345.50067
  20
118.23024
  0
VERTEX
  5
1ee
  8
Layer_0
  10
345.4707
  20
118.21678
  0
VERTEX
  5
1ef
  8
Layer_0
  10
345.4361
  20
118.19716
  0
VERTEX
  5
1f0
  8
Layer_0
  10
345.39948
  20
118.17409
  0
VERTEX
  5
1f1
  8
Layer_0
  10
345.36163
  20
118.14677
  0
VERTEX
  5
1f2
  8
Layer_0
  10
345.31989
  20
118.11253
  0
VERTEX
  5
1f3
  8
Layer_0
  10
345.28235
  20
118.07951
  0
VERTEX
  5
1f4
  8
Layer_0
  10
345.23822
  20
118.03685
  0
VERTEX
  5
1f5
  8
Layer_0
  10
321.83423
  20
94.632874
  0
VERTEX
  5
1f6
  8
Layer_0
  10
321.797
  20
94.594147
  0
VERTEX
  5
1f7
  8
Layer_0
  10
321.76126
  20
94.553894
  0
VERTEX
  5
1f8
  8
Layer_0
  10
321.72974
  20
94.514862
  0
VERTEX
  5
1f9
  8
Layer_0
  10
321.69971
  20
94.474319
  0
VERTEX
  5
1fa
  8
Layer_0
  10
321.67587
  20
94.438477
  0
VERTEX
  5
1fb
  8
Layer_0
  10
321.65625
  20
94.403824
  0
VERTEX
  5
1fc
  8
Layer_0
  10
321.64011
  20
94.37114
  0
VERTEX
  5
1fd
  8
Layer_0
  10
321.63013
  20
94.34314
  0
VERTEX
  5
1fe
  8
Layer_0
  10
321.62708
  20
94.319046
  0
VERTEX
  5
1ff
  8
Layer_0
  10
321.62869
  20
94.301132
  0
VERTEX
  5
200
  8
Layer_0
  10
321.638
  20
94.286407
  0
VERTEX
  5
201
  8
Layer_0
  10
322.38928
  20
93.535126
  0
VERTEX
  5
202
  8
Layer_0
  10
322.40253
  20
93.527328
  0
VERTEX
  5
203
  8
Layer_0
  10
322.42117
  20
93.524933
  0
VERTEX
  5
204
  8
Layer_0
  10
322.44452
  20
93.528748
  0
VERTEX
  5
205
  8
Layer_0
  10
322.47327
  20
93.537964
  0
VERTEX
  5
206
  8
Layer_0
  10
322.50323
  20
93.551422
  0
VERTEX
  5
207
  8
Layer_0
  10
322.53787
  20
93.57103
  0
VERTEX
  5
208
  8
Layer_0
  10
322.57452
  20
93.594131
  0
VERTEX
  5
209
  8
Layer_0
  10
322.61234
  20
93.621445
  0
VERTEX
  5
20a
  8
Layer_0
  10
322.65405
  20
93.655655
  0
VERTEX
  5
20b
  8
Layer_0
  10
322.69159
  20
93.68869
  0
VERTEX
  5
20c
  8
Layer_0
  10
322.73575
  20
93.731339
  0
VERTEX
  5
20d
  8
Layer_0
  10
346.13971
  20
117.13533
  0
VERTEX
  5
20e
  8
Layer_0
  10
346.17697
  20
117.17407
  0
SEQEND
  0
POLYLINE
  5
210
  8
Layer_0
  62
0
  70
1
  66
1
  10
0
  20
0
  30
0
  0
VERTEX
  5
210
  8
Layer_0
  10
350.45795
  20
117.17407
  0
VERTEX
  5
211
  8
Layer_0
  10
350.49371
  20
117.21429
  0
VERTEX
  5
212
  8
Layer_0
  10
350.52521
  20
117.25334
  0
VERTEX
  5
213
  8
Layer_0
  10
350.55524
  20
117.29387
  0
VERTEX
  5
214
  8
Layer_0
  10
350.57907
  20
117.32973
  0
VERTEX
  5
215
  8
Layer_0
  10
350.59869
  20
117.3644
  0
VERTEX
  5
216
  8
Layer_0
  10
350.61487
  20
117.39706
  0
VERTEX
  5
217
  8
Layer_0
  10
350.62482
  20
117.42508
  0
VERTEX
  5
218
  8
Layer_0
  10
350.62787
  20
117.44916
  0
VERTEX
  5
219
  8
Layer_0
  10
350.62625
  20
117.46706
  0
VERTEX
  5
21a
  8
Layer_0
  10
350.61694
  20
117.4818
  0
VERTEX
  5
21b
  8
Layer_0
  10
349.86566
  20
118.23308
  0
VERTEX
  5
21c
  8
Layer_0
  10
349.85242
  20
118.24088
  0
VERTEX
  5
21d
  8
Layer_0
  10
349.8338
  20
118.24326
  0
VERTEX
  5
21e
  8
Layer_0
  10
349.81046
  20
118.23946
  0
VERTEX
  5
21f
  8
Layer_0
  10
349.78168
  20
118.23024
  0
VERTEX
  5
220
  8
Layer_0
  10
349.75171
  20
118.21678
  0
VERTEX
  5
221
  8
Layer_0
  10
349.71707
  20
118.19716
  0
VERTEX
  5
222
  8
Layer_0
  10
349.68045
  20
118.17409
  0
VERTEX
  5
223
  8
Layer_0
  10
349.64264
  20
118.14677
  0
VERTEX
  5
224
  8
Layer_0
  10
349.60089
  20
118.11253
  0
VERTEX
  5
225
  8
Layer_0
  10
349.56335
  20
118.07951
  0
VERTEX
  5
226
  8
Layer_0
  10
349.5192
  20
118.03685
  0
VERTEX
  5
227
  8
Layer_0
  10
326.11523
  20
94.632874
  0
VERTEX
  5
228
  8
Layer_0
  10
326.078
  20
94.594147
  0
VERTEX
  5
229
  8
Layer_0
  10
326.04224
  20
94.553894
  0
VERTEX
  5
22a
  8
Layer_0
  10
326.01074
  20
94.514862
  0
VERTEX
  5
22b
  8
Layer_0
  10
325.98071
  20
94.474319
  0
VERTEX
  5
22c
  8
Layer_0
  10
325.95688
  20
94.438477
  0
VERTEX
  5
22d
  8
Layer_0
  10
325.93726
  20
94.403824
  0
VERTEX
  5
22e
  8
Layer_0
  10
325.92108
  20
94.37114
  0
VERTEX
  5
22f
  8
Layer_0
  10
325.91113
  20
94.34314
  0
VERTEX
  5
230
  8
Layer_0
  10
325.90805
  20
94.319046
  0
VERTEX
  5
231
  8
Layer_0
  10
325.9097
  20
94.301132
  0
VERTEX
  5
232
  8
Layer_0
  10
325.91901
  20
94.286407
  0
VERTEX
  5
233
  8
Layer_0
  10
326.67029
  20
93.535126
  0
VERTEX
  5
234
  8
Layer_0
  10
326.6835
  20
93.527328
  0
VERTEX
  5
235
  8
Layer_0
  10
326.70215
  20
93.524933
  0
VERTEX
  5
236
  8
Layer_0
  10
326.72549
  20
93.528748
  0
VERTEX
  5
237
  8
Layer_0
  10
326.75427
  20
93.537964
  0
VERTEX
  5
238
  8
Layer_0
  10
326.78424
  20
93.551422
  0
VERTEX
  5
239
  8
Layer_0
  10
326.81888
  20
93.57103
  0
VERTEX
  5
23a
  8
Layer_0
  10
326.8555
  20
93.594131
  0
VERTEX
  5
23b
  8
Layer_0
  10
326.89331
  20
93.621445
  0
VERTEX
  5
23c
  8
Layer_0
  10
326.93506
  20
93.655655
  0
VERTEX
  5
23d
  8
Layer_0
  10
326.9726
  20
93.68869
  0
VERTEX
  5
23e
  8
Layer_0
  10
327.01675
  20
93.731339
  0
VERTEX
  5
23f
  8
Layer_0
  10
350.42072
  20
117.13533
  0
VERTEX
  5
240
  8
Layer_0
  10
350.45795
  20
117.17407
  0
SEQEND
  0
POLYLINE
  5
242
  8
Layer_0
  62
0
  70
1
  66
1
  10
0
  20
0
  30
0
  0
VERTEX
  5
242
  8
Layer_0
  10
354.73798
  20
117.17407
  0
VERTEX
  5
243
  8
Layer_0
  10
354.77371
  20
117.21429
  0
VERTEX
  5
244
  8
Layer_0
  10
354.80524
  20
117.25334
  0
VERTEX
  5
245
  8
Layer_0
  10
354.83527
  20
117.29387
  0
VERTEX
  5
246
  8
Layer_0
  10
354.85907
  20
117.32973
  0
VERTEX
  5
247
  8
Layer_0
  10
354.87872
  20
117.3644
  0
VERTEX
  5
248
  8
Layer_0
  10
354.89487
  20
117.39706
  0
VERTEX
  5
249
  8
Layer_0
  10
354.90485
  20
117.42508
  0
VERTEX
  5
24a
  8
Layer_0
  10
354.9079
  20
117.44916
  0
VERTEX
  5
24b
  8
Layer_0
  10
354.90625
  20
117.46706
  0
VERTEX
  5
24c
  8
Layer_0
  10
354.89697
  20
117.4818
  0
VERTEX
  5
24d
  8
Layer_0
  10
354.14569
  20
118.23308
  0
VERTEX
  5
24e
  8
Layer_0
  10
354.13245
  20
118.24088
  0
VERTEX
  5
24f
  8
Layer_0
  10
354.1138
  20
118.24326
  0
VERTEX
  5
250
  8
Layer_0
  10
354.09045
  20
118.23946
  0
VERTEX
  5
251
  8
Layer_0
  10
354.06171
  20
118.23024
  0
VERTEX
  5
252
  8
Layer_0
  10
354.03174
  20
118.21678
  0
VERTEX
  5
253
  8
Layer_0
  10
353.99707
  20
118.19716
  0
VERTEX
  5
254
  8
Layer_0
  10
353.96045
  20
118.17409
  0
VERTEX
  5
255
  8
Layer_0
  10
353.92267
  20
118.14677
  0
VERTEX
  5
256
  8
Layer_0
  10
353.88092
  20
118.11253
  0
VERTEX
  5
257
  8
Layer_0
  10
353.84338
  20
118.07951
  0
VERTEX
  5
258
  8
Layer_0
  10
353.79919
  20
118.03685
  0
VERTEX
  5
259
  8
Layer_0
  10
330.39523
  20
94.632874
  0
VERTEX
  5
25a
  8
Layer_0
  10
330.358
  20
94.594147
  0
VERTEX
  5
25b
  8
Layer_0
  10
330.32227
  20
94.553894
  0
VERTEX
  5
25c
  8
Layer_0
  10
330.29074
  20
94.514862
  0
VERTEX
  5
25d
  8
Layer_0
  10
330.26071
  20
94.474319
  0
VERTEX
  5
25e
  8
Layer_0
  10
330.23688
  20
94.438477
  0
VERTEX
  5
25f
  8
Layer_0
  10
330.21729
  20
94.403824
  0
VERTEX
  5
260
  8
Layer_0
  10
330.20111
  20
94.37114
  0
VERTEX
  5
261
  8
Layer_0
  10
330.19113
  20
94.34314
  0
VERTEX
  5
262
  8
Layer_0
  10
330.18808
  20
94.319046
  0
VERTEX
  5
263
  8
Layer_0
  10
330.1897
  20
94.301132
  0
VERTEX
  5
264
  8
Layer_0
  10
330.19901
  20
94.286407
  0
VERTEX
  5
265
  8
Layer_0
  10
330.95029
  20
93.535126
  0
VERTEX
  5
266
  8
Layer_0
  10
330.9635
  20
93.527328
  0
VERTEX
  5
267
  8
Layer_0
  10
330.98218
  20
93.524933
  0
VERTEX
  5
268
  8
Layer_0
  10
331.00552
  20
93.528748
  0
VERTEX
  5
269
  8
Layer_0
  10
331.03427
  20
93.537964
  0
VERTEX
  5
26a
  8
Layer_0
  10
331.06424
  20
93.551422
  0
VERTEX
  5
26b
  8
Layer_0
  10
331.09888
  20
93.57103
  0
VERTEX
  5
26c
  8
Layer_0
  10
331.1355
  20
93.594131
  0
VERTEX
  5
26d
  8
Layer_0
  10
331.17334
  20
93.621445
  0
VERTEX
  5
26e
  8
Layer_0
  10
331.21506
  20
93.655655
  0
VERTEX
  5
26f
  8
Layer_0
  10
331.25259
  20
93.68869
  0
VERTEX
  5
270
  8
Layer_0
  10
331.29675
  20
93.731339
  0
VERTEX
  5
271
  8
Layer_0
  10
354.70074
  20
117.13533
  0
VERTEX
  5
272
  8
Layer_0
  10
354.73798
  20
117.17407
  0
SEQEND
  0
POLYLINE
  5
274
  8
Layer_0
  62
0
  70
1
  66
1
  10
0
  20
0
  30
0
  0
VERTEX
  5
274
  8
Layer_0
  10
354.89435
  20
113.04446
  0
VERTEX
  5
275
  8
Layer_0
  10
354.92346
  20
113.07808
  0
VERTEX
  5
276
  8
Layer_0
  10
354.94885
  20
113.11098
  0
VERTEX
  5
277
  8
Layer_0
  10
354.97272
  20
113.14536
  0
VERTEX
  5
278
  8
Layer_0
  10
354.99133
  20
113.17601
  0
VERTEX
  5
279
  8
Layer_0
  10
355.00626
  20
113.20593
  0
VERTEX
  5
27a
  8
Layer_0
  10
355.01813
  20
113.23436
  0
VERTEX
  5
27b
  8
Layer_0
  10
355.02481
  20
113.25906
  0
VERTEX
  5
27c
  8
Layer_0
  10
355.02551
  20
113.28078
  0
VERTEX
  5
27d
  8
Layer_0
  10
355.02246
  20
113.29727
  0
VERTEX
  5
27e
  8
Layer_0
  10
355.01266
  20
113.31152
  0
VERTEX
  5
27f
  8
Layer_0
  10
354.26138
  20
114.06281
  0
VERTEX
  5
280
  8
Layer_0
  10
354.24866
  20
114.07109
  0
VERTEX
  5
281
  8
Layer_0
  10
354.23138
  20
114.07487
  0
VERTEX
  5
282
  8
Layer_0
  10
354.21042
  20
114.07344
  0
VERTEX
  5
283
  8
Layer_0
  10
354.18497
  20
114.06754
  0
VERTEX
  5
284
  8
Layer_0
  10
354.15878
  20
114.05786
  0
VERTEX
  5
285
  8
Layer_0
  10
354.12888
  20
114.04297
  0
VERTEX
  5
286
  8
Layer_0
  10
354.09747
  20
114.02509
  0
VERTEX
  5
287
  8
Layer_0
  10
354.06531
  20
114.00345
  0
VERTEX
  5
288
  8
Layer_0
  10
354.03018
  20
113.97585
  0
VERTEX
  5
289
  8
Layer_0
  10
353.99881
  20
113.94897
  0
VERTEX
  5
28a
  8
Layer_0
  10
353.96222
  20
113.91386
  0
VERTEX
  5
28b
  8
Layer_0
  10
334.63647
  20
94.58815
  0
VERTEX
  5
28c
  8
Layer_0
  10
334.60587
  20
94.55603
  0
VERTEX
  5
28d
  8
Layer_0
  10
334.57675
  20
94.5224
  0
VERTEX
  5
28e
  8
Layer_0
  10
334.55139
  20
94.489517
  0
VERTEX
  5
28f
  8
Layer_0
  10
334.5275
  20
94.455124
  0
VERTEX
  5
290
  8
Layer_0
  10
334.50888
  20
94.424484
  0
VERTEX
  5
291
  8
Layer_0
  10
334.49396
  20
94.394547
  0
VERTEX
  5
292
  8
Layer_0
  10
334.48206
  20
94.366119
  0
VERTEX
  5
293
  8
Layer_0
  10
334.4754
  20
94.341415
  0
VERTEX
  5
294
  8
Layer_0
  10
334.47473
  20
94.319702
  0
VERTEX
  5
295
  8
Layer_0
  10
334.47775
  20
94.303223
  0
VERTEX
  5
296
  8
Layer_0
  10
334.48755
  20
94.288956
  0
VERTEX
  5
297
  8
Layer_0
  10
335.23883
  20
93.537689
  0
VERTEX
  5
298
  8
Layer_0
  10
335.25159
  20
93.529404
  0
VERTEX
  5
299
  8
Layer_0
  10
335.2688
  20
93.525604
  0
VERTEX
  5
29a
  8
Layer_0
  10
335.28979
  20
93.527039
  0
VERTEX
  5
29b
  8
Layer_0
  10
335.31525
  20
93.532959
  0
VERTEX
  5
29c
  8
Layer_0
  10
335.34143
  20
93.542618
  0
VERTEX
  5
29d
  8
Layer_0
  10
335.37134
  20
93.55751
  0
VERTEX
  5
29e
  8
Layer_0
  10
335.40277
  20
93.575394
  0
VERTEX
  5
29f
  8
Layer_0
  10
335.43491
  20
93.597031
  0
VERTEX
  5
2a0
  8
Layer_0
  10
335.47003
  20
93.624634
  0
VERTEX
  5
2a1
  8
Layer_0
  10
335.5014
  20
93.65152
  0
VERTEX
  5
2a2
  8
Layer_0
  10
335.53802
  20
93.686615
  0
VERTEX
  5
2a3
  8
Layer_0
  10
354.86374
  20
113.01233
  0
VERTEX
  5
2a4
  8
Layer_0
  10
354.89435
  20
113.04446
  0
SEQEND
  0
POLYLINE
  5
2a6
  8
Layer_0
  62
0
  70
1
  66
1
  10
0
  20
0
  30
0
  0
VERTEX
  5
2a6
  8
Layer_0
  10
353.93091
  20
107.80501
  0
VERTEX
  5
2a7
  8
Layer_0
  10
353.95163
  20
107.83024
  0
VERTEX
  5
2a8
  8
Layer_0
  10
353.96921
  20
107.85532
  0
VERTEX
  5
2a9
  8
Layer_0
  10
353.98529
  20
107.88191
  0
VERTEX
  5
2aa
  8
Layer_0
  10
353.99731
  20
107.90596
  0
VERTEX
  5
2ab
  8
Layer_0
  10
354.00623
  20
107.92989
  0
VERTEX
  5
2ac
  8
Layer_0
  10
354.0127
  20
107.95291
  0
VERTEX
  5
2ad
  8
Layer_0
  10
354.0152
  20
107.97342
  0
VERTEX
  5
2ae
  8
Layer_0
  10
354.01288
  20
107.99214
  0
VERTEX
  5
2af
  8
Layer_0
  10
354.00803
  20
108.00682
  0
VERTEX
  5
2b0
  8
Layer_0
  10
353.99765
  20
108.02048
  0
VERTEX
  5
2b1
  8
Layer_0
  10
353.24637
  20
108.77176
  0
VERTEX
  5
2b2
  8
Layer_0
  10
353.23419
  20
108.78064
  0
VERTEX
  5
2b3
  8
Layer_0
  10
353.21875
  20
108.78624
  0
VERTEX
  5
2b4
  8
Layer_0
  10
353.20081
  20
108.7878
  0
VERTEX
  5
2b5
  8
Layer_0
  10
353.17953
  20
108.78608
  0
VERTEX
  5
2b6
  8
Layer_0
  10
353.15814
  20
108.78122
  0
VERTEX
  5
2b7
  8
Layer_0
  10
353.13425
  20
108.77233
  0
VERTEX
  5
2b8
  8
Layer_0
  10
353.10944
  20
108.76104
  0
VERTEX
  5
2b9
  8
Layer_0
  10
353.08447
  20
108.7466
  0
VERTEX
  5
2ba
  8
Layer_0
  10
353.05774
  20
108.7274
  0
VERTEX
  5
2bb
  8
Layer_0
  10
353.03418
  20
108.70832
  0
VERTEX
  5
2bc
  8
Layer_0
  10
353.00717
  20
108.68283
  0
VERTEX
  5
2bd
  8
Layer_0
  10
338.85629
  20
94.531952
  0
VERTEX
  5
2be
  8
Layer_0
  10
338.83411
  20
94.50824
  0
VERTEX
  5
2bf
  8
Layer_0
  10
338.81335
  20
94.483017
  0
VERTEX
  5
2c0
  8
Layer_0
  10
338.79581
  20
94.457924
  0
VERTEX
  5
2c1
  8
Layer_0
  10
338.77972
  20
94.431343
  0
VERTEX
  5
2c2
  8
Layer_0
  10
338.7677
  20
94.407288
  0
VERTEX
  5
2c3
  8
Layer_0
  10
338.75879
  20
94.383362
  0
VERTEX
  5
2c4
  8
Layer_0
  10
338.75232
  20
94.360336
  0
VERTEX
  5
2c5
  8
Layer_0
  10
338.74982
  20
94.339828
  0
VERTEX
  5
2c6
  8
Layer_0
  10
338.75214
  20
94.321114
  0
VERTEX
  5
2c7
  8
Layer_0
  10
338.75699
  20
94.306427
  0
VERTEX
  5
2c8
  8
Layer_0
  10
338.76736
  20
94.29277
  0
VERTEX
  5
2c9
  8
Layer_0
  10
339.51865
  20
93.541489
  0
VERTEX
  5
2ca
  8
Layer_0
  10
339.53079
  20
93.532608
  0
VERTEX
  5
2cb
  8
Layer_0
  10
339.54623
  20
93.527016
  0
VERTEX
  5
2cc
  8
Layer_0
  10
339.56421
  20
93.525452
  0
VERTEX
  5
2cd
  8
Layer_0
  10
339.58548
  20
93.527176
  0
VERTEX
  5
2ce
  8
Layer_0
  10
339.60687
  20
93.532028
  0
VERTEX
  5
2cf
  8
Layer_0
  10
339.63077
  20
93.540924
  0
VERTEX
  5
2d0
  8
Layer_0
  10
339.65558
  20
93.552216
  0
VERTEX
  5
2d1
  8
Layer_0
  10
339.68054
  20
93.566643
  0
VERTEX
  5
2d2
  8
Layer_0
  10
339.70724
  20
93.585854
  0
VERTEX
  5
2d3
  8
Layer_0
  10
339.73083
  20
93.604927
  0
VERTEX
  5
2d4
  8
Layer_0
  10
339.75784
  20
93.630424
  0
VERTEX
  5
2d5
  8
Layer_0
  10
353.90869
  20
107.7813
  0
VERTEX
  5
2d6
  8
Layer_0
  10
353.93091
  20
107.80501
  0
SEQEND
  0
POLYLINE
  5
2d8
  8
Layer_0
  62
0
  70
1
  66
1
  10
0
  20
0
  30
0
  0
VERTEX
  5
2d8
  8
Layer_0
  10
353.62402
  20
103.22412
  0
VERTEX
  5
2d9
  8
Layer_0
  10
353.63736
  20
103.242
  0
VERTEX
  5
2da
  8
Layer_0
  10
353.64813
  20
103.26026
  0
VERTEX
  5
2db
  8
Layer_0
  10
353.65738
  20
103.28003
  0
VERTEX
  5
2dc
  8
Layer_0
  10
353.66364
  20
103.2983
  0
VERTEX
  5
2dd
  8
Layer_0
  10
353.66727
  20
103.31698
  0
VERTEX
  5
2de
  8
Layer_0
  10
353.66907
  20
103.33528
  0
VERTEX
  5
2df
  8
Layer_0
  10
353.66785
  20
103.3521
  0
VERTEX
  5
2e0
  8
Layer_0
  10
353.6629
  20
103.36821
  0
VERTEX
  5
2e1
  8
Layer_0
  10
353.65649
  20
103.38132
  0
VERTEX
  5
2e2
  8
Layer_0
  10
353.64557
  20
103.39445
  0
VERTEX
  5
2e3
  8
Layer_0
  10
352.89429
  20
104.14572
  0
VERTEX
  5
2e4
  8
Layer_0
  10
352.88266
  20
104.15513
  0
VERTEX
  5
2e5
  8
Layer_0
  10
352.8688
  20
104.16231
  0
VERTEX
  5
2e6
  8
Layer_0
  10
352.85345
  20
104.16649
  0
VERTEX
  5
2e7
  8
Layer_0
  10
352.83588
  20
104.16845
  0
VERTEX
  5
2e8
  8
Layer_0
  10
352.8187
  20
104.16779
  0
VERTEX
  5
2e9
  8
Layer_0
  10
352.80002
  20
104.16415
  0
VERTEX
  5
2ea
  8
Layer_0
  10
352.78101
  20
104.15863
  0
VERTEX
  5
2eb
  8
Layer_0
  10
352.76233
  20
104.1505
  0
VERTEX
  5
2ec
  8
Layer_0
  10
352.74298
  20
104.13864
  0
VERTEX
  5
2ed
  8
Layer_0
  10
352.7262
  20
104.12638
  0
VERTEX
  5
2ee
  8
Layer_0
  10
352.70761
  20
104.10928
  0
VERTEX
  5
2ef
  8
Layer_0
  10
343.08472
  20
94.486404
  0
VERTEX
  5
2f0
  8
Layer_0
  10
343.06985
  20
94.470039
  0
VERTEX
  5
2f1
  8
Layer_0
  10
343.05649
  20
94.452164
  0
VERTEX
  5
2f2
  8
Layer_0
  10
343.04575
  20
94.433899
  0
VERTEX
  5
2f3
  8
Layer_0
  10
343.0365
  20
94.414139
  0
VERTEX
  5
2f4
  8
Layer_0
  10
343.03024
  20
94.395859
  0
VERTEX
  5
2f5
  8
Layer_0
  10
343.02658
  20
94.377182
  0
VERTEX
  5
2f6
  8
Layer_0
  10
343.02481
  20
94.358879
  0
VERTEX
  5
2f7
  8
Layer_0
  10
343.02603
  20
94.342056
  0
VERTEX
  5
2f8
  8
Layer_0
  10
343.03094
  20
94.325958
  0
VERTEX
  5
2f9
  8
Layer_0
  10
343.03738
  20
94.312851
  0
VERTEX
  5
2fa
  8
Layer_0
  10
343.04828
  20
94.299713
  0
VERTEX
  5
2fb
  8
Layer_0
  10
343.79956
  20
93.548431
  0
VERTEX
  5
2fc
  8
Layer_0
  10
343.81119
  20
93.539032
  0
VERTEX
  5
2fd
  8
Layer_0
  10
343.82507
  20
93.53186
  0
VERTEX
  5
2fe
  8
Layer_0
  10
343.84039
  20
93.527672
  0
VERTEX
  5
2ff
  8
Layer_0
  10
343.85797
  20
93.525711
  0
VERTEX
  5
300
  8
Layer_0
  10
343.87518
  20
93.526375
  0
VERTEX
  5
301
  8
Layer_0
  10
343.89383
  20
93.530022
  0
VERTEX
  5
302
  8
Layer_0
  10
343.91287
  20
93.535538
  0
VERTEX
  5
303
  8
Layer_0
  10
343.93152
  20
93.543663
  0
VERTEX
  5
304
  8
Layer_0
  10
343.9509
  20
93.555527
  0
VERTEX
  5
305
  8
Layer_0
  10
343.96765
  20
93.56778
  0
VERTEX
  5
306
  8
Layer_0
  10
343.98627
  20
93.584877
  0
VERTEX
  5
307
  8
Layer_0
  10
353.60913
  20
103.20776
  0
VERTEX
  5
308
  8
Layer_0
  10
353.62402
  20
103.22412
  0
SEQEND
  0
POLYLINE
  5
30a
  8
Layer_0
  62
0
  70
1
  66
1
  10
0
  20
0
  30
0
  0
VERTEX
  5
30a
  8
Layer_0
  10
327.51566
  20
108.7063
  0
VERTEX
  5
30b
  8
Layer_0
  10
327.54089
  20
108.72702
  0
VERTEX
  5
30c
  8
Layer_0
  10
327.56598
  20
108.74459
  0
VERTEX
  5
30d
  8
Layer_0
  10
327.59256
  20
108.76066
  0
VERTEX
  5
30e
  8
Layer_0
  10
327.61661
  20
108.77269
  0
VERTEX
  5
30f
  8
Layer_0
  10
327.64053
  20
108.78159
  0
VERTEX
  5
310
  8
Layer_0
  10
327.66357
  20
108.78809
  0
VERTEX
  5
311
  8
Layer_0
  10
327.68408
  20
108.79056
  0
VERTEX
  5
312
  8
Layer_0
  10
327.70279
  20
108.78825
  0
VERTEX
  5
313
  8
Layer_0
  10
327.71747
  20
108.7834
  0
VERTEX
  5
314
  8
Layer_0
  10
327.73114
  20
108.77303
  0
VERTEX
  5
315
  8
Layer_0
  10
328.48242
  20
108.02174
  0
VERTEX
  5
316
  8
Layer_0
  10
328.4913
  20
108.00959
  0
VERTEX
  5
317
  8
Layer_0
  10
328.49689
  20
107.99415
  0
VERTEX
  5
318
  8
Layer_0
  10
328.49847
  20
107.97618
  0
VERTEX
  5
319
  8
Layer_0
  10
328.49673
  20
107.95493
  0
VERTEX
  5
31a
  8
Layer_0
  10
328.49188
  20
107.93353
  0
VERTEX
  5
31b
  8
Layer_0
  10
328.48297
  20
107.90962
  0
VERTEX
  5
31c
  8
Layer_0
  10
328.47168
  20
107.88481
  0
VERTEX
  5
31d
  8
Layer_0
  10
328.45728
  20
107.85986
  0
VERTEX
  5
31e
  8
Layer_0
  10
328.43805
  20
107.83314
  0
VERTEX
  5
31f
  8
Layer_0
  10
328.41898
  20
107.80956
  0
VERTEX
  5
320
  8
Layer_0
  10
328.39349
  20
107.78255
  0
VERTEX
  5
321
  8
Layer_0
  10
314.24261
  20
93.631683
  0
VERTEX
  5
322
  8
Layer_0
  10
314.2189
  20
93.609467
  0
VERTEX
  5
323
  8
Layer_0
  10
314.19366
  20
93.588753
  0
VERTEX
  5
324
  8
Layer_0
  10
314.16858
  20
93.571182
  0
VERTEX
  5
325
  8
Layer_0
  10
314.142
  20
93.555115
  0
VERTEX
  5
326
  8
Layer_0
  10
314.11795
  20
93.543076
  0
VERTEX
  5
327
  8
Layer_0
  10
314.09402
  20
93.53418
  0
VERTEX
  5
328
  8
Layer_0
  10
314.07098
  20
93.527679
  0
VERTEX
  5
329
  8
Layer_0
  10
314.05048
  20
93.525208
  0
VERTEX
  5
32a
  8
Layer_0
  10
314.03177
  20
93.527527
  0
VERTEX
  5
32b
  8
Layer_0
  10
314.01709
  20
93.532372
  0
VERTEX
  5
32c
  8
Layer_0
  10
314.00342
  20
93.542747
  0
VERTEX
  5
32d
  8
Layer_0
  10
313.25214
  20
94.294022
  0
VERTEX
  5
32e
  8
Layer_0
  10
313.24326
  20
94.306183
  0
VERTEX
  5
32f
  8
Layer_0
  10
313.23767
  20
94.321625
  0
VERTEX
  5
330
  8
Layer_0
  10
313.23608
  20
94.339592
  0
VERTEX
  5
331
  8
Layer_0
  10
313.23782
  20
94.360847
  0
VERTEX
  5
332
  8
Layer_0
  10
313.24268
  20
94.382233
  0
VERTEX
  5
333
  8
Layer_0
  10
313.25159
  20
94.406151
  0
VERTEX
  5
334
  8
Layer_0
  10
313.26288
  20
94.430962
  0
VERTEX
  5
335
  8
Layer_0
  10
313.27728
  20
94.45591
  0
VERTEX
  5
336
  8
Layer_0
  10
313.29651
  20
94.482635
  0
VERTEX
  5
337
  8
Layer_0
  10
313.31558
  20
94.506218
  0
VERTEX
  5
338
  8
Layer_0
  10
313.34106
  20
94.533218
  0
VERTEX
  5
339
  8
Layer_0
  10
327.49194
  20
108.68408
  0
VERTEX
  5
33a
  8
Layer_0
  10
327.51566
  20
108.7063
  0
SEQEND
  0
POLYLINE
  5
33c
  8
Layer_0
  62
0
  70
1
  66
1
  10
0
  20
0
  30
0
  0
VERTEX
  5
33c
  8
Layer_0
  10
323.49966
  20
108.7063
  0
VERTEX
  5
33d
  8
Layer_0
  10
323.5249
  20
108.72702
  0
VERTEX
  5
33e
  8
Layer_0
  10
323.54999
  20
108.74459
  0
VERTEX
  5
33f
  8
Layer_0
  10
323.57654
  20
108.76066
  0
VERTEX
  5
340
  8
Layer_0
  10
323.60062
  20
108.77269
  0
VERTEX
  5
341
  8
Layer_0
  10
323.62454
  20
108.78159
  0
VERTEX
  5
342
  8
Layer_0
  10
323.64755
  20
108.78809
  0
VERTEX
  5
343
  8
Layer_0
  10
323.66806
  20
108.79056
  0
VERTEX
  5
344
  8
Layer_0
  10
323.68677
  20
108.78825
  0
VERTEX
  5
345
  8
Layer_0
  10
323.70148
  20
108.7834
  0
VERTEX
  5
346
  8
Layer_0
  10
323.71515
  20
108.77303
  0
VERTEX
  5
347
  8
Layer_0
  10
324.4664
  20
108.02174
  0
VERTEX
  5
348
  8
Layer_0
  10
324.47528
  20
108.00959
  0
VERTEX
  5
349
  8
Layer_0
  10
324.4809
  20
107.99415
  0
VERTEX
  5
34a
  8
Layer_0
  10
324.48245
  20
107.97618
  0
VERTEX
  5
34b
  8
Layer_0
  10
324.48071
  20
107.95493
  0
VERTEX
  5
34c
  8
Layer_0
  10
324.47586
  20
107.93353
  0
VERTEX
  5
34d
  8
Layer_0
  10
324.46698
  20
107.90962
  0
VERTEX
  5
34e
  8
Layer_0
  10
324.45569
  20
107.88481
  0
VERTEX
  5
34f
  8
Layer_0
  10
324.44125
  20
107.85986
  0
VERTEX
  5
350
  8
Layer_0
  10
324.42206
  20
107.83314
  0
VERTEX
  5
351
  8
Layer_0
  10
324.40295
  20
107.80956
  0
VERTEX
  5
352
  8
Layer_0
  10
324.37747
  20
107.78255
  0
VERTEX
  5
353
  8
Layer_0
  10
310.22659
  20
93.631683
  0
VERTEX
  5
354
  8
Layer_0
  10
310.20288
  20
93.609467
  0
VERTEX
  5
355
  8
Layer_0
  10
310.17767
  20
93.588753
  0
VERTEX
  5
356
  8
Layer_0
  10
310.15259
  20
93.571182
  0
VERTEX
  5
357
  8
Layer_0
  10
310.12598
  20
93.555115
  0
VERTEX
  5
358
  8
Layer_0
  10
310.10193
  20
93.543076
  0
VERTEX
  5
359
  8
Layer_0
  10
310.078
  20
93.53418
  0
VERTEX
  5
35a
  8
Layer_0
  10
310.05499
  20
93.527679
  0
VERTEX
  5
35b
  8
Layer_0
  10
310.03448
  20
93.525208
  0
VERTEX
  5
35c
  8
Layer_0
  10
310.01575
  20
93.527527
  0
VERTEX
  5
35d
  8
Layer_0
  10
310.00107
  20
93.532372
  0
VERTEX
  5
35e
  8
Layer_0
  10
309.98743
  20
93.542747
  0
VERTEX
  5
35f
  8
Layer_0
  10
309.23615
  20
94.294022
  0
VERTEX
  5
360
  8
Layer_0
  10
309.22726
  20
94.306183
  0
VERTEX
  5
361
  8
Layer_0
  10
309.22168
  20
94.321625
  0
VERTEX
  5
362
  8
Layer_0
  10
309.22009
  20
94.339592
  0
VERTEX
  5
363
  8
Layer_0
  10
309.2218
  20
94.360847
  0
VERTEX
  5
364
  8
Layer_0
  10
309.22668
  20
94.382233
  0
VERTEX
  5
365
  8
Layer_0
  10
309.23557
  20
94.406151
  0
VERTEX
  5
366
  8
Layer_0
  10
309.24686
  20
94.430962
  0
VERTEX
  5
367
  8
Layer_0
  10
309.26129
  20
94.45591
  0
VERTEX
  5
368
  8
Layer_0
  10
309.28052
  20
94.482635
  0
VERTEX
  5
369
  8
Layer_0
  10
309.29956
  20
94.506218
  0
VERTEX
  5
36a
  8
Layer_0
  10
309.32507
  20
94.533218
  0
VERTEX
  5
36b
  8
Layer_0
  10
323.47595
  20
108.68408
  0
VERTEX
  5
36c
  8
Layer_0
  10
323.49966
  20
108.7063
  0
SEQEND
  0
POLYLINE
  5
36e
  8
Layer_0
  62
0
  70
1
  66
1
  10
0
  20
0
  30
0
  0
VERTEX
  5
36e
  8
Layer_0
  10
381.11987
  20
129.46619
  0
VERTEX
  5
36f
  8
Layer_0
  10
381.11987
  20
125.46619
  0
VERTEX
  5
370
  8
Layer_0
  10
395.61987
  20
125.46619
  0
VERTEX
  5
371
  8
Layer_0
  10
395.61987
  20
129.46619
  0
VERTEX
  5
372
  8
Layer_0
  10
408.36987
  20
129.46619
  0
VERTEX
  5
373
  8
Layer_0
  10
408.36987
  20
115.21619
  0
VERTEX
  5
374
  8
Layer_0
  10
412.36987
  20
115.21619
  0
VERTEX
  5
375
  8
Layer_0
  10
412.36987
  20
100.71619
  0
VERTEX
  5
376
  8
Layer_0
  10
408.36987
  20
100.71619
  0
VERTEX
  5
377
  8
Layer_0
  10
408.36987
  20
86.466187
  0
VERTEX
  5
378
  8
Layer_0
  10
395.61987
  20
86.466187
  0
VERTEX
  5
379
  8
Layer_0
  10
395.61987
  20
90.466187
  0
VERTEX
  5
37a
  8
Layer_0
  10
381.11987
  20
90.466187
  0
VERTEX
  5
37b
  8
Layer_0
  10
381.11987
  20
86.466187
  0
VERTEX
  5
37c
  8
Layer_0
  10
368.36987
  20
86.466187
  0
VERTEX
  5
37d
  8
Layer_0
  10
368.36987
  20
100.71619
  0
VERTEX
  5
37e
  8
Layer_0
  10
364.36987
  20
100.71619
  0
VERTEX
  5
37f
  8
Layer_0
  10
364.36987
  20
115.21619
  0
VERTEX
  5
380
  8
Layer_0
  10
368.36987
  20
115.21619
  0
VERTEX
  5
381
  8
Layer_0
  10
368.36987
  20
129.46619
  0
VERTEX
  5
382
  8
Layer_0
  10
381.11987
  20
129.46619
  0
SEQEND
  0
POLYLINE
  5
384
  8
Layer_0
  62
0
  70
1
  66
1
  10
0
  20
0
  30
0
  0
VERTEX
  5
384
  8
Layer_0
  10
425.61987
  20
130.46619
  0
VERTEX
  5
385
  8
Layer_0
  10
425.61987
  20
134.46619
  0
VERTEX
  5
386
  8
Layer_0
  10
440.11987
  20
134.46619
  0
VERTEX
  5
387
  8
Layer_0
  10
440.11987
  20
130.46619
  0
VERTEX
  5
388
  8
Layer_0
  10
454.61987
  20
130.46619
  0
VERTEX
  5
389
  8
Layer_0
  10
454.61987
  20
134.46619
  0
VERTEX
  5
38a
  8
Layer_0
  10
469.11987
  20
134.46619
  0
VERTEX
  5
38b
  8
Layer_0
  10
469.11987
  20
130.46619
  0
VERTEX
  5
38c
  8
Layer_0
  10
483.61987
  20
130.46619
  0
VERTEX
  5
38d
  8
Layer_0
  10
483.61987
  20
134.46619
  0
VERTEX
  5
38e
  8
Layer_0
  10
498.11987
  20
134.46619
  0
VERTEX
  5
38f
  8
Layer_0
  10
498.11987
  20
130.46619
  0
VERTEX
  5
390
  8
Layer_0
  10
504.36987
  20
130.46619
  0
VERTEX
  5
391
  8
Layer_0
  10
504.36987
  20
117.71619
  0
VERTEX
  5
392
  8
Layer_0
  10
508.36987
  20
117.71619
  0
VERTEX
  5
393
  8
Layer_0
  10
508.36987
  20
103.21619
  0
VERTEX
  5
394
  8
Layer_0
  10
504.36987
  20
103.21619
  0
VERTEX
  5
395
  8
Layer_0
  10
504.36987
  20
90.466187
  0
VERTEX
  5
396
  8
Layer_0
  10
498.11987
  20
90.466187
  0
VERTEX
  5
397
  8
Layer_0
  10
498.11987
  20
86.466187
  0
VERTEX
  5
398
  8
Layer_0
  10
483.61987
  20
86.466187
  0
VERTEX
  5
399
  8
Layer_0
  10
483.61987
  20
90.466187
  0
VERTEX
  5
39a
  8
Layer_0
  10
469.11987
  20
90.466187
  0
VERTEX
  5
39b
  8
Layer_0
  10
469.11987
  20
86.466187
  0
VERTEX
  5
39c
  8
Layer_0
  10
454.61987
  20
86.466187
  0
VERTEX
  5
39d
  8
Layer_0
  10
454.61987
  20
90.466187
  0
VERTEX
  5
39e
  8
Layer_0
  10
440.11987
  20
90.466187
  0
VERTEX
  5
39f
  8
Layer_0
  10
440.11987
  20
86.466187
  0
VERTEX
  5
3a0
  8
Layer_0
  10
425.61987
  20
86.466187
  0
VERTEX
  5
3a1
  8
Layer_0
  10
425.61987
  20
90.466187
  0
VERTEX
  5
3a2
  8
Layer_0
  10
419.36987
  20
90.466187
  0
VERTEX
  5
3a3
  8
Layer_0
  10
419.36987
  20
103.21619
  0
VERTEX
  5
3a4
  8
Layer_0
  10
415.36987
  20
103.21619
  0
VERTEX
  5
3a5
  8
Layer_0
  10
415.36987
  20
117.71619
  0
VERTEX
  5
3a6
  8
Layer_0
  10
419.36987
  20
117.71619
  0
VERTEX
  5
3a7
  8
Layer_0
  10
419.36987
  20
130.46619
  0
VERTEX
  5
3a8
  8
Layer_0
  10
425.61987
  20
130.46619
  0
SEQEND
  0
POLYLINE
  5
3aa
  8
Layer_0
  62
0
  70
1
  66
1
  10
0
  20
0
  30
0
  0
VERTEX
  5
3aa
  8
Layer_0
  10
381.11987
  20
175.46619
  0
VERTEX
  5
3ab
  8
Layer_0
  10
381.11987
  20
171.46619
  0
VERTEX
  5
3ac
  8
Layer_0
  10
395.61987
  20
171.46619
  0
VERTEX
  5
3ad
  8
Layer_0
  10
395.61987
  20
175.46619
  0
VERTEX
  5
3ae
  8
Layer_0
  10
408.36987
  20
175.46619
  0
VERTEX
  5
3af
  8
Layer_0
  10
408.36987
  20
161.21619
  0
VERTEX
  5
3b0
  8
Layer_0
  10
412.36987
  20
161.21619
  0
VERTEX
  5
3b1
  8
Layer_0
  10
412.36987
  20
146.71619
  0
VERTEX
  5
3b2
  8
Layer_0
  10
408.36987
  20
146.71619
  0
VERTEX
  5
3b3
  8
Layer_0
  10
408.36987
  20
132.46619
  0
VERTEX
  5
3b4
  8
Layer_0
  10
395.61987
  20
132.46619
  0
VERTEX
  5
3b5
  8
Layer_0
  10
395.61987
  20
136.46619
  0
VERTEX
  5
3b6
  8
Layer_0
  10
381.11987
  20
136.46619
  0
VERTEX
  5
3b7
  8
Layer_0
  10
381.11987
  20
132.46619
  0
VERTEX
  5
3b8
  8
Layer_0
  10
368.36987
  20
132.46619
  0
VERTEX
  5
3b9
  8
Layer_0
  10
368.36987
  20
146.71619
  0
VERTEX
  5
3ba
  8
Layer_0
  10
364.36987
  20
146.71619
  0
VERTEX
  5
3bb
  8
Layer_0
  10
364.36987
  20
161.21619
  0
VERTEX
  5
3bc
  8
Layer_0
  10
368.36987
  20
161.21619
  0
VERTEX
  5
3bd
  8
Layer_0
  10
368.36987
  20
175.46619
  0
VERTEX
  5
3be
  8
Layer_0
  10
381.11987
  20
175.46619
  0
SEQEND
  0
POLYLINE
  5
3c0
  8
Layer_1
  62
6
  70
1
  66
1
  10
0
  20
0
  30
0
  0
VERTEX
  5
3c0
  8
Layer_1
  10
335.97888
  20
156.46426
  0
VERTEX
  5
3c1
  8
Layer_1
  10
335.62793
  20
156.44281
  0
VERTEX
  5
3c2
  8
Layer_1
  10
335.28149
  20
156.39349
  0
VERTEX
  5
3c3
  8
Layer_1
  10
334.94116
  20
156.31691
  0
VERTEX
  5
3c4
  8
Layer_1
  10
334.60858
  20
156.21359
  0
VERTEX
  5
3c5
  8
Layer_1
  10
334.28528
  20
156.08411
  0
VERTEX
  5
3c6
  8
Layer_1
  10
333.97284
  20
155.92902
  0
VERTEX
  5
3c7
  8
Layer_1
  10
333.67282
  20
155.74887
  0
VERTEX
  5
3c8
  8
Layer_1
  10
333.38687
  20
155.54427
  0
VERTEX
  5
3c9
  8
Layer_1
  10
333.01453
  20
155.18576
  0
VERTEX
  5
3ca
  8
Layer_1
  10
332.71716
  20
154.7774
  0
VERTEX
  5
3cb
  8
Layer_1
  10
332.49707
  20
154.33023
  0
VERTEX
  5
3cc
  8
Layer_1
  10
332.35654
  20
153.85516
  0
VERTEX
  5
3cd
  8
Layer_1
  10
332.29776
  20
153.36325
  0
VERTEX
  5
3ce
  8
Layer_1
  10
332.32306
  20
152.86546
  0
VERTEX
  5
3cf
  8
Layer_1
  10
332.43469
  20
152.3728
  0
VERTEX
  5
3d0
  8
Layer_1
  10
332.63489
  20
151.89627
  0
VERTEX
  5
3d1
  8
Layer_1
  10
332.96286
  20
151.45898
  0
VERTEX
  5
3d2
  8
Layer_1
  10
333.35693
  20
151.08568
  0
VERTEX
  5
3d3
  8
Layer_1
  10
333.80798
  20
150.78369
  0
VERTEX
  5
3d4
  8
Layer_1
  10
334.30688
  20
150.56027
  0
VERTEX
  5
3d5
  8
Layer_1
  10
334.94873
  20
150.34639
  0
VERTEX
  5
3d6
  8
Layer_1
  10
335.59778
  20
150.1563
  0
VERTEX
  5
3d7
  8
Layer_1
  10
336.25339
  20
149.99019
  0
VERTEX
  5
3d8
  8
Layer_1
  10
336.91489
  20
149.84827
  0
VERTEX
  5
3d9
  8
Layer_1
  10
337.33261
  20
149.75098
  0
VERTEX
  5
3da
  8
Layer_1
  10
337.74103
  20
149.62213
  0
VERTEX
  5
3db
  8
Layer_1
  10
338.1384
  20
149.46234
  0
VERTEX
  5
3dc
  8
Layer_1
  10
338.52289
  20
149.27226
  0
VERTEX
  5
3dd
  8
Layer_1
  10
338.7196
  20
149.10033
  0
VERTEX
  5
3de
  8
Layer_1
  10
338.87375
  20
148.89897
  0
VERTEX
  5
3df
  8
Layer_1
  10
338.98407
  20
148.67529
  0
VERTEX
  5
3e0
  8
Layer_1
  10
339.04932
  20
148.43648
  0
VERTEX
  5
3e1
  8
Layer_1
  10
339.06824
  20
148.18961
  0
VERTEX
  5
3e2
  8
Layer_1
  10
339.03964
  20
147.94186
  0
VERTEX
  5
3e3
  8
Layer_1
  10
338.96228
  20
147.70038
  0
VERTEX
  5
3e4
  8
Layer_1
  10
338.83487
  20
147.47227
  0
VERTEX
  5
3e5
  8
Layer_1
  10
338.5593
  20
147.16982
  0
VERTEX
  5
3e6
  8
Layer_1
  10
338.23029
  20
146.9339
  0
VERTEX
  5
3e7
  8
Layer_1
  10
337.85956
  20
146.77115
  0
VERTEX
  5
3e8
  8
Layer_1
  10
337.45889
  20
146.68826
  0
VERTEX
  5
3e9
  8
Layer_1
  10
336.91168
  20
146.61853
  0
VERTEX
  5
3ea
  8
Layer_1
  10
336.36227
  20
146.61824
  0
VERTEX
  5
3eb
  8
Layer_1
  10
335.81717
  20
146.68695
  0
VERTEX
  5
3ec
  8
Layer_1
  10
335.2829
  20
146.82426
  0
VERTEX
  5
3ed
  8
Layer_1
  10
335.03479
  20
146.93784
  0
VERTEX
  5
3ee
  8
Layer_1
  10
334.80783
  20
147.08226
  0
VERTEX
  5
3ef
  8
Layer_1
  10
334.60431
  20
147.25459
  0
VERTEX
  5
3f0
  8
Layer_1
  10
334.42651
  20
147.45189
  0
VERTEX
  5
3f1
  8
Layer_1
  10
334.27679
  20
147.67123
  0
VERTEX
  5
3f2
  8
Layer_1
  10
334.15741
  20
147.90971
  0
VERTEX
  5
3f3
  8
Layer_1
  10
334.07068
  20
148.16437
  0
VERTEX
  5
3f4
  8
Layer_1
  10
334.01889
  20
148.43227
  0
VERTEX
  5
3f5
  8
Layer_1
  10
333.97888
  20
148.68027
  0
VERTEX
  5
3f6
  8
Layer_1
  10
332.6189
  20
148.57626
  0
VERTEX
  5
3f7
  8
Layer_1
  10
332.66397
  20
148.08435
  0
VERTEX
  5
3f8
  8
Layer_1
  10
332.78394
  20
147.61464
  0
VERTEX
  5
3f9
  8
Layer_1
  10
332.97351
  20
147.17429
  0
VERTEX
  5
3fa
  8
Layer_1
  10
333.22736
  20
146.77049
  0
VERTEX
  5
3fb
  8
Layer_1
  10
333.54013
  20
146.41042
  0
VERTEX
  5
3fc
  8
Layer_1
  10
333.90652
  20
146.10123
  0
VERTEX
  5
3fd
  8
Layer_1
  10
334.32123
  20
145.85013
  0
VERTEX
  5
3fe
  8
Layer_1
  10
334.77887
  20
145.66428
  0
VERTEX
  5
3ff
  8
Layer_1
  10
335.25311
  20
145.52652
  0
VERTEX
  5
400
  8
Layer_1
  10
335.73474
  20
145.43079
  0
VERTEX
  5
401
  8
Layer_1
  10
336.22098
  20
145.37704
  0
VERTEX
  5
402
  8
Layer_1
  10
336.70917
  20
145.36523
  0
VERTEX
  5
403
  8
Layer_1
  10
337.19656
  20
145.39529
  0
VERTEX
  5
404
  8
Layer_1
  10
337.68045
  20
145.46719
  0
VERTEX
  5
405
  8
Layer_1
  10
338.15814
  20
145.58087
  0
VERTEX
  5
406
  8
Layer_1
  10
338.62689
  20
145.73627
  0
VERTEX
  5
407
  8
Layer_1
  10
338.88086
  20
145.84427
  0
VERTEX
  5
408
  8
Layer_1
  10
339.11853
  20
145.97446
  0
VERTEX
  5
409
  8
Layer_1
  10
339.33905
  20
146.12515
  0
VERTEX
  5
40a
  8
Layer_1
  10
339.5416
  20
146.29471
  0
VERTEX
  5
40b
  8
Layer_1
  10
339.88977
  20
146.68367
  0
VERTEX
  5
40c
  8
Layer_1
  10
340.15662
  20
147.12802
  0
VERTEX
  5
40d
  8
Layer_1
  10
340.33575
  20
147.6144
  0
VERTEX
  5
40e
  8
Layer_1
  10
340.42078
  20
148.12946
  0
VERTEX
  5
40f
  8
Layer_1
  10
340.42599
  20
148.39359
  0
VERTEX
  5
410
  8
Layer_1
  10
340.40527
  20
148.65987
  0
VERTEX
  5
411
  8
Layer_1
  10
340.35785
  20
148.92665
  0
VERTEX
  5
412
  8
Layer_1
  10
340.2829
  20
149.19226
  0
VERTEX
  5
413
  8
Layer_1
  10
340.04974
  20
149.65439
  0
VERTEX
  5
414
  8
Layer_1
  10
339.73636
  20
150.06053
  0
VERTEX
  5
415
  8
Layer_1
  10
339.35226
  20
150.40053
  0
VERTEX
  5
416
  8
Layer_1
  10
338.90689
  20
150.66426
  0
VERTEX
  5
417
  8
Layer_1
  10
338.40311
  20
150.87271
  0
VERTEX
  5
418
  8
Layer_1
  10
337.8891
  20
151.05309
  0
VERTEX
  5
419
  8
Layer_1
  10
337.36597
  20
151.20506
  0
VERTEX
  5
41a
  8
Layer_1
  10
336.8349
  20
151.32826
  0
VERTEX
  5
41b
  8
Layer_1
  10
335.8714
  20
151.56519
  0
VERTEX
  5
41c
  8
Layer_1
  10
334.92288
  20
151.85626
  0
VERTEX
  5
41d
  8
Layer_1
  10
334.65204
  20
151.9668
  0
VERTEX
  5
41e
  8
Layer_1
  10
334.39844
  20
152.11029
  0
VERTEX
  5
41f
  8
Layer_1
  10
334.16504
  20
152.28476
  0
VERTEX
  5
420
  8
Layer_1
  10
333.9549
  20
152.48827
  0
VERTEX
  5
421
  8
Layer_1
  10
333.81149
  20
152.73026
  0
VERTEX
  5
422
  8
Layer_1
  10
333.71686
  20
152.98773
  0
VERTEX
  5
423
  8
Layer_1
  10
333.67038
  20
153.25412
  0
VERTEX
  5
424
  8
Layer_1
  10
333.67145
  20
153.52281
  0
VERTEX
  5
425
  8
Layer_1
  10
333.71942
  20
153.78717
  0
VERTEX
  5
426
  8
Layer_1
  10
333.81372
  20
154.0406
  0
VERTEX
  5
427
  8
Layer_1
  10
333.95374
  20
154.27649
  0
VERTEX
  5
428
  8
Layer_1
  10
334.13889
  20
154.48827
  0
VERTEX
  5
429
  8
Layer_1
  10
334.45767
  20
154.72495
  0
VERTEX
  5
42a
  8
Layer_1
  10
334.80484
  20
154.91347
  0
VERTEX
  5
42b
  8
Layer_1
  10
335.17505
  20
155.05139
  0
VERTEX
  5
42c
  8
Layer_1
  10
335.5629
  20
155.13626
  0
VERTEX
  5
42d
  8
Layer_1
  10
336.17584
  20
155.19775
  0
VERTEX
  5
42e
  8
Layer_1
  10
336.78857
  20
155.17496
  0
VERTEX
  5
42f
  8
Layer_1
  10
337.39246
  20
155.06885
  0
VERTEX
  5
430
  8
Layer_1
  10
337.97888
  20
154.88026
  0
VERTEX
  5
431
  8
Layer_1
  10
338.25604
  20
154.75375
  0
VERTEX
  5
432
  8
Layer_1
  10
338.51096
  20
154.59401
  0
VERTEX
  5
433
  8
Layer_1
  10
338.74109
  20
154.40399
  0
VERTEX
  5
434
  8
Layer_1
  10
338.94403
  20
154.18668
  0
VERTEX
  5
435
  8
Layer_1
  10
339.11731
  20
153.94507
  0
VERTEX
  5
436
  8
Layer_1
  10
339.25848
  20
153.68213
  0
VERTEX
  5
437
  8
Layer_1
  10
339.36517
  20
153.40088
  0
VERTEX
  5
438
  8
Layer_1
  10
339.43488
  20
153.10426
  0
VERTEX
  5
439
  8
Layer_1
  10
339.49887
  20
152.72026
  0
VERTEX
  5
43a
  8
Layer_1
  10
340.8429
  20
152.84027
  0
VERTEX
  5
43b
  8
Layer_1
  10
340.78894
  20
153.42976
  0
VERTEX
  5
43c
  8
Layer_1
  10
340.64105
  20
153.99048
  0
VERTEX
  5
43d
  8
Layer_1
  10
340.40649
  20
154.51315
  0
VERTEX
  5
43e
  8
Layer_1
  10
340.0925
  20
154.98856
  0
VERTEX
  5
43f
  8
Layer_1
  10
339.7063
  20
155.40741
  0
VERTEX
  5
440
  8
Layer_1
  10
339.25513
  20
155.7605
  0
VERTEX
  5
441
  8
Layer_1
  10
338.74625
  20
156.03853
  0
VERTEX
  5
442
  8
Layer_1
  10
338.18689
  20
156.23227
  0
VERTEX
  5
443
  8
Layer_1
  10
337.64236
  20
156.35092
  0
VERTEX
  5
444
  8
Layer_1
  10
337.0914
  20
156.42931
  0
VERTEX
  5
445
  8
Layer_1
  10
336.53616
  20
156.46716
  0
VERTEX
  5
446
  8
Layer_1
  10
335.97888
  20
156.46426
  0
SEQEND
  0
POLYLINE
  5
448
  8
Layer_1
  62
6
  70
1
  66
1
  10
0
  20
0
  30
0
  0
VERTEX
  5
448
  8
Layer_1
  10
294.74689
  20
151.92029
  0
VERTEX
  5
449
  8
Layer_1
  10
291.71487
  20
151.92029
  0
VERTEX
  5
44a
  8
Layer_1
  10
291.19943
  20
151.90076
  0
VERTEX
  5
44b
  8
Layer_1
  10
290.68933
  20
151.83246
  0
VERTEX
  5
44c
  8
Layer_1
  10
290.18799
  20
151.71609
  0
VERTEX
  5
44d
  8
Layer_1
  10
289.69888
  20
151.55228
  0
VERTEX
  5
44e
  8
Layer_1
  10
289.32642
  20
151.3624
  0
VERTEX
  5
44f
  8
Layer_1
  10
288.99258
  20
151.1153
  0
VERTEX
  5
450
  8
Layer_1
  10
288.70392
  20
150.81671
  0
VERTEX
  5
451
  8
Layer_1
  10
288.46689
  20
150.47229
  0
VERTEX
  5
452
  8
Layer_1
  10
288.22949
  20
150.00447
  0
VERTEX
  5
453
  8
Layer_1
  10
288.06827
  20
149.51476
  0
VERTEX
  5
454
  8
Layer_1
  10
287.98276
  20
149.01176
  0
VERTEX
  5
455
  8
Layer_1
  10
287.97253
  20
148.50415
  0
VERTEX
  5
456
  8
Layer_1
  10
288.03711
  20
148.00055
  0
VERTEX
  5
457
  8
Layer_1
  10
288.17599
  20
147.50963
  0
VERTEX
  5
458
  8
Layer_1
  10
288.38873
  20
147.03999
  0
VERTEX
  5
459
  8
Layer_1
  10
288.6749
  20
146.60028
  0
VERTEX
  5
45a
  8
Layer_1
  10
288.97711
  20
146.29977
  0
VERTEX
  5
45b
  8
Layer_1
  10
289.3212
  20
146.0528
  0
VERTEX
  5
45c
  8
Layer_1
  10
289.70007
  20
145.86356
  0
VERTEX
  5
45d
  8
Layer_1
  10
290.10687
  20
145.73628
  0
VERTEX
  5
45e
  8
Layer_1
  10
290.48077
  20
145.6597
  0
VERTEX
  5
45f
  8
Layer_1
  10
290.85791
  20
145.60342
  0
VERTEX
  5
460
  8
Layer_1
  10
291.23755
  20
145.5676
  0
VERTEX
  5
461
  8
Layer_1
  10
291.6189
  20
145.55228
  0
VERTEX
  5
462
  8
Layer_1
  10
296.1709
  20
145.55228
  0
VERTEX
  5
463
  8
Layer_1
  10
296.1709
  20
156.28828
  0
VERTEX
  5
464
  8
Layer_1
  10
294.74689
  20
156.28828
  0
VERTEX
  5
465
  8
Layer_1
  10
294.74689
  20
151.92029
  0
SEQEND
  0
POLYLINE
  5
467
  8
Layer_1
  62
6
  70
1
  66
1
  10
0
  20
0
  30
0
  0
VERTEX
  5
467
  8
Layer_1
  10
285.01089
  20
145.55229
  0
VERTEX
  5
468
  8
Layer_1
  10
286.33087
  20
145.55229
  0
VERTEX
  5
469
  8
Layer_1
  10
286.33087
  20
147.06429
  0
VERTEX
  5
46a
  8
Layer_1
  10
285.01089
  20
147.06429
  0
VERTEX
  5
46b
  8
Layer_1
  10
285.01089
  20
145.55229
  0
SEQEND
  0
POLYLINE
  5
46d
  8
Layer_1
  62
6
  70
1
  66
1
  10
0
  20
0
  30
0
  0
VERTEX
  5
46d
  8
Layer_1
  10
328.2269
  20
156.38428
  0
VERTEX
  5
46e
  8
Layer_1
  10
327.84131
  20
156.33911
  0
VERTEX
  5
46f
  8
Layer_1
  10
327.45889
  20
156.27228
  0
VERTEX
  5
470
  8
Layer_1
  10
327.64288
  20
155.10428
  0
VERTEX
  5
471
  8
Layer_1
  10
327.87756
  20
155.14703
  0
VERTEX
  5
472
  8
Layer_1
  10
328.11487
  20
155.16129
  0
VERTEX
  5
473
  8
Layer_1
  10
328.3522
  20
155.14703
  0
VERTEX
  5
474
  8
Layer_1
  10
328.58688
  20
155.10428
  0
VERTEX
  5
475
  8
Layer_1
  10
328.75732
  20
154.99281
  0
VERTEX
  5
476
  8
Layer_1
  10
328.88184
  20
154.83755
  0
VERTEX
  5
477
  8
Layer_1
  10
328.95288
  20
154.65166
  0
VERTEX
  5
478
  8
Layer_1
  10
328.96289
  20
154.44827
  0
VERTEX
  5
479
  8
Layer_1
  10
328.97089
  20
154.33627
  0
VERTEX
  5
47a
  8
Layer_1
  10
328.97089
  20
149.53627
  0
VERTEX
  5
47b
  8
Layer_1
  10
327.64288
  20
149.53627
  0
VERTEX
  5
47c
  8
Layer_1
  10
327.64288
  20
148.51227
  0
VERTEX
  5
47d
  8
Layer_1
  10
328.97089
  20
148.51227
  0
VERTEX
  5
47e
  8
Layer_1
  10
328.97089
  20
145.79227
  0
VERTEX
  5
47f
  8
Layer_1
  10
330.2829
  20
146.58427
  0
VERTEX
  5
480
  8
Layer_1
  10
330.2829
  20
148.51227
  0
VERTEX
  5
481
  8
Layer_1
  10
331.25089
  20
148.51227
  0
VERTEX
  5
482
  8
Layer_1
  10
331.25089
  20
149.53627
  0
VERTEX
  5
483
  8
Layer_1
  10
330.2829
  20
149.53627
  0
VERTEX
  5
484
  8
Layer_1
  10
330.2829
  20
154.29626
  0
VERTEX
  5
485
  8
Layer_1
  10
330.28201
  20
154.61836
  0
VERTEX
  5
486
  8
Layer_1
  10
330.25494
  20
154.93881
  0
VERTEX
  5
487
  8
Layer_1
  10
330.20184
  20
155.25598
  0
VERTEX
  5
488
  8
Layer_1
  10
330.12289
  20
155.56827
  0
VERTEX
  5
489
  8
Layer_1
  10
329.93991
  20
155.84933
  0
VERTEX
  5
48a
  8
Layer_1
  10
329.6994
  20
156.0766
  0
VERTEX
  5
48b
  8
Layer_1
  10
329.41266
  20
156.24171
  0
VERTEX
  5
48c
  8
Layer_1
  10
329.09088
  20
156.33627
  0
VERTEX
  5
48d
  8
Layer_1
  10
328.66034
  20
156.38663
  0
VERTEX
  5
48e
  8
Layer_1
  10
328.2269
  20
156.38428
  0
SEQEND
  0
POLYLINE
  5
490
  8
Layer_1
  62
6
  70
1
  66
1
  10
0
  20
0
  30
0
  0
VERTEX
  5
490
  8
Layer_1
  10
294.74689
  20
150.65628
  0
VERTEX
  5
491
  8
Layer_1
  10
294.74689
  20
146.81628
  0
VERTEX
  5
492
  8
Layer_1
  10
291.77087
  20
146.81628
  0
VERTEX
  5
493
  8
Layer_1
  10
291.22052
  20
146.83725
  0
VERTEX
  5
494
  8
Layer_1
  10
290.6749
  20
146.91228
  0
VERTEX
  5
495
  8
Layer_1
  10
290.43451
  20
147.00307
  0
VERTEX
  5
496
  8
Layer_1
  10
290.21408
  20
147.12656
  0
VERTEX
  5
497
  8
Layer_1
  10
290.0163
  20
147.27957
  0
VERTEX
  5
498
  8
Layer_1
  10
289.84375
  20
147.45895
  0
VERTEX
  5
499
  8
Layer_1
  10
289.6991
  20
147.6615
  0
VERTEX
  5
49a
  8
Layer_1
  10
289.58496
  20
147.884
  0
VERTEX
  5
49b
  8
Layer_1
  10
289.50403
  20
148.12332
  0
VERTEX
  5
49c
  8
Layer_1
  10
289.45889
  20
148.37628
  0
VERTEX
  5
49d
  8
Layer_1
  10
289.4324
  20
148.76245
  0
VERTEX
  5
49e
  8
Layer_1
  10
289.47552
  20
149.14407
  0
VERTEX
  5
49f
  8
Layer_1
  10
289.58633
  20
149.51181
  0
VERTEX
  5
4a0
  8
Layer_1
  10
289.76288
  20
149.85628
  0
VERTEX
  5
4a1
  8
Layer_1
  10
289.96881
  20
150.09637
  0
VERTEX
  5
4a2
  8
Layer_1
  10
290.21426
  20
150.29153
  0
VERTEX
  5
4a3
  8
Layer_1
  10
290.49203
  20
150.43707
  0
VERTEX
  5
4a4
  8
Layer_1
  10
290.79489
  20
150.52829
  0
VERTEX
  5
4a5
  8
Layer_1
  10
291.08539
  20
150.58829
  0
VERTEX
  5
4a6
  8
Layer_1
  10
291.37878
  20
150.62967
  0
VERTEX
  5
4a7
  8
Layer_1
  10
291.67426
  20
150.65236
  0
VERTEX
  5
4a8
  8
Layer_1
  10
291.97089
  20
150.65628
  0
VERTEX
  5
4a9
  8
Layer_1
  10
294.74689
  20
150.65628
  0
SEQEND
  0
POLYLINE
  5
4ab
  8
Layer_1
  62
6
  70
1
  66
1
  10
0
  20
0
  30
0
  0
VERTEX
  5
4ab
  8
Layer_1
  10
322.76288
  20
156.45627
  0
VERTEX
  5
4ac
  8
Layer_1
  10
322.43866
  20
156.43103
  0
VERTEX
  5
4ad
  8
Layer_1
  10
322.12067
  20
156.37488
  0
VERTEX
  5
4ae
  8
Layer_1
  10
321.81091
  20
156.28876
  0
VERTEX
  5
4af
  8
Layer_1
  10
321.51157
  20
156.17355
  0
VERTEX
  5
4b0
  8
Layer_1
  10
321.22458
  20
156.03018
  0
VERTEX
  5
4b1
  8
Layer_1
  10
320.95212
  20
155.85959
  0
VERTEX
  5
4b2
  8
Layer_1
  10
320.6962
  20
155.66264
  0
VERTEX
  5
4b3
  8
Layer_1
  10
320.45889
  20
155.44028
  0
VERTEX
  5
4b4
  8
Layer_1
  10
320.19635
  20
155.10513
  0
VERTEX
  5
4b5
  8
Layer_1
  10
319.97543
  20
154.74281
  0
VERTEX
  5
4b6
  8
Layer_1
  10
319.79825
  20
154.35722
  0
VERTEX
  5
4b7
  8
Layer_1
  10
319.66687
  20
153.95227
  0
VERTEX
  5
4b8
  8
Layer_1
  10
321.03488
  20
153.78427
  0
VERTEX
  5
4b9
  8
Layer_1
  10
321.16931
  20
154.12971
  0
VERTEX
  5
4ba
  8
Layer_1
  10
321.35092
  20
154.45073
  0
VERTEX
  5
4bb
  8
Layer_1
  10
321.57651
  20
154.74249
  0
VERTEX
  5
4bc
  8
Layer_1
  10
321.8429
  20
155.00027
  0
VERTEX
  5
4bd
  8
Layer_1
  10
322.22394
  20
155.20648
  0
VERTEX
  5
4be
  8
Layer_1
  10
322.62598
  20
155.33316
  0
VERTEX
  5
4bf
  8
Layer_1
  10
323.03809
  20
155.38203
  0
VERTEX
  5
4c0
  8
Layer_1
  10
323.44928
  20
155.35487
  0
VERTEX
  5
4c1
  8
Layer_1
  10
323.84869
  20
155.25339
  0
VERTEX
  5
4c2
  8
Layer_1
  10
324.22537
  20
155.07928
  0
VERTEX
  5
4c3
  8
Layer_1
  10
324.56842
  20
154.83435
  0
VERTEX
  5
4c4
  8
Layer_1
  10
324.86688
  20
154.52028
  0
VERTEX
  5
4c5
  8
Layer_1
  10
325.10577
  20
154.10904
  0
VERTEX
  5
4c6
  8
Layer_1
  10
325.28159
  20
153.66989
  0
VERTEX
  5
4c7
  8
Layer_1
  10
325.39203
  20
153.2099
  0
VERTEX
  5
4c8
  8
Layer_1
  10
325.43488
  20
152.73627
  0
VERTEX
  5
4c9
  8
Layer_1
  10
319.63489
  20
152.73627
  0
VERTEX
  5
4ca
  8
Layer_1
  10
319.62518
  20
152.11717
  0
VERTEX
  5
4cb
  8
Layer_1
  10
319.68524
  20
151.50291
  0
VERTEX
  5
4cc
  8
Layer_1
  10
319.81409
  20
150.89932
  0
VERTEX
  5
4cd
  8
Layer_1
  10
320.01089
  20
150.31227
  0
VERTEX
  5
4ce
  8
Layer_1
  10
320.24698
  20
149.86819
  0
VERTEX
  5
4cf
  8
Layer_1
  10
320.5423
  20
149.47159
  0
VERTEX
  5
4d0
  8
Layer_1
  10
320.88977
  20
149.12688
  0
VERTEX
  5
4d1
  8
Layer_1
  10
321.28232
  20
148.83847
  0
VERTEX
  5
4d2
  8
Layer_1
  10
321.71295
  20
148.61081
  0
VERTEX
  5
4d3
  8
Layer_1
  10
322.17465
  20
148.44826
  0
VERTEX
  5
4d4
  8
Layer_1
  10
322.66028
  20
148.35529
  0
VERTEX
  5
4d5
  8
Layer_1
  10
323.16287
  20
148.33627
  0
VERTEX
  5
4d6
  8
Layer_1
  10
323.53223
  20
148.34125
  0
VERTEX
  5
4d7
  8
Layer_1
  10
323.89569
  20
148.38583
  0
VERTEX
  5
4d8
  8
Layer_1
  10
324.25037
  20
148.46875
  0
VERTEX
  5
4d9
  8
Layer_1
  10
324.59317
  20
148.58885
  0
VERTEX
  5
4da
  8
Layer_1
  10
324.9212
  20
148.74487
  0
VERTEX
  5
4db
  8
Layer_1
  10
325.23151
  20
148.93559
  0
VERTEX
  5
4dc
  8
Layer_1
  10
325.52106
  20
149.15979
  0
VERTEX
  5
4dd
  8
Layer_1
  10
325.7869
  20
149.41628
  0
VERTEX
  5
4de
  8
Layer_1
  10
326.14465
  20
149.88623
  0
VERTEX
  5
4df
  8
Layer_1
  10
326.42413
  20
150.40269
  0
VERTEX
  5
4e0
  8
Layer_1
  10
326.62097
  20
150.95595
  0
VERTEX
  5
4e1
  8
Layer_1
  10
326.7309
  20
151.53627
  0
VERTEX
  5
4e2
  8
Layer_1
  10
326.79486
  20
152.19492
  0
VERTEX
  5
4e3
  8
Layer_1
  10
326.78522
  20
152.85457
  0
VERTEX
  5
4e4
  8
Layer_1
  10
326.70239
  20
153.50905
  0
VERTEX
  5
4e5
  8
Layer_1
  10
326.54688
  20
154.15227
  0
VERTEX
  5
4e6
  8
Layer_1
  10
326.37256
  20
154.58241
  0
VERTEX
  5
4e7
  8
Layer_1
  10
326.14346
  20
154.97842
  0
VERTEX
  5
4e8
  8
Layer_1
  10
325.86462
  20
155.33606
  0
VERTEX
  5
4e9
  8
Layer_1
  10
325.54105
  20
155.65106
  0
VERTEX
  5
4ea
  8
Layer_1
  10
325.1777
  20
155.91924
  0
VERTEX
  5
4eb
  8
Layer_1
  10
324.77957
  20
156.13632
  0
VERTEX
  5
4ec
  8
Layer_1
  10
324.35162
  20
156.29807
  0
VERTEX
  5
4ed
  8
Layer_1
  10
323.8989
  20
156.40027
  0
VERTEX
  5
4ee
  8
Layer_1
  10
323.33234
  20
156.45804
  0
VERTEX
  5
4ef
  8
Layer_1
  10
322.76288
  20
156.45627
  0
SEQEND
  0
POLYLINE
  5
4f1
  8
Layer_1
  62
6
  70
1
  66
1
  10
0
  20
0
  30
0
  0
VERTEX
  5
4f1
  8
Layer_1
  10
316.71487
  20
152.21628
  0
VERTEX
  5
4f2
  8
Layer_1
  10
316.70209
  20
151.76637
  0
VERTEX
  5
4f3
  8
Layer_1
  10
316.64545
  20
151.32092
  0
VERTEX
  5
4f4
  8
Layer_1
  10
316.54553
  20
150.88316
  0
VERTEX
  5
4f5
  8
Layer_1
  10
316.40289
  20
150.45627
  0
VERTEX
  5
4f6
  8
Layer_1
  10
316.29605
  20
150.26352
  0
VERTEX
  5
4f7
  8
Layer_1
  10
316.16125
  20
150.09509
  0
VERTEX
  5
4f8
  8
Layer_1
  10
316.00238
  20
149.95308
  0
VERTEX
  5
4f9
  8
Layer_1
  10
315.82349
  20
149.83957
  0
VERTEX
  5
4fa
  8
Layer_1
  10
315.62851
  20
149.75665
  0
VERTEX
  5
4fb
  8
Layer_1
  10
315.42142
  20
149.70641
  0
VERTEX
  5
4fc
  8
Layer_1
  10
315.20624
  20
149.69092
  0
VERTEX
  5
4fd
  8
Layer_1
  10
314.98688
  20
149.71228
  0
VERTEX
  5
4fe
  8
Layer_1
  10
314.79523
  20
149.75226
  0
VERTEX
  5
4ff
  8
Layer_1
  10
314.60907
  20
149.81125
  0
VERTEX
  5
500
  8
Layer_1
  10
314.42981
  20
149.88876
  0
VERTEX
  5
501
  8
Layer_1
  10
314.25888
  20
149.98427
  0
VERTEX
  5
502
  8
Layer_1
  10
313.80289
  20
148.76027
  0
VERTEX
  5
503
  8
Layer_1
  10
314.21683
  20
148.52908
  0
VERTEX
  5
504
  8
Layer_1
  10
314.66486
  20
148.39003
  0
VERTEX
  5
505
  8
Layer_1
  10
315.1319
  20
148.3461
  0
VERTEX
  5
506
  8
Layer_1
  10
315.60287
  20
148.40027
  0
VERTEX
  5
507
  8
Layer_1
  10
315.91928
  20
148.55159
  0
VERTEX
  5
508
  8
Layer_1
  10
316.19885
  20
148.7583
  0
VERTEX
  5
509
  8
Layer_1
  10
316.43442
  20
149.01399
  0
VERTEX
  5
50a
  8
Layer_1
  10
316.6189
  20
149.31227
  0
VERTEX
  5
50b
  8
Layer_1
  10
316.73615
  20
149.49712
  0
VERTEX
  5
50c
  8
Layer_1
  10
316.8429
  20
149.68828
  0
VERTEX
  5
50d
  8
Layer_1
  10
316.8429
  20
148.51227
  0
VERTEX
  5
50e
  8
Layer_1
  10
318.02689
  20
148.51227
  0
VERTEX
  5
50f
  8
Layer_1
  10
318.02689
  20
156.28827
  0
VERTEX
  5
510
  8
Layer_1
  10
316.71487
  20
156.28827
  0
VERTEX
  5
511
  8
Layer_1
  10
316.71487
  20
152.21628
  0
SEQEND
  0
POLYLINE
  5
513
  8
Layer_1
  62
6
  70
1
  66
1
  10
0
  20
0
  30
0
  0
VERTEX
  5
513
  8
Layer_1
  10
309.42688
  20
156.45628
  0
VERTEX
  5
514
  8
Layer_1
  10
309.10266
  20
156.43103
  0
VERTEX
  5
515
  8
Layer_1
  10
308.78464
  20
156.37491
  0
VERTEX
  5
516
  8
Layer_1
  10
308.47491
  20
156.28876
  0
VERTEX
  5
517
  8
Layer_1
  10
308.17554
  20
156.17355
  0
VERTEX
  5
518
  8
Layer_1
  10
307.88858
  20
156.03018
  0
VERTEX
  5
519
  8
Layer_1
  10
307.61609
  20
155.85959
  0
VERTEX
  5
51a
  8
Layer_1
  10
307.36017
  20
155.66264
  0
VERTEX
  5
51b
  8
Layer_1
  10
307.12289
  20
155.44028
  0
VERTEX
  5
51c
  8
Layer_1
  10
306.86035
  20
155.10513
  0
VERTEX
  5
51d
  8
Layer_1
  10
306.63943
  20
154.74283
  0
VERTEX
  5
51e
  8
Layer_1
  10
306.46225
  20
154.35724
  0
VERTEX
  5
51f
  8
Layer_1
  10
306.33087
  20
153.95227
  0
VERTEX
  5
520
  8
Layer_1
  10
307.69888
  20
153.78427
  0
VERTEX
  5
521
  8
Layer_1
  10
307.83331
  20
154.12971
  0
VERTEX
  5
522
  8
Layer_1
  10
308.01492
  20
154.45073
  0
VERTEX
  5
523
  8
Layer_1
  10
308.24051
  20
154.74249
  0
VERTEX
  5
524
  8
Layer_1
  10
308.5069
  20
155.00027
  0
VERTEX
  5
525
  8
Layer_1
  10
308.88794
  20
155.20648
  0
VERTEX
  5
526
  8
Layer_1
  10
309.28998
  20
155.33316
  0
VERTEX
  5
527
  8
Layer_1
  10
309.70209
  20
155.38203
  0
VERTEX
  5
528
  8
Layer_1
  10
310.11328
  20
155.35487
  0
VERTEX
  5
529
  8
Layer_1
  10
310.5127
  20
155.25339
  0
VERTEX
  5
52a
  8
Layer_1
  10
310.88937
  20
155.07928
  0
VERTEX
  5
52b
  8
Layer_1
  10
311.23242
  20
154.83435
  0
VERTEX
  5
52c
  8
Layer_1
  10
311.53088
  20
154.52028
  0
VERTEX
  5
52d
  8
Layer_1
  10
311.76978
  20
154.10904
  0
VERTEX
  5
52e
  8
Layer_1
  10
311.94559
  20
153.66989
  0
VERTEX
  5
52f
  8
Layer_1
  10
312.05603
  20
153.20993
  0
VERTEX
  5
530
  8
Layer_1
  10
312.09888
  20
152.73628
  0
VERTEX
  5
531
  8
Layer_1
  10
306.29889
  20
152.73628
  0
VERTEX
  5
532
  8
Layer_1
  10
306.28918
  20
152.11717
  0
VERTEX
  5
533
  8
Layer_1
  10
306.34924
  20
151.50291
  0
VERTEX
  5
534
  8
Layer_1
  10
306.47809
  20
150.89932
  0
VERTEX
  5
535
  8
Layer_1
  10
306.6749
  20
150.31227
  0
VERTEX
  5
536
  8
Layer_1
  10
306.91098
  20
149.86819
  0
VERTEX
  5
537
  8
Layer_1
  10
307.2063
  20
149.47159
  0
VERTEX
  5
538
  8
Layer_1
  10
307.55377
  20
149.12688
  0
VERTEX
  5
539
  8
Layer_1
  10
307.94632
  20
148.83847
  0
VERTEX
  5
53a
  8
Layer_1
  10
308.37695
  20
148.61081
  0
VERTEX
  5
53b
  8
Layer_1
  10
308.83865
  20
148.44826
  0
VERTEX
  5
53c
  8
Layer_1
  10
309.32428
  20
148.35529
  0
VERTEX
  5
53d
  8
Layer_1
  10
309.82687
  20
148.33627
  0
VERTEX
  5
53e
  8
Layer_1
  10
310.19623
  20
148.34125
  0
VERTEX
  5
53f
  8
Layer_1
  10
310.55969
  20
148.38583
  0
VERTEX
  5
540
  8
Layer_1
  10
310.91437
  20
148.46875
  0
VERTEX
  5
541
  8
Layer_1
  10
311.25717
  20
148.58885
  0
VERTEX
  5
542
  8
Layer_1
  10
311.58521
  20
148.74487
  0
VERTEX
  5
543
  8
Layer_1
  10
311.89551
  20
148.93559
  0
VERTEX
  5
544
  8
Layer_1
  10
312.18506
  20
149.15979
  0
VERTEX
  5
545
  8
Layer_1
  10
312.4509
  20
149.41628
  0
VERTEX
  5
546
  8
Layer_1
  10
312.80865
  20
149.88623
  0
VERTEX
  5
547
  8
Layer_1
  10
313.08813
  20
150.40269
  0
VERTEX
  5
548
  8
Layer_1
  10
313.28497
  20
150.95595
  0
VERTEX
  5
549
  8
Layer_1
  10
313.3949
  20
151.53627
  0
VERTEX
  5
54a
  8
Layer_1
  10
313.45886
  20
152.19492
  0
VERTEX
  5
54b
  8
Layer_1
  10
313.44922
  20
152.85457
  0
VERTEX
  5
54c
  8
Layer_1
  10
313.36639
  20
153.50905
  0
VERTEX
  5
54d
  8
Layer_1
  10
313.21088
  20
154.15228
  0
VERTEX
  5
54e
  8
Layer_1
  10
313.03656
  20
154.58244
  0
VERTEX
  5
54f
  8
Layer_1
  10
312.80746
  20
154.97845
  0
VERTEX
  5
550
  8
Layer_1
  10
312.52863
  20
155.33609
  0
VERTEX
  5
551
  8
Layer_1
  10
312.20505
  20
155.65109
  0
VERTEX
  5
552
  8
Layer_1
  10
311.84171
  20
155.91925
  0
VERTEX
  5
553
  8
Layer_1
  10
311.44357
  20
156.13632
  0
VERTEX
  5
554
  8
Layer_1
  10
311.01563
  20
156.2981
  0
VERTEX
  5
555
  8
Layer_1
  10
310.5629
  20
156.40028
  0
VERTEX
  5
556
  8
Layer_1
  10
309.99634
  20
156.45805
  0
VERTEX
  5
557
  8
Layer_1
  10
309.42688
  20
156.45628
  0
SEQEND
  0
POLYLINE
  5
559
  8
Layer_1
  62
6
  70
1
  66
1
  10
0
  20
0
  30
0
  0
VERTEX
  5
559
  8
Layer_1
  10
301.27487
  20
156.45628
  0
VERTEX
  5
55a
  8
Layer_1
  10
300.88141
  20
156.41862
  0
VERTEX
  5
55b
  8
Layer_1
  10
300.49802
  20
156.33844
  0
VERTEX
  5
55c
  8
Layer_1
  10
300.12793
  20
156.21738
  0
VERTEX
  5
55d
  8
Layer_1
  10
299.77426
  20
156.05707
  0
VERTEX
  5
55e
  8
Layer_1
  10
299.44019
  20
155.85916
  0
VERTEX
  5
55f
  8
Layer_1
  10
299.12881
  20
155.62529
  0
VERTEX
  5
560
  8
Layer_1
  10
298.84332
  20
155.35712
  0
VERTEX
  5
561
  8
Layer_1
  10
298.58688
  20
155.05627
  0
VERTEX
  5
562
  8
Layer_1
  10
298.30991
  20
154.58228
  0
VERTEX
  5
563
  8
Layer_1
  10
298.10382
  20
154.07635
  0
VERTEX
  5
564
  8
Layer_1
  10
297.97131
  20
153.54642
  0
VERTEX
  5
565
  8
Layer_1
  10
297.91489
  20
153.00027
  0
VERTEX
  5
566
  8
Layer_1
  10
297.87683
  20
152.40186
  0
VERTEX
  5
567
  8
Layer_1
  10
297.90179
  20
151.80444
  0
VERTEX
  5
568
  8
Layer_1
  10
297.98932
  20
151.21294
  0
VERTEX
  5
569
  8
Layer_1
  10
298.13889
  20
150.63228
  0
VERTEX
  5
56a
  8
Layer_1
  10
298.33768
  20
150.16492
  0
VERTEX
  5
56b
  8
Layer_1
  10
298.59961
  20
149.73969
  0
VERTEX
  5
56c
  8
Layer_1
  10
298.91818
  20
149.36154
  0
VERTEX
  5
56d
  8
Layer_1
  10
299.2868
  20
149.03549
  0
VERTEX
  5
56e
  8
Layer_1
  10
299.69894
  20
148.76656
  0
VERTEX
  5
56f
  8
Layer_1
  10
300.14804
  20
148.55971
  0
VERTEX
  5
570
  8
Layer_1
  10
300.62753
  20
148.41995
  0
VERTEX
  5
571
  8
Layer_1
  10
301.13089
  20
148.35228
  0
VERTEX
  5
572
  8
Layer_1
  10
301.47223
  20
148.32872
  0
VERTEX
  5
573
  8
Layer_1
  10
301.81226
  20
148.33572
  0
VERTEX
  5
574
  8
Layer_1
  10
302.14902
  20
148.37282
  0
VERTEX
  5
575
  8
Layer_1
  10
302.48053
  20
148.43948
  0
VERTEX
  5
576
  8
Layer_1
  10
302.80487
  20
148.53525
  0
VERTEX
  5
577
  8
Layer_1
  10
303.12
  20
148.65964
  0
VERTEX
  5
578
  8
Layer_1
  10
303.42401
  20
148.81213
  0
VERTEX
  5
579
  8
Layer_1
  10
303.71487
  20
148.99228
  0
VERTEX
  5
57a
  8
Layer_1
  10
303.94843
  20
149.1799
  0
VERTEX
  5
57b
  8
Layer_1
  10
304.16315
  20
149.38626
  0
VERTEX
  5
57c
  8
Layer_1
  10
304.35809
  20
149.60989
  0
VERTEX
  5
57d
  8
Layer_1
  10
304.53235
  20
149.84933
  0
VERTEX
  5
57e
  8
Layer_1
  10
304.68494
  20
150.10315
  0
VERTEX
  5
57f
  8
Layer_1
  10
304.81482
  20
150.36987
  0
VERTEX
  5
580
  8
Layer_1
  10
304.92114
  20
150.64807
  0
VERTEX
  5
581
  8
Layer_1
  10
305.00287
  20
150.93628
  0
VERTEX
  5
582
  8
Layer_1
  10
305.09442
  20
151.382
  0
VERTEX
  5
583
  8
Layer_1
  10
305.15161
  20
151.83139
  0
VERTEX
  5
584
  8
Layer_1
  10
305.17447
  20
152.2825
  0
VERTEX
  5
585
  8
Layer_1
  10
305.16318
  20
152.73341
  0
VERTEX
  5
586
  8
Layer_1
  10
305.11786
  20
153.18216
  0
VERTEX
  5
587
  8
Layer_1
  10
305.03864
  20
153.62686
  0
VERTEX
  5
588
  8
Layer_1
  10
304.9256
  20
154.06554
  0
VERTEX
  5
589
  8
Layer_1
  10
304.7789
  20
154.49628
  0
VERTEX
  5
58a
  8
Layer_1
  10
304.58594
  20
154.86034
  0
VERTEX
  5
58b
  8
Layer_1
  10
304.35223
  20
155.19395
  0
VERTEX
  5
58c
  8
Layer_1
  10
304.08145
  20
155.49435
  0
VERTEX
  5
58d
  8
Layer_1
  10
303.77722
  20
155.75876
  0
VERTEX
  5
58e
  8
Layer_1
  10
303.44324
  20
155.98434
  0
VERTEX
  5
58f
  8
Layer_1
  10
303.08307
  20
156.16832
  0
VERTEX
  5
590
  8
Layer_1
  10
302.70044
  20
156.30789
  0
VERTEX
  5
591
  8
Layer_1
  10
302.29889
  20
156.40028
  0
VERTEX
  5
592
  8
Layer_1
  10
301.78851
  20
156.45764
  0
VERTEX
  5
593
  8
Layer_1
  10
301.27487
  20
156.45628
  0
SEQEND
  0
POLYLINE
  5
595
  8
Layer_1
  62
6
  70
1
  66
1
  10
0
  20
0
  30
0
  0
VERTEX
  5
595
  8
Layer_1
  10
285.01089
  20
148.51228
  0
VERTEX
  5
596
  8
Layer_1
  10
286.33087
  20
148.51228
  0
VERTEX
  5
597
  8
Layer_1
  10
286.33087
  20
156.28828
  0
VERTEX
  5
598
  8
Layer_1
  10
285.01089
  20
156.28828
  0
VERTEX
  5
599
  8
Layer_1
  10
285.01089
  20
148.51228
  0
SEQEND
  0
POLYLINE
  5
59b
  8
Layer_1
  62
6
  70
1
  66
1
  10
0
  20
0
  30
0
  0
VERTEX
  5
59b
  8
Layer_1
  10
325.36288
  20
151.64827
  0
VERTEX
  5
59c
  8
Layer_1
  10
325.34323
  20
151.39413
  0
VERTEX
  5
59d
  8
Layer_1
  10
325.29706
  20
151.14561
  0
VERTEX
  5
59e
  8
Layer_1
  10
325.22531
  20
150.90466
  0
VERTEX
  5
59f
  8
Layer_1
  10
325.12888
  20
150.67316
  0
VERTEX
  5
5a0
  8
Layer_1
  10
325.0087
  20
150.45303
  0
VERTEX
  5
5a1
  8
Layer_1
  10
324.86572
  20
150.24625
  0
VERTEX
  5
5a2
  8
Layer_1
  10
324.70081
  20
150.05469
  0
VERTEX
  5
5a3
  8
Layer_1
  10
324.51489
  20
149.88028
  0
VERTEX
  5
5a4
  8
Layer_1
  10
324.15369
  20
149.64847
  0
VERTEX
  5
5a5
  8
Layer_1
  10
323.76572
  20
149.49573
  0
VERTEX
  5
5a6
  8
Layer_1
  10
323.36243
  20
149.4209
  0
VERTEX
  5
5a7
  8
Layer_1
  10
322.95517
  20
149.42288
  0
VERTEX
  5
5a8
  8
Layer_1
  10
322.55536
  20
149.50053
  0
VERTEX
  5
5a9
  8
Layer_1
  10
322.17447
  20
149.65274
  0
VERTEX
  5
5aa
  8
Layer_1
  10
321.82382
  20
149.87836
  0
VERTEX
  5
5ab
  8
Layer_1
  10
321.51489
  20
150.17627
  0
VERTEX
  5
5ac
  8
Layer_1
  10
321.31006
  20
150.51364
  0
VERTEX
  5
5ad
  8
Layer_1
  10
321.15771
  20
150.87549
  0
VERTEX
  5
5ae
  8
Layer_1
  10
321.06
  20
151.25572
  0
VERTEX
  5
5af
  8
Layer_1
  10
321.01889
  20
151.64827
  0
VERTEX
  5
5b0
  8
Layer_1
  10
325.36288
  20
151.64827
  0
SEQEND
  0
POLYLINE
  5
5b2
  8
Layer_1
  62
6
  70
1
  66
1
  10
0
  20
0
  30
0
  0
VERTEX
  5
5b2
  8
Layer_1
  10
312.02689
  20
151.64827
  0
VERTEX
  5
5b3
  8
Layer_1
  10
312.00723
  20
151.39413
  0
VERTEX
  5
5b4
  8
Layer_1
  10
311.96106
  20
151.14561
  0
VERTEX
  5
5b5
  8
Layer_1
  10
311.88931
  20
150.90466
  0
VERTEX
  5
5b6
  8
Layer_1
  10
311.79288
  20
150.67316
  0
VERTEX
  5
5b7
  8
Layer_1
  10
311.6727
  20
150.45303
  0
VERTEX
  5
5b8
  8
Layer_1
  10
311.52972
  20
150.24625
  0
VERTEX
  5
5b9
  8
Layer_1
  10
311.36481
  20
150.05469
  0
VERTEX
  5
5ba
  8
Layer_1
  10
311.17889
  20
149.88028
  0
VERTEX
  5
5bb
  8
Layer_1
  10
310.81769
  20
149.64847
  0
VERTEX
  5
5bc
  8
Layer_1
  10
310.42972
  20
149.49573
  0
VERTEX
  5
5bd
  8
Layer_1
  10
310.02643
  20
149.4209
  0
VERTEX
  5
5be
  8
Layer_1
  10
309.61917
  20
149.42288
  0
VERTEX
  5
5bf
  8
Layer_1
  10
309.21936
  20
149.50053
  0
VERTEX
  5
5c0
  8
Layer_1
  10
308.83847
  20
149.65274
  0
VERTEX
  5
5c1
  8
Layer_1
  10
308.48782
  20
149.87837
  0
VERTEX
  5
5c2
  8
Layer_1
  10
308.17889
  20
150.17628
  0
VERTEX
  5
5c3
  8
Layer_1
  10
307.97406
  20
150.51367
  0
VERTEX
  5
5c4
  8
Layer_1
  10
307.82172
  20
150.8755
  0
VERTEX
  5
5c5
  8
Layer_1
  10
307.724
  20
151.25574
  0
VERTEX
  5
5c6
  8
Layer_1
  10
307.68289
  20
151.64828
  0
VERTEX
  5
5c7
  8
Layer_1
  10
312.02689
  20
151.64827
  0
SEQEND
  0
POLYLINE
  5
5c9
  8
Layer_1
  62
6
  70
1
  66
1
  10
0
  20
0
  30
0
  0
VERTEX
  5
5c9
  8
Layer_1
  10
301.05087
  20
155.32828
  0
VERTEX
  5
5ca
  8
Layer_1
  10
301.48566
  20
155.38127
  0
VERTEX
  5
5cb
  8
Layer_1
  10
301.90967
  20
155.34828
  0
VERTEX
  5
5cc
  8
Layer_1
  10
302.31262
  20
155.2357
  0
VERTEX
  5
5cd
  8
Layer_1
  10
302.6842
  20
155.04996
  0
VERTEX
  5
5ce
  8
Layer_1
  10
303.01413
  20
154.79752
  0
VERTEX
  5
5cf
  8
Layer_1
  10
303.29211
  20
154.4848
  0
VERTEX
  5
5d0
  8
Layer_1
  10
303.50781
  20
154.11824
  0
VERTEX
  5
5d1
  8
Layer_1
  10
303.65088
  20
153.70428
  0
VERTEX
  5
5d2
  8
Layer_1
  10
303.73193
  20
153.34647
  0
VERTEX
  5
5d3
  8
Layer_1
  10
303.78656
  20
152.98517
  0
VERTEX
  5
5d4
  8
Layer_1
  10
303.81488
  20
152.62183
  0
VERTEX
  5
5d5
  8
Layer_1
  10
303.81693
  20
152.25787
  0
VERTEX
  5
5d6
  8
Layer_1
  10
303.79269
  20
151.8947
  0
VERTEX
  5
5d7
  8
Layer_1
  10
303.74225
  20
151.53375
  0
VERTEX
  5
5d8
  8
Layer_1
  10
303.66565
  20
151.17648
  0
VERTEX
  5
5d9
  8
Layer_1
  10
303.5629
  20
150.82428
  0
VERTEX
  5
5da
  8
Layer_1
  10
303.3725
  20
150.43927
  0
VERTEX
  5
5db
  8
Layer_1
  10
303.11819
  20
150.10812
  0
VERTEX
  5
5dc
  8
Layer_1
  10
302.81052
  20
149.83572
  0
VERTEX
  5
5dd
  8
Layer_1
  10
302.45981
  20
149.62704
  0
VERTEX
  5
5de
  8
Layer_1
  10
302.07651
  20
149.48701
  0
VERTEX
  5
5df
  8
Layer_1
  10
301.67096
  20
149.42059
  0
VERTEX
  5
5e0
  8
Layer_1
  10
301.2536
  20
149.43271
  0
VERTEX
  5
5e1
  8
Layer_1
  10
300.83487
  20
149.52827
  0
VERTEX
  5
5e2
  8
Layer_1
  10
300.57803
  20
149.63718
  0
VERTEX
  5
5e3
  8
Layer_1
  10
300.33929
  20
149.77524
  0
VERTEX
  5
5e4
  8
Layer_1
  10
300.1207
  20
149.94016
  0
VERTEX
  5
5e5
  8
Layer_1
  10
299.92432
  20
150.12967
  0
VERTEX
  5
5e6
  8
Layer_1
  10
299.75226
  20
150.34151
  0
VERTEX
  5
5e7
  8
Layer_1
  10
299.60663
  20
150.57339
  0
VERTEX
  5
5e8
  8
Layer_1
  10
299.48947
  20
150.82309
  0
VERTEX
  5
5e9
  8
Layer_1
  10
299.40289
  20
151.08829
  0
VERTEX
  5
5ea
  8
Layer_1
  10
299.3129
  20
151.47852
  0
VERTEX
  5
5eb
  8
Layer_1
  10
299.25601
  20
151.87274
  0
VERTEX
  5
5ec
  8
Layer_1
  10
299.23212
  20
152.26895
  0
VERTEX
  5
5ed
  8
Layer_1
  10
299.24109
  20
152.66507
  0
VERTEX
  5
5ee
  8
Layer_1
  10
299.28278
  20
153.0591
  0
VERTEX
  5
5ef
  8
Layer_1
  10
299.35706
  20
153.44899
  0
VERTEX
  5
5f0
  8
Layer_1
  10
299.46378
  20
153.83272
  0
VERTEX
  5
5f1
  8
Layer_1
  10
299.60287
  20
154.20828
  0
VERTEX
  5
5f2
  8
Layer_1
  10
299.72211
  20
154.41547
  0
VERTEX
  5
5f3
  8
Layer_1
  10
299.86249
  20
154.60614
  0
VERTEX
  5
5f4
  8
Layer_1
  10
300.02228
  20
154.77899
  0
VERTEX
  5
5f5
  8
Layer_1
  10
300.19971
  20
154.93266
  0
VERTEX
  5
5f6
  8
Layer_1
  10
300.39307
  20
155.06577
  0
VERTEX
  5
5f7
  8
Layer_1
  10
300.60052
  20
155.17699
  0
VERTEX
  5
5f8
  8
Layer_1
  10
300.82037
  20
155.26494
  0
VERTEX
  5
5f9
  8
Layer_1
  10
301.05087
  20
155.32828
  0
SEQEND
  0
POLYLINE
  5
5fb
  8
Layer_0
  62
0
  70
1
  66
1
  10
0
  20
0
  30
0
  0
VERTEX
  5
5fb
  8
Layer_0
  10
288.36987
  20
144.96619
  0
VERTEX
  5
5fc
  8
Layer_0
  10
288.35699
  20
145.2218
  0
VERTEX
  5
5fd
  8
Layer_0
  10
288.31909
  20
145.47003
  0
VERTEX
  5
5fe
  8
Layer_0
  10
288.25748
  20
145.70961
  0
VERTEX
  5
5ff
  8
Layer_0
  10
288.1734
  20
145.9393
  0
VERTEX
  5
600
  8
Layer_0
  10
287.94293
  20
146.36395
  0
VERTEX
  5
601
  8
Layer_0
  10
287.63763
  20
146.73395
  0
VERTEX
  5
602
  8
Layer_0
  10
287.26764
  20
147.03923
  0
VERTEX
  5
603
  8
Layer_0
  10
286.84299
  20
147.26973
  0
VERTEX
  5
604
  8
Layer_0
  10
286.61328
  20
147.35379
  0
VERTEX
  5
605
  8
Layer_0
  10
286.37372
  20
147.41541
  0
VERTEX
  5
606
  8
Layer_0
  10
286.12549
  20
147.45328
  0
VERTEX
  5
607
  8
Layer_0
  10
285.86987
  20
147.46619
  0
VERTEX
  5
608
  8
Layer_0
  10
285.61426
  20
147.45328
  0
VERTEX
  5
609
  8
Layer_0
  10
285.36603
  20
147.41541
  0
VERTEX
  5
60a
  8
Layer_0
  10
285.12646
  20
147.35379
  0
VERTEX
  5
60b
  8
Layer_0
  10
284.89676
  20
147.26973
  0
VERTEX
  5
60c
  8
Layer_0
  10
284.47211
  20
147.03923
  0
VERTEX
  5
60d
  8
Layer_0
  10
284.10211
  20
146.73395
  0
VERTEX
  5
60e
  8
Layer_0
  10
283.79681
  20
146.36395
  0
VERTEX
  5
60f
  8
Layer_0
  10
283.56635
  20
145.9393
  0
VERTEX
  5
610
  8
Layer_0
  10
283.48227
  20
145.70961
  0
VERTEX
  5
611
  8
Layer_0
  10
283.42065
  20
145.47003
  0
VERTEX
  5
612
  8
Layer_0
  10
283.38275
  20
145.2218
  0
VERTEX
  5
613
  8
Layer_0
  10
283.36987
  20
144.96619
  0
VERTEX
  5
614
  8
Layer_0
  10
283.38275
  20
144.71057
  0
VERTEX
  5
615
  8
Layer_0
  10
283.42065
  20
144.46234
  0
VERTEX
  5
616
  8
Layer_0
  10
283.48227
  20
144.22276
  0
VERTEX
  5
617
  8
Layer_0
  10
283.56635
  20
143.99307
  0
VERTEX
  5
618
  8
Layer_0
  10
283.79681
  20
143.56842
  0
VERTEX
  5
619
  8
Layer_0
  10
284.10211
  20
143.19843
  0
VERTEX
  5
61a
  8
Layer_0
  10
284.47211
  20
142.89314
  0
VERTEX
  5
61b
  8
Layer_0
  10
284.89676
  20
142.66264
  0
VERTEX
  5
61c
  8
Layer_0
  10
285.12646
  20
142.57858
  0
VERTEX
  5
61d
  8
Layer_0
  10
285.36603
  20
142.51697
  0
VERTEX
  5
61e
  8
Layer_0
  10
285.61426
  20
142.4791
  0
VERTEX
  5
61f
  8
Layer_0
  10
285.86987
  20
142.46619
  0
VERTEX
  5
620
  8
Layer_0
  10
286.12549
  20
142.4791
  0
VERTEX
  5
621
  8
Layer_0
  10
286.37372
  20
142.51697
  0
VERTEX
  5
622
  8
Layer_0
  10
286.61328
  20
142.57858
  0
VERTEX
  5
623
  8
Layer_0
  10
286.84299
  20
142.66264
  0
VERTEX
  5
624
  8
Layer_0
  10
287.26764
  20
142.89314
  0
VERTEX
  5
625
  8
Layer_0
  10
287.63763
  20
143.19843
  0
VERTEX
  5
626
  8
Layer_0
  10
287.94293
  20
143.56842
  0
VERTEX
  5
627
  8
Layer_0
  10
288.1734
  20
143.99307
  0
VERTEX
  5
628
  8
Layer_0
  10
288.25748
  20
144.22276
  0
VERTEX
  5
629
  8
Layer_0
  10
288.31909
  20
144.46234
  0
VERTEX
  5
62a
  8
Layer_0
  10
288.35699
  20
144.71057
  0
VERTEX
  5
62b
  8
Layer_0
  10
288.36987
  20
144.96619
  0
SEQEND
  0
POLYLINE
  5
62d
  8
Layer_0
  62
0
  70
1
  66
1
  10
0
  20
0
  30
0
  0
VERTEX
  5
62d
  8
Layer_0
  10
278.61987
  20
175.46619
  0
VERTEX
  5
62e
  8
Layer_0
  10
268.36987
  20
175.46619
  0
VERTEX
  5
62f
  8
Layer_0
  10
268.36987
  20
161.21619
  0
VERTEX
  5
630
  8
Layer_0
  10
272.36987
  20
161.21619
  0
VERTEX
  5
631
  8
Layer_0
  10
272.36987
  20
146.71619
  0
VERTEX
  5
632
  8
Layer_0
  10
268.36987
  20
146.71619
  0
VERTEX
  5
633
  8
Layer_0
  10
268.36987
  20
132.46619
  0
VERTEX
  5
634
  8
Layer_0
  10
278.61987
  20
132.46619
  0
VERTEX
  5
635
  8
Layer_0
  10
278.61987
  20
136.46619
  0
VERTEX
  5
636
  8
Layer_0
  10
293.11987
  20
136.46619
  0
VERTEX
  5
637
  8
Layer_0
  10
293.11987
  20
132.46619
  0
VERTEX
  5
638
  8
Layer_0
  10
307.61987
  20
132.46619
  0
VERTEX
  5
639
  8
Layer_0
  10
307.61987
  20
136.46619
  0
VERTEX
  5
63a
  8
Layer_0
  10
322.11987
  20
136.46619
  0
VERTEX
  5
63b
  8
Layer_0
  10
322.11987
  20
132.46619
  0
VERTEX
  5
63c
  8
Layer_0
  10
336.61987
  20
132.46619
  0
VERTEX
  5
63d
  8
Layer_0
  10
336.61987
  20
136.46619
  0
VERTEX
  5
63e
  8
Layer_0
  10
351.11987
  20
136.46619
  0
VERTEX
  5
63f
  8
Layer_0
  10
351.11987
  20
132.46619
  0
VERTEX
  5
640
  8
Layer_0
  10
361.36987
  20
132.46619
  0
VERTEX
  5
641
  8
Layer_0
  10
361.36987
  20
146.71619
  0
VERTEX
  5
642
  8
Layer_0
  10
357.36987
  20
146.71619
  0
VERTEX
  5
643
  8
Layer_0
  10
357.36987
  20
161.21619
  0
VERTEX
  5
644
  8
Layer_0
  10
361.36987
  20
161.21619
  0
VERTEX
  5
645
  8
Layer_0
  10
361.36987
  20
175.46619
  0
VERTEX
  5
646
  8
Layer_0
  10
351.11987
  20
175.46619
  0
VERTEX
  5
647
  8
Layer_0
  10
351.11987
  20
171.46619
  0
VERTEX
  5
648
  8
Layer_0
  10
336.61987
  20
171.46619
  0
VERTEX
  5
649
  8
Layer_0
  10
336.61987
  20
175.46619
  0
VERTEX
  5
64a
  8
Layer_0
  10
322.11987
  20
175.46619
  0
VERTEX
  5
64b
  8
Layer_0
  10
322.11987
  20
171.46619
  0
VERTEX
  5
64c
  8
Layer_0
  10
307.61987
  20
171.46619
  0
VERTEX
  5
64d
  8
Layer_0
  10
307.61987
  20
175.46619
  0
VERTEX
  5
64e
  8
Layer_0
  10
293.11987
  20
175.46619
  0
VERTEX
  5
64f
  8
Layer_0
  10
293.11987
  20
171.46619
  0
VERTEX
  5
650
  8
Layer_0
  10
278.61987
  20
171.46619
  0
VERTEX
  5
651
  8
Layer_0
  10
278.61987
  20
175.46619
  0
SEQEND
  0
POLYLINE
  5
653
  8
Layer_0
  62
0
  70
1
  66
1
  10
0
  20
0
  30
0
  0
VERTEX
  5
653
  8
Layer_0
  10
422.8699
  20
153.71619
  0
VERTEX
  5
654
  8
Layer_0
  10
422.89532
  20
153.96811
  0
VERTEX
  5
655
  8
Layer_0
  10
422.96814
  20
154.20274
  0
VERTEX
  5
656
  8
Layer_0
  10
423.08337
  20
154.41507
  0
VERTEX
  5
657
  8
Layer_0
  10
423.23602
  20
154.60007
  0
VERTEX
  5
658
  8
Layer_0
  10
423.42102
  20
154.75272
  0
VERTEX
  5
659
  8
Layer_0
  10
423.63336
  20
154.86795
  0
VERTEX
  5
65a
  8
Layer_0
  10
423.86798
  20
154.9408
  0
VERTEX
  5
65b
  8
Layer_0
  10
424.1199
  20
154.96619
  0
VERTEX
  5
65c
  8
Layer_0
  10
424.37183
  20
154.9408
  0
VERTEX
  5
65d
  8
Layer_0
  10
424.60645
  20
154.86795
  0
VERTEX
  5
65e
  8
Layer_0
  10
424.81879
  20
154.75272
  0
VERTEX
  5
65f
  8
Layer_0
  10
425.00378
  20
154.60007
  0
VERTEX
  5
660
  8
Layer_0
  10
425.15643
  20
154.41507
  0
VERTEX
  5
661
  8
Layer_0
  10
425.27167
  20
154.20274
  0
VERTEX
  5
662
  8
Layer_0
  10
425.34448
  20
153.96811
  0
VERTEX
  5
663
  8
Layer_0
  10
425.3699
  20
153.71619
  0
VERTEX
  5
664
  8
Layer_0
  10
425.34448
  20
153.46426
  0
VERTEX
  5
665
  8
Layer_0
  10
425.27167
  20
153.22963
  0
VERTEX
  5
666
  8
Layer_0
  10
425.15643
  20
153.0173
  0
VERTEX
  5
667
  8
Layer_0
  10
425.00378
  20
152.83231
  0
VERTEX
  5
668
  8
Layer_0
  10
424.81879
  20
152.67966
  0
VERTEX
  5
669
  8
Layer_0
  10
424.60645
  20
152.56442
  0
VERTEX
  5
66a
  8
Layer_0
  10
424.37183
  20
152.49158
  0
VERTEX
  5
66b
  8
Layer_0
  10
424.1199
  20
152.46619
  0
VERTEX
  5
66c
  8
Layer_0
  10
423.86798
  20
152.49158
  0
VERTEX
  5
66d
  8
Layer_0
  10
423.63336
  20
152.56442
  0
VERTEX
  5
66e
  8
Layer_0
  10
423.42102
  20
152.67966
  0
VERTEX
  5
66f
  8
Layer_0
  10
423.23602
  20
152.83231
  0
VERTEX
  5
670
  8
Layer_0
  10
423.08337
  20
153.0173
  0
VERTEX
  5
671
  8
Layer_0
  10
422.96814
  20
153.22963
  0
VERTEX
  5
672
  8
Layer_0
  10
422.89532
  20
153.46426
  0
VERTEX
  5
673
  8
Layer_0
  10
422.8699
  20
153.71619
  0
SEQEND
  0
POLYLINE
  5
675
  8
Layer_0
  62
0
  70
1
  66
1
  10
0
  20
0
  30
0
  0
VERTEX
  5
675
  8
Layer_0
  10
480.8699
  20
153.71619
  0
VERTEX
  5
676
  8
Layer_0
  10
480.89532
  20
153.96811
  0
VERTEX
  5
677
  8
Layer_0
  10
480.96814
  20
154.20274
  0
VERTEX
  5
678
  8
Layer_0
  10
481.08337
  20
154.41507
  0
VERTEX
  5
679
  8
Layer_0
  10
481.23602
  20
154.60007
  0
VERTEX
  5
67a
  8
Layer_0
  10
481.42102
  20
154.75272
  0
VERTEX
  5
67b
  8
Layer_0
  10
481.63336
  20
154.86795
  0
VERTEX
  5
67c
  8
Layer_0
  10
481.86798
  20
154.9408
  0
VERTEX
  5
67d
  8
Layer_0
  10
482.1199
  20
154.96619
  0
VERTEX
  5
67e
  8
Layer_0
  10
482.37183
  20
154.9408
  0
VERTEX
  5
67f
  8
Layer_0
  10
482.60645
  20
154.86795
  0
VERTEX
  5
680
  8
Layer_0
  10
482.81879
  20
154.75272
  0
VERTEX
  5
681
  8
Layer_0
  10
483.00378
  20
154.60007
  0
VERTEX
  5
682
  8
Layer_0
  10
483.15643
  20
154.41507
  0
VERTEX
  5
683
  8
Layer_0
  10
483.27167
  20
154.20274
  0
VERTEX
  5
684
  8
Layer_0
  10
483.34448
  20
153.96811
  0
VERTEX
  5
685
  8
Layer_0
  10
483.3699
  20
153.71619
  0
VERTEX
  5
686
  8
Layer_0
  10
483.34448
  20
153.46426
  0
VERTEX
  5
687
  8
Layer_0
  10
483.27167
  20
153.22963
  0
VERTEX
  5
688
  8
Layer_0
  10
483.15643
  20
153.0173
  0
VERTEX
  5
689
  8
Layer_0
  10
483.00378
  20
152.83231
  0
VERTEX
  5
68a
  8
Layer_0
  10
482.81879
  20
152.67966
  0
VERTEX
  5
68b
  8
Layer_0
  10
482.60645
  20
152.56442
  0
VERTEX
  5
68c
  8
Layer_0
  10
482.37183
  20
152.49158
  0
VERTEX
  5
68d
  8
Layer_0
  10
482.1199
  20
152.46619
  0
VERTEX
  5
68e
  8
Layer_0
  10
481.86798
  20
152.49158
  0
VERTEX
  5
68f
  8
Layer_0
  10
481.63336
  20
152.56442
  0
VERTEX
  5
690
  8
Layer_0
  10
481.42102
  20
152.67966
  0
VERTEX
  5
691
  8
Layer_0
  10
481.23602
  20
152.83231
  0
VERTEX
  5
692
  8
Layer_0
  10
481.08337
  20
153.0173
  0
VERTEX
  5
693
  8
Layer_0
  10
480.96814
  20
153.22963
  0
VERTEX
  5
694
  8
Layer_0
  10
480.89532
  20
153.46426
  0
VERTEX
  5
695
  8
Layer_0
  10
480.8699
  20
153.71619
  0
SEQEND
  0
POLYLINE
  5
697
  8
Layer_0
  62
0
  70
1
  66
1
  10
0
  20
0
  30
0
  0
VERTEX
  5
697
  8
Layer_0
  10
422.8699
  20
176.71619
  0
VERTEX
  5
698
  8
Layer_0
  10
422.89532
  20
176.96811
  0
VERTEX
  5
699
  8
Layer_0
  10
422.96814
  20
177.20274
  0
VERTEX
  5
69a
  8
Layer_0
  10
423.08337
  20
177.41507
  0
VERTEX
  5
69b
  8
Layer_0
  10
423.23602
  20
177.60007
  0
VERTEX
  5
69c
  8
Layer_0
  10
423.42102
  20
177.75272
  0
VERTEX
  5
69d
  8
Layer_0
  10
423.63336
  20
177.86795
  0
VERTEX
  5
69e
  8
Layer_0
  10
423.86798
  20
177.9408
  0
VERTEX
  5
69f
  8
Layer_0
  10
424.1199
  20
177.96619
  0
VERTEX
  5
6a0
  8
Layer_0
  10
424.37183
  20
177.9408
  0
VERTEX
  5
6a1
  8
Layer_0
  10
424.60645
  20
177.86795
  0
VERTEX
  5
6a2
  8
Layer_0
  10
424.81879
  20
177.75272
  0
VERTEX
  5
6a3
  8
Layer_0
  10
425.00378
  20
177.60007
  0
VERTEX
  5
6a4
  8
Layer_0
  10
425.15643
  20
177.41507
  0
VERTEX
  5
6a5
  8
Layer_0
  10
425.27167
  20
177.20274
  0
VERTEX
  5
6a6
  8
Layer_0
  10
425.34448
  20
176.96811
  0
VERTEX
  5
6a7
  8
Layer_0
  10
425.3699
  20
176.71619
  0
VERTEX
  5
6a8
  8
Layer_0
  10
425.34448
  20
176.46426
  0
VERTEX
  5
6a9
  8
Layer_0
  10
425.27167
  20
176.22963
  0
VERTEX
  5
6aa
  8
Layer_0
  10
425.15643
  20
176.0173
  0
VERTEX
  5
6ab
  8
Layer_0
  10
425.00378
  20
175.83231
  0
VERTEX
  5
6ac
  8
Layer_0
  10
424.81879
  20
175.67966
  0
VERTEX
  5
6ad
  8
Layer_0
  10
424.60645
  20
175.56442
  0
VERTEX
  5
6ae
  8
Layer_0
  10
424.37183
  20
175.49158
  0
VERTEX
  5
6af
  8
Layer_0
  10
424.1199
  20
175.46619
  0
VERTEX
  5
6b0
  8
Layer_0
  10
423.86798
  20
175.49158
  0
VERTEX
  5
6b1
  8
Layer_0
  10
423.63336
  20
175.56442
  0
VERTEX
  5
6b2
  8
Layer_0
  10
423.42102
  20
175.67966
  0
VERTEX
  5
6b3
  8
Layer_0
  10
423.23602
  20
175.83231
  0
VERTEX
  5
6b4
  8
Layer_0
  10
423.08337
  20
176.0173
  0
VERTEX
  5
6b5
  8
Layer_0
  10
422.96814
  20
176.22963
  0
VERTEX
  5
6b6
  8
Layer_0
  10
422.89532
  20
176.46426
  0
VERTEX
  5
6b7
  8
Layer_0
  10
422.8699
  20
176.71619
  0
SEQEND
  0
POLYLINE
  5
6b9
  8
Layer_0
  62
0
  70
1
  66
1
  10
0
  20
0
  30
0
  0
VERTEX
  5
6b9
  8
Layer_0
  10
480.8699
  20
176.71619
  0
VERTEX
  5
6ba
  8
Layer_0
  10
480.89532
  20
176.96811
  0
VERTEX
  5
6bb
  8
Layer_0
  10
480.96814
  20
177.20274
  0
VERTEX
  5
6bc
  8
Layer_0
  10
481.08337
  20
177.41507
  0
VERTEX
  5
6bd
  8
Layer_0
  10
481.23602
  20
177.60007
  0
VERTEX
  5
6be
  8
Layer_0
  10
481.42102
  20
177.75272
  0
VERTEX
  5
6bf
  8
Layer_0
  10
481.63336
  20
177.86795
  0
VERTEX
  5
6c0
  8
Layer_0
  10
481.86798
  20
177.9408
  0
VERTEX
  5
6c1
  8
Layer_0
  10
482.1199
  20
177.96619
  0
VERTEX
  5
6c2
  8
Layer_0
  10
482.37183
  20
177.9408
  0
VERTEX
  5
6c3
  8
Layer_0
  10
482.60645
  20
177.86795
  0
VERTEX
  5
6c4
  8
Layer_0
  10
482.81879
  20
177.75272
  0
VERTEX
  5
6c5
  8
Layer_0
  10
483.00378
  20
177.60007
  0
VERTEX
  5
6c6
  8
Layer_0
  10
483.15643
  20
177.41507
  0
VERTEX
  5
6c7
  8
Layer_0
  10
483.27167
  20
177.20274
  0
VERTEX
  5
6c8
  8
Layer_0
  10
483.34448
  20
176.96811
  0
VERTEX
  5
6c9
  8
Layer_0
  10
483.3699
  20
176.71619
  0
VERTEX
  5
6ca
  8
Layer_0
  10
483.34448
  20
176.46426
  0
VERTEX
  5
6cb
  8
Layer_0
  10
483.27167
  20
176.22963
  0
VERTEX
  5
6cc
  8
Layer_0
  10
483.15643
  20
176.0173
  0
VERTEX
  5
6cd
  8
Layer_0
  10
483.00378
  20
175.83231
  0
VERTEX
  5
6ce
  8
Layer_0
  10
482.81879
  20
175.67966
  0
VERTEX
  5
6cf
  8
Layer_0
  10
482.60645
  20
175.56442
  0
VERTEX
  5
6d0
  8
Layer_0
  10
482.37183
  20
175.49158
  0
VERTEX
  5
6d1
  8
Layer_0
  10
482.1199
  20
175.46619
  0
VERTEX
  5
6d2
  8
Layer_0
  10
481.86798
  20
175.49158
  0
VERTEX
  5
6d3
  8
Layer_0
  10
481.63336
  20
175.56442
  0
VERTEX
  5
6d4
  8
Layer_0
  10
481.42102
  20
175.67966
  0
VERTEX
  5
6d5
  8
Layer_0
  10
481.23602
  20
175.83231
  0
VERTEX
  5
6d6
  8
Layer_0
  10
481.08337
  20
176.0173
  0
VERTEX
  5
6d7
  8
Layer_0
  10
480.96814
  20
176.22963
  0
VERTEX
  5
6d8
  8
Layer_0
  10
480.89532
  20
176.46426
  0
VERTEX
  5
6d9
  8
Layer_0
  10
480.8699
  20
176.71619
  0
SEQEND
  0
POLYLINE
  5
6db
  8
Layer_0
  62
0
  70
1
  66
1
  10
0
  20
0
  30
0
  0
VERTEX
  5
6db
  8
Layer_0
  10
483.6199
  20
181.46619
  0
VERTEX
  5
6dc
  8
Layer_0
  10
483.6199
  20
185.46619
  0
VERTEX
  5
6dd
  8
Layer_0
  10
498.1199
  20
185.46619
  0
VERTEX
  5
6de
  8
Layer_0
  10
498.1199
  20
181.46619
  0
VERTEX
  5
6df
  8
Layer_0
  10
504.3699
  20
181.46619
  0
VERTEX
  5
6e0
  8
Layer_0
  10
504.3699
  20
168.71619
  0
VERTEX
  5
6e1
  8
Layer_0
  10
508.3699
  20
168.71619
  0
VERTEX
  5
6e2
  8
Layer_0
  10
508.3699
  20
154.21619
  0
VERTEX
  5
6e3
  8
Layer_0
  10
504.3699
  20
154.21619
  0
VERTEX
  5
6e4
  8
Layer_0
  10
504.3699
  20
141.46619
  0
VERTEX
  5
6e5
  8
Layer_0
  10
498.1199
  20
141.46619
  0
VERTEX
  5
6e6
  8
Layer_0
  10
498.1199
  20
137.46619
  0
VERTEX
  5
6e7
  8
Layer_0
  10
483.6199
  20
137.46619
  0
VERTEX
  5
6e8
  8
Layer_0
  10
483.6199
  20
141.46619
  0
VERTEX
  5
6e9
  8
Layer_0
  10
469.1199
  20
141.46619
  0
VERTEX
  5
6ea
  8
Layer_0
  10
469.1199
  20
137.46619
  0
VERTEX
  5
6eb
  8
Layer_0
  10
454.6199
  20
137.46619
  0
VERTEX
  5
6ec
  8
Layer_0
  10
454.6199
  20
141.46619
  0
VERTEX
  5
6ed
  8
Layer_0
  10
440.1199
  20
141.46619
  0
VERTEX
  5
6ee
  8
Layer_0
  10
440.1199
  20
137.46619
  0
VERTEX
  5
6ef
  8
Layer_0
  10
425.6199
  20
137.46619
  0
VERTEX
  5
6f0
  8
Layer_0
  10
425.6199
  20
141.46619
  0
VERTEX
  5
6f1
  8
Layer_0
  10
419.3699
  20
141.46619
  0
VERTEX
  5
6f2
  8
Layer_0
  10
419.3699
  20
154.21619
  0
VERTEX
  5
6f3
  8
Layer_0
  10
415.3699
  20
154.21619
  0
VERTEX
  5
6f4
  8
Layer_0
  10
415.3699
  20
168.71619
  0
VERTEX
  5
6f5
  8
Layer_0
  10
419.3699
  20
168.71619
  0
VERTEX
  5
6f6
  8
Layer_0
  10
419.3699
  20
181.46619
  0
VERTEX
  5
6f7
  8
Layer_0
  10
425.6199
  20
181.46619
  0
VERTEX
  5
6f8
  8
Layer_0
  10
425.6199
  20
185.46619
  0
VERTEX
  5
6f9
  8
Layer_0
  10
440.1199
  20
185.46619
  0
VERTEX
  5
6fa
  8
Layer_0
  10
440.1199
  20
181.46619
  0
VERTEX
  5
6fb
  8
Layer_0
  10
454.6199
  20
181.46619
  0
VERTEX
  5
6fc
  8
Layer_0
  10
454.6199
  20
185.46619
  0
VERTEX
  5
6fd
  8
Layer_0
  10
469.1199
  20
185.46619
  0
VERTEX
  5
6fe
  8
Layer_0
  10
469.1199
  20
181.46619
  0
VERTEX
  5
6ff
  8
Layer_0
  10
483.6199
  20
181.46619
  0
SEQEND
  0
ENDSEC
  0
EOF
