<?xml version="1.0" encoding="UTF-8"?>
<!DOCTYPE svg PUBLIC "-//W3C//DTD SVG 1.1//EN" "http://www.w3.org/Graphics/SVG/1.1/DTD/svg11.dtd">
<svg version="1.1" xmlns="http://www.w3.org/2000/svg" xmlns:xlink="http://www.w3.org/1999/xlink" x="0" y="0" width="172.238" height="121" viewBox="0, 0, 172.238, 121">
  <g id="Layer_1">
    <path d="M152.336,57.604 L135.897,54.547 C135.497,54.472 135.059,54.096 134.924,53.71 L129.885,41.954 C129.697,41.591 129.733,41.021 129.965,40.683 L139.543,26.723 C139.772,26.387 139.727,25.876 139.438,25.587 L127.475,13.624 C127.186,13.335 126.676,13.288 126.34,13.519 L112.135,23.267 C111.799,23.498 111.223,23.539 110.858,23.359 L99.462,18.694 C99.075,18.566 98.698,18.133 98.622,17.732 L95.457,0.729 C95.383,0.328 94.988,-0 94.58,-0 L77.66,-0 C77.253,-0 76.858,0.328 76.784,0.729 L73.62,17.732 C73.544,18.133 73.168,18.566 72.78,18.694 L61.383,23.359 C61.017,23.539 60.441,23.498 60.106,23.267 L45.902,13.519 C45.565,13.288 45.054,13.335 44.766,13.624 L32.802,25.587 C32.514,25.876 32.466,26.387 32.697,26.723 L42.276,40.683 C42.506,41.021 42.542,41.591 42.355,41.954 L37.315,53.71 C37.181,54.096 36.744,54.472 36.342,54.547 L19.904,57.604 C19.502,57.68 19.175,58.074 19.175,58.482 L19.176,75.401 C19.176,75.809 19.504,76.206 19.905,76.279 L35.94,79.263 C36.341,79.336 36.77,79.717 36.892,80.106 L41.898,92.611 C42.077,92.978 42.035,93.552 41.803,93.888 L32.695,107.161 C32.465,107.497 32.512,108.009 32.8,108.298 L44.765,120.261 C45.053,120.548 45.564,120.595 45.901,120.366 L58.939,111.417 C59.275,111.187 59.838,111.169 60.189,111.374 L65.939,114.444 C66.303,114.63 66.728,114.473 66.884,114.096 L78.74,85.449 C78.897,85.072 78.74,84.591 78.392,84.378 L76.953,83.497 C76.687,83.335 76.326,83.056 76.043,82.8 C70.852,79.476 67.408,73.661 67.408,67.039 C67.408,56.705 75.786,48.328 86.119,48.328 C96.452,48.328 104.829,56.705 104.829,67.039 C104.829,73.661 101.386,79.476 96.194,82.8 C95.913,83.056 95.551,83.335 95.286,83.497 L93.847,84.378 C93.501,84.591 93.343,85.072 93.499,85.449 L105.354,114.097 C105.51,114.474 105.934,114.63 106.299,114.445 L112.049,111.375 C112.401,111.17 112.963,111.187 113.299,111.418 L126.338,120.367 C126.674,120.596 127.186,120.549 127.473,120.262 L139.438,108.299 C139.727,108.01 139.774,107.498 139.543,107.162 L130.434,93.889 C130.204,93.553 130.161,92.979 130.34,92.612 L135.346,80.107 C135.469,79.718 135.895,79.337 136.297,79.264 L152.332,76.28 C152.732,76.207 153.061,75.81 153.061,75.402 L153.063,58.483 C153.064,58.074 152.736,57.68 152.336,57.604 z M149.462,73.551 L135.64,76.123 C134.593,76.33 133.913,76.768 133.327,77.274 C132.796,77.761 132.323,78.327 131.99,79.208 L127.019,91.623 C126.702,92.359 126.635,92.979 126.629,93.547 C126.65,94.443 126.797,95.305 127.469,96.328 L135.303,107.744 L126.521,116.525 L115.337,108.849 C114.358,108.201 113.482,108.044 112.632,108.031 C111.915,108.039 111.179,108.158 110.356,108.599 L110.355,108.599 L107.452,110.15 L97.708,86.603 C97.942,86.434 98.158,86.26 98.376,86.075 C104.423,82.1 108.43,75.227 108.43,67.438 C108.428,55.114 98.443,45.128 86.12,45.126 C73.798,45.128 63.812,55.114 63.808,67.438 C63.81,75.227 67.816,82.099 73.864,86.074 C74.08,86.258 74.295,86.431 74.532,86.602 L64.789,110.15 L61.886,108.599 C61.051,108.152 60.303,108.038 59.605,108.031 C58.745,108.045 57.876,108.203 56.897,108.853 L45.72,116.525 L36.936,107.744 L44.771,96.324 C45.437,95.303 45.588,94.446 45.609,93.547 C45.601,92.965 45.527,92.344 45.221,91.627 L40.242,79.185 C39.907,78.309 39.433,77.752 38.908,77.27 C38.319,76.766 37.645,76.331 36.588,76.122 L22.777,73.552 L22.776,61.133 L37,58.484 C38.031,58.277 38.692,57.86 39.277,57.373 C39.798,56.91 40.271,56.376 40.623,55.527 L40.625,55.528 L45.635,43.838 C45.973,43.099 46.068,42.442 46.074,41.802 C46.055,40.927 45.91,40.071 45.255,39.059 L36.939,26.942 L45.721,18.16 L58.069,26.635 C59.1,27.307 59.947,27.448 60.843,27.468 C61.429,27.463 62.049,27.388 62.769,27.079 L74.123,22.432 C75.002,22.086 75.556,21.606 76.03,21.08 C76.524,20.494 76.945,19.832 77.156,18.804 L79.91,4 L92.328,4 L95.08,18.79 C95.296,19.837 95.717,20.497 96.21,21.081 C96.688,21.611 97.242,22.091 98.129,22.438 L109.485,27.087 C110.197,27.39 110.803,27.464 111.393,27.472 C112.281,27.449 113.137,27.31 114.167,26.639 L126.519,18.161 L135.3,26.944 L126.995,39.047 C126.327,40.044 126.181,40.923 126.161,41.804 C126.167,42.429 126.259,43.067 126.574,43.774 L131.612,55.53 L131.613,55.53 C131.967,56.38 132.44,56.913 132.962,57.376 C133.545,57.861 134.2,58.278 135.234,58.487 L149.462,61.133 L149.462,73.551 z" fill="#333333"/>
  </g>
</svg>
