0
SECTION
2
HEADER
9
$INSUNITS
70
1
0
ENDSEC
0
SECTION
2
TABLES
0
TABLE
2
LAYER
0
ENDTAB
0
ENDSEC
0
SECTION
2
ENTITIES
0
LINE
8
front_outsideCutPath
10
0
20
50
11
0
21
36.2560976
0
LINE
8
front_outsideCutPath
10
0
20
36.2560976
11
3.5
21
36.2560976
0
LINE
8
front_outsideCutPath
10
3.5
20
36.2560976
11
3.5
21
16.7439024
0
LINE
8
front_outsideCutPath
10
3.5
20
16.7439024
11
0
21
16.7439024
0
LINE
8
front_outsideCutPath
10
0
20
16.7439024
11
0
21
3
0
LINE
8
front_outsideCutPath
10
0
20
3
11
22.2439024
21
3
0
LINE
8
front_outsideCutPath
10
22.2439024
20
3
11
22.2439024
21
6.5
0
LINE
8
front_outsideCutPath
10
22.2439024
20
6.5
11
41.7560976
21
6.5
0
LINE
8
front_outsideCutPath
10
41.7560976
20
6.5
11
41.7560976
21
3
0
LINE
8
front_outsideCutPath
10
41.7560976
20
3
11
61.2682927
21
3
0
LINE
8
front_outsideCutPath
10
61.2682927
20
3
11
64
21
3
0
LINE
8
front_outsideCutPath
10
64
20
3
11
64
21
16.7439024
0
LINE
8
front_outsideCutPath
10
64
20
16.7439024
11
60.5
21
16.7439024
0
LINE
8
front_outsideCutPath
10
60.5
20
16.7439024
11
60.5
21
36.2560976
0
LINE
8
front_outsideCutPath
10
60.5
20
36.2560976
11
64
21
36.2560976
0
LINE
8
front_outsideCutPath
10
64
20
36.2560976
11
64
21
50
0
LINE
8
front_outsideCutPath
10
64
20
50
11
41.7560976
21
50
0
LINE
8
front_outsideCutPath
10
41.7560976
20
50
11
41.7560976
21
46.5
0
LINE
8
front_outsideCutPath
10
41.7560976
20
46.5
11
22.2439024
21
46.5
0
LINE
8
front_outsideCutPath
10
22.2439024
20
46.5
11
22.2439024
21
50
0
LINE
8
front_outsideCutPath
10
22.2439024
20
50
11
2.7317073
21
50
0
LINE
8
front_outsideCutPath
10
2.7317073
20
50
11
0
21
50
0
LINE
8
left_outsideCutPath
10
70.5
20
50
11
70.5
21
36.2560976
0
LINE
8
left_outsideCutPath
10
70.5
20
36.2560976
11
67
21
36.2560976
0
LINE
8
left_outsideCutPath
10
67
20
36.2560976
11
67
21
16.7439024
0
LINE
8
left_outsideCutPath
10
67
20
16.7439024
11
70.5
21
16.7439024
0
LINE
8
left_outsideCutPath
10
70.5
20
16.7439024
11
70.5
21
3
0
LINE
8
left_outsideCutPath
10
70.5
20
3
11
83.7317073
21
3
0
LINE
8
left_outsideCutPath
10
83.7317073
20
3
11
83.7317073
21
6.5
0
LINE
8
left_outsideCutPath
10
83.7317073
20
6.5
11
103.2439024
21
6.5
0
LINE
8
left_outsideCutPath
10
103.2439024
20
6.5
11
103.2439024
21
3
0
LINE
8
left_outsideCutPath
10
103.2439024
20
3
11
122.7560976
21
3
0
LINE
8
left_outsideCutPath
10
122.7560976
20
3
11
122.7560976
21
6.5
0
LINE
8
left_outsideCutPath
10
122.7560976
20
6.5
11
142.2682927
21
6.5
0
LINE
8
left_outsideCutPath
10
142.2682927
20
6.5
11
142.2682927
21
3
0
LINE
8
left_outsideCutPath
10
142.2682927
20
3
11
155.5
21
3
0
LINE
8
left_outsideCutPath
10
155.5
20
3
11
155.5
21
16.7439024
0
LINE
8
left_outsideCutPath
10
155.5
20
16.7439024
11
159
21
16.7439024
0
LINE
8
left_outsideCutPath
10
159
20
16.7439024
11
159
21
36.2560976
0
LINE
8
left_outsideCutPath
10
159
20
36.2560976
11
155.5
21
36.2560976
0
LINE
8
left_outsideCutPath
10
155.5
20
36.2560976
11
155.5
21
50
0
LINE
8
left_outsideCutPath
10
155.5
20
50
11
142.2682927
21
50
0
LINE
8
left_outsideCutPath
10
142.2682927
20
50
11
142.2682927
21
46.5
0
LINE
8
left_outsideCutPath
10
142.2682927
20
46.5
11
122.7560976
21
46.5
0
LINE
8
left_outsideCutPath
10
122.7560976
20
46.5
11
122.7560976
21
50
0
LINE
8
left_outsideCutPath
10
122.7560976
20
50
11
103.2439024
21
50
0
LINE
8
left_outsideCutPath
10
103.2439024
20
50
11
103.2439024
21
46.5
0
LINE
8
left_outsideCutPath
10
103.2439024
20
46.5
11
83.7317073
21
46.5
0
LINE
8
left_outsideCutPath
10
83.7317073
20
46.5
11
83.7317073
21
50
0
LINE
8
left_outsideCutPath
10
83.7317073
20
50
11
70.5
21
50
0
LINE
8
top_outsideCutPath
10
165.5
20
91.5
11
165.5
21
78.2682927
0
LINE
8
top_outsideCutPath
10
165.5
20
78.2682927
11
162
21
78.2682927
0
LINE
8
top_outsideCutPath
10
162
20
78.2682927
11
162
21
58.7560976
0
LINE
8
top_outsideCutPath
10
162
20
58.7560976
11
165.5
21
58.7560976
0
LINE
8
top_outsideCutPath
10
165.5
20
58.7560976
11
165.5
21
39.2439024
0
LINE
8
top_outsideCutPath
10
165.5
20
39.2439024
11
162
21
39.2439024
0
LINE
8
top_outsideCutPath
10
162
20
39.2439024
11
162
21
19.7317073
0
LINE
8
top_outsideCutPath
10
162
20
19.7317073
11
165.5
21
19.7317073
0
LINE
8
top_outsideCutPath
10
165.5
20
19.7317073
11
165.5
21
6.5
0
LINE
8
top_outsideCutPath
10
165.5
20
6.5
11
184.2439024
21
6.5
0
LINE
8
top_outsideCutPath
10
184.2439024
20
6.5
11
184.2439024
21
3
0
LINE
8
top_outsideCutPath
10
184.2439024
20
3
11
203.7560976
21
3
0
LINE
8
top_outsideCutPath
10
203.7560976
20
3
11
203.7560976
21
6.5
0
LINE
8
top_outsideCutPath
10
203.7560976
20
6.5
11
222.5
21
6.5
0
LINE
8
top_outsideCutPath
10
222.5
20
6.5
11
222.5
21
19.7317073
0
LINE
8
top_outsideCutPath
10
222.5
20
19.7317073
11
226
21
19.7317073
0
LINE
8
top_outsideCutPath
10
226
20
19.7317073
11
226
21
39.2439024
0
LINE
8
top_outsideCutPath
10
226
20
39.2439024
11
222.5
21
39.2439024
0
LINE
8
top_outsideCutPath
10
222.5
20
39.2439024
11
222.5
21
58.7560976
0
LINE
8
top_outsideCutPath
10
222.5
20
58.7560976
11
226
21
58.7560976
0
LINE
8
top_outsideCutPath
10
226
20
58.7560976
11
226
21
78.2682927
0
LINE
8
top_outsideCutPath
10
226
20
78.2682927
11
222.5
21
78.2682927
0
LINE
8
top_outsideCutPath
10
222.5
20
78.2682927
11
222.5
21
91.5
0
LINE
8
top_outsideCutPath
10
222.5
20
91.5
11
203.7560976
21
91.5
0
LINE
8
top_outsideCutPath
10
203.7560976
20
91.5
11
203.7560976
21
95
0
LINE
8
top_outsideCutPath
10
203.7560976
20
95
11
184.2439024
21
95
0
LINE
8
top_outsideCutPath
10
184.2439024
20
95
11
184.2439024
21
91.5
0
LINE
8
top_outsideCutPath
10
184.2439024
20
91.5
11
165.5
21
91.5
0
LINE
8
back_outsideCutPath
10
0
20
100
11
0
21
86.2560976
0
LINE
8
back_outsideCutPath
10
0
20
86.2560976
11
3.5
21
86.2560976
0
LINE
8
back_outsideCutPath
10
3.5
20
86.2560976
11
3.5
21
66.7439024
0
LINE
8
back_outsideCutPath
10
3.5
20
66.7439024
11
0
21
66.7439024
0
LINE
8
back_outsideCutPath
10
0
20
66.7439024
11
0
21
53
0
LINE
8
back_outsideCutPath
10
0
20
53
11
22.2439024
21
53
0
LINE
8
back_outsideCutPath
10
22.2439024
20
53
11
22.2439024
21
56.5
0
LINE
8
back_outsideCutPath
10
22.2439024
20
56.5
11
41.7560976
21
56.5
0
LINE
8
back_outsideCutPath
10
41.7560976
20
56.5
11
41.7560976
21
53
0
LINE
8
back_outsideCutPath
10
41.7560976
20
53
11
61.2682927
21
53
0
LINE
8
back_outsideCutPath
10
61.2682927
20
53
11
64
21
53
0
LINE
8
back_outsideCutPath
10
64
20
53
11
64
21
66.7439024
0
LINE
8
back_outsideCutPath
10
64
20
66.7439024
11
60.5
21
66.7439024
0
LINE
8
back_outsideCutPath
10
60.5
20
66.7439024
11
60.5
21
86.2560976
0
LINE
8
back_outsideCutPath
10
60.5
20
86.2560976
11
64
21
86.2560976
0
LINE
8
back_outsideCutPath
10
64
20
86.2560976
11
64
21
100
0
LINE
8
back_outsideCutPath
10
64
20
100
11
41.7560976
21
100
0
LINE
8
back_outsideCutPath
10
41.7560976
20
100
11
41.7560976
21
96.5
0
LINE
8
back_outsideCutPath
10
41.7560976
20
96.5
11
22.2439024
21
96.5
0
LINE
8
back_outsideCutPath
10
22.2439024
20
96.5
11
22.2439024
21
100
0
LINE
8
back_outsideCutPath
10
22.2439024
20
100
11
2.7317073
21
100
0
LINE
8
back_outsideCutPath
10
2.7317073
20
100
11
0
21
100
0
LINE
8
right_outsideCutPath
10
70.5
20
100
11
70.5
21
86.2560976
0
LINE
8
right_outsideCutPath
10
70.5
20
86.2560976
11
67
21
86.2560976
0
LINE
8
right_outsideCutPath
10
67
20
86.2560976
11
67
21
66.7439024
0
LINE
8
right_outsideCutPath
10
67
20
66.7439024
11
70.5
21
66.7439024
0
LINE
8
right_outsideCutPath
10
70.5
20
66.7439024
11
70.5
21
53
0
LINE
8
right_outsideCutPath
10
70.5
20
53
11
83.7317073
21
53
0
LINE
8
right_outsideCutPath
10
83.7317073
20
53
11
83.7317073
21
56.5
0
LINE
8
right_outsideCutPath
10
83.7317073
20
56.5
11
103.2439024
21
56.5
0
LINE
8
right_outsideCutPath
10
103.2439024
20
56.5
11
103.2439024
21
53
0
LINE
8
right_outsideCutPath
10
103.2439024
20
53
11
122.7560976
21
53
0
LINE
8
right_outsideCutPath
10
122.7560976
20
53
11
122.7560976
21
56.5
0
LINE
8
right_outsideCutPath
10
122.7560976
20
56.5
11
142.2682927
21
56.5
0
LINE
8
right_outsideCutPath
10
142.2682927
20
56.5
11
142.2682927
21
53
0
LINE
8
right_outsideCutPath
10
142.2682927
20
53
11
155.5
21
53
0
LINE
8
right_outsideCutPath
10
155.5
20
53
11
155.5
21
66.7439024
0
LINE
8
right_outsideCutPath
10
155.5
20
66.7439024
11
159
21
66.7439024
0
LINE
8
right_outsideCutPath
10
159
20
66.7439024
11
159
21
86.2560976
0
LINE
8
right_outsideCutPath
10
159
20
86.2560976
11
155.5
21
86.2560976
0
LINE
8
right_outsideCutPath
10
155.5
20
86.2560976
11
155.5
21
100
0
LINE
8
right_outsideCutPath
10
155.5
20
100
11
142.2682927
21
100
0
LINE
8
right_outsideCutPath
10
142.2682927
20
100
11
142.2682927
21
96.5
0
LINE
8
right_outsideCutPath
10
142.2682927
20
96.5
11
122.7560976
21
96.5
0
LINE
8
right_outsideCutPath
10
122.7560976
20
96.5
11
122.7560976
21
100
0
LINE
8
right_outsideCutPath
10
122.7560976
20
100
11
103.2439024
21
100
0
LINE
8
right_outsideCutPath
10
103.2439024
20
100
11
103.2439024
21
96.5
0
LINE
8
right_outsideCutPath
10
103.2439024
20
96.5
11
83.7317073
21
96.5
0
LINE
8
right_outsideCutPath
10
83.7317073
20
96.5
11
83.7317073
21
100
0
LINE
8
right_outsideCutPath
10
83.7317073
20
100
11
70.5
21
100
0
LINE
8
bottom_outsideCutPath
10
165.5
20
186.5
11
165.5
21
173.2682927
0
LINE
8
bottom_outsideCutPath
10
165.5
20
173.2682927
11
162
21
173.2682927
0
LINE
8
bottom_outsideCutPath
10
162
20
173.2682927
11
162
21
153.7560976
0
LINE
8
bottom_outsideCutPath
10
162
20
153.7560976
11
165.5
21
153.7560976
0
LINE
8
bottom_outsideCutPath
10
165.5
20
153.7560976
11
165.5
21
134.2439024
0
LINE
8
bottom_outsideCutPath
10
165.5
20
134.2439024
11
162
21
134.2439024
0
LINE
8
bottom_outsideCutPath
10
162
20
134.2439024
11
162
21
114.7317073
0
LINE
8
bottom_outsideCutPath
10
162
20
114.7317073
11
165.5
21
114.7317073
0
LINE
8
bottom_outsideCutPath
10
165.5
20
114.7317073
11
165.5
21
101.5
0
LINE
8
bottom_outsideCutPath
10
165.5
20
101.5
11
184.2439024
21
101.5
0
LINE
8
bottom_outsideCutPath
10
184.2439024
20
101.5
11
184.2439024
21
98
0
LINE
8
bottom_outsideCutPath
10
184.2439024
20
98
11
203.7560976
21
98
0
LINE
8
bottom_outsideCutPath
10
203.7560976
20
98
11
203.7560976
21
101.5
0
LINE
8
bottom_outsideCutPath
10
203.7560976
20
101.5
11
222.5
21
101.5
0
LINE
8
bottom_outsideCutPath
10
222.5
20
101.5
11
222.5
21
114.7317073
0
LINE
8
bottom_outsideCutPath
10
222.5
20
114.7317073
11
226
21
114.7317073
0
LINE
8
bottom_outsideCutPath
10
226
20
114.7317073
11
226
21
134.2439024
0
LINE
8
bottom_outsideCutPath
10
226
20
134.2439024
11
222.5
21
134.2439024
0
LINE
8
bottom_outsideCutPath
10
222.5
20
134.2439024
11
222.5
21
153.7560976
0
LINE
8
bottom_outsideCutPath
10
222.5
20
153.7560976
11
226
21
153.7560976
0
LINE
8
bottom_outsideCutPath
10
226
20
153.7560976
11
226
21
173.2682927
0
LINE
8
bottom_outsideCutPath
10
226
20
173.2682927
11
222.5
21
173.2682927
0
LINE
8
bottom_outsideCutPath
10
222.5
20
173.2682927
11
222.5
21
186.5
0
LINE
8
bottom_outsideCutPath
10
222.5
20
186.5
11
203.7560976
21
186.5
0
LINE
8
bottom_outsideCutPath
10
203.7560976
20
186.5
11
203.7560976
21
190
0
LINE
8
bottom_outsideCutPath
10
203.7560976
20
190
11
184.2439024
21
190
0
LINE
8
bottom_outsideCutPath
10
184.2439024
20
190
11
184.2439024
21
186.5
0
LINE
8
bottom_outsideCutPath
10
184.2439024
20
186.5
11
165.5
21
186.5
0
ENDSEC
0
EOF